<svg width="24" height="24" viewBox="0 0 24 24" fill="none" xmlns="http://www.w3.org/2000/svg">
<path d="M21.25 7.2979V11.722C21.25 13.2389 20.8943 14.288 20.292 14.9808C19.8282 15.5143 19.1605 15.9025 18.2331 16.1033V11.722C18.2331 9.8377 17.7495 8.28697 16.6542 7.21418C15.5618 6.14419 13.9875 5.67412 12.074 5.67412H4.88C5.08553 4.787 5.47811 4.1448 6.0185 3.69483C6.73191 3.10078 7.8125 2.75 9.36386 2.75H16.591C18.2798 2.75 19.41 3.16476 20.1215 3.86167C20.8302 4.55576 21.25 5.65398 21.25 7.2979Z" stroke="#576081" stroke-width="1.5"/>
<path d="M17.98 10.7759V14.7694C17.98 15.029 17.97 15.2786 17.94 15.5182C17.71 18.2138 16.12 19.5516 13.19 19.5516H12.79C12.54 19.5516 12.3 19.6714 12.15 19.8711L10.95 21.4685C10.42 22.1774 9.56 22.1774 9.03 21.4685L7.82999 19.8711C7.69999 19.7014 7.41 19.5516 7.19 19.5516H6.79001C3.60001 19.5516 2 18.7629 2 14.7694V10.7759C2 7.85064 3.35001 6.26322 6.04001 6.0336C6.28001 6.00364 6.53001 5.99365 6.79001 5.99365H13.19C16.38 5.99365 17.98 7.59107 17.98 10.7759Z" stroke="#576081" stroke-width="1.5" stroke-miterlimit="10" stroke-linecap="round" stroke-linejoin="round"/>
<path d="M13.4955 13.2316H13.5045" stroke="#576081" stroke-width="2" stroke-linecap="round" stroke-linejoin="round"/>
<path d="M9.9955 13.2316H10.0045" stroke="#576081" stroke-width="2" stroke-linecap="round" stroke-linejoin="round"/>
<path d="M6.4955 13.2316H6.5045" stroke="#576081" stroke-width="2" stroke-linecap="round" stroke-linejoin="round"/>
</svg>
