<svg width="16" height="16" viewBox="0 0 16 16" fill="none" xmlns="http://www.w3.org/2000/svg">
<path d="M0.239668 7.45478C1.87286 6.3703 3.70437 5.45483 5.40756 4.53935C8.34731 3.04643 11.2871 1.56759 14.2735 0.20142C14.8568 -0.0380119 15.895 -0.263359 16 0.778872C15.9417 2.24363 15.72 3.70839 15.5567 5.15906C15.1601 8.37026 14.6934 11.5674 14.2385 14.7645C14.0868 15.8349 12.9786 16.3842 12.267 15.694C10.5638 14.3138 8.8606 12.9335 7.18075 11.5251C6.63246 10.8491 7.14575 9.87727 7.63571 9.3984C9.03559 7.73647 10.5171 6.31396 11.847 4.56752C12.2087 3.52529 11.1471 4.39851 10.7971 4.66611C8.88394 6.25763 7.01743 7.94773 4.9876 9.35615C3.96102 10.0463 2.74779 9.45474 1.72121 9.07447C0.79962 8.62377 -0.553599 8.15899 0.239668 7.45478Z" fill="#576081"/>
</svg>
