<svg width="20" height="20" viewBox="0 0 20 20" fill="none" xmlns="http://www.w3.org/2000/svg">
<path d="M12.5 16.25C12.5 16.913 12.2366 17.5489 11.7678 18.0177C11.2989 18.4866 10.663 18.75 10 18.75C9.33696 18.75 8.70107 18.4866 8.23223 18.0177C7.76339 17.5489 7.5 16.913 7.5 16.25H12.5ZM16.25 15H2.625C2.42609 15 2.23532 14.9209 2.09467 14.7803C1.95402 14.6396 1.875 14.4489 1.875 14.25C1.875 14.0511 1.95402 13.8603 2.09467 13.7196C2.23532 13.579 2.42609 13.5 2.625 13.5H3.75V8.74997C3.75 5.72497 5.9 3.19997 8.75625 2.62497C8.7388 2.45116 8.75798 2.27562 8.81254 2.10968C8.8671 1.94374 8.95584 1.79108 9.07303 1.66154C9.19022 1.532 9.33325 1.42846 9.49292 1.3576C9.65258 1.28673 9.82532 1.25012 10 1.25012C10.1747 1.25012 10.3474 1.28673 10.5071 1.3576C10.6667 1.42846 10.8098 1.532 10.927 1.66154C11.0442 1.79108 11.1329 1.94374 11.1875 2.10968C11.242 2.27562 11.2612 2.45116 11.2437 2.62497C12.6564 2.9123 13.9264 3.67894 14.8386 4.79511C15.7509 5.91128 16.2495 7.3084 16.25 8.74997V13.5H17.375C17.5739 13.5 17.7647 13.579 17.9053 13.7196C18.046 13.8603 18.125 14.0511 18.125 14.25C18.125 14.4489 18.046 14.6396 17.9053 14.7803C17.7647 14.9209 17.5739 15 17.375 15H16.25Z" fill="#576081"/>
</svg>
