<svg width="84" height="20" viewBox="0 0 84 20" fill="none" xmlns="http://www.w3.org/2000/svg">
<path d="M5.60187 0.533672L0 15.4257H3.2911L4.87363 11.0801H9.42514L11.0497 15.4257H14.4108L8.79493 0.533672H5.60187ZM8.62688 8.60229H5.6859L6.91831 5.32401C7.00234 5.0953 7.08636 4.87929 7.15639 4.66328C7.24041 4.89199 7.31044 5.12071 7.40847 5.36213L8.62688 8.60229Z" fill="white"/>
<path d="M19.9426 8.64041C18.4301 8.09403 18.2621 7.8399 18.2621 7.446C18.2621 6.93774 18.7242 6.63278 19.4805 6.63278C20.3628 6.63278 21.063 6.95044 21.3991 7.14104L22.0433 7.50953L22.8976 5.14612L22.5055 4.91741C21.7633 4.47268 20.6429 4.21855 19.5085 4.21855C16.9737 4.21855 15.139 5.66709 15.139 7.67471C15.139 9.51715 16.9316 10.4956 18.4441 10.9911C19.9426 11.4994 20.0687 11.8551 20.0687 12.2872C20.0687 13.1004 19.1304 13.2147 18.5702 13.2147C17.7019 13.2147 16.7636 12.8844 16.2314 12.5921L15.5872 12.249L14.7469 14.6506L15.1531 14.8666C16.0774 15.3621 17.3098 15.6417 18.5282 15.6417C21.3151 15.6417 23.1917 14.2186 23.1917 12.1093C23.1917 9.98729 21.3291 9.11055 19.9426 8.64041Z" fill="white"/>
<path d="M28.1354 1.85515L24.9983 2.71919V4.42186H23.3038V6.87421H24.9983V11.7408C24.9983 13.1004 25.2924 14.0661 25.9226 14.7141C26.5388 15.3113 27.4492 15.6544 28.5135 15.6544C29.4658 15.6544 30.1521 15.4765 30.4742 15.3748L30.8943 15.2478L30.7262 12.7827L29.998 12.9733C29.7879 13.0241 29.5358 13.075 29.0177 13.075C28.6395 13.075 28.1214 13.075 28.1214 11.69V6.87421H30.9643V4.42186H28.1354V1.85515Z" fill="white"/>
<path d="M38.6249 4.3202L38.0507 4.24396C37.8826 4.21855 37.7146 4.20585 37.4905 4.20585C36.4962 4.20585 35.5859 4.57433 34.8856 5.22236L34.8436 4.42186H31.9026L31.9447 4.99365C32.0007 5.84498 32.0427 6.81067 32.0427 8.05591V15.4257H35.2217V9.6061C35.2217 9.33926 35.2498 9.05972 35.2778 8.86912C35.5158 7.72554 36.3001 7.01398 37.3645 7.01398C37.6165 7.01398 37.7706 7.01398 37.9106 7.03939L38.6389 7.17916L38.6249 4.3202Z" fill="white"/>
<path d="M44.4088 4.21855C40.8656 4.21855 38.3868 6.59466 38.3868 10.0127C38.3868 13.3418 40.7816 15.6544 44.2267 15.6544C47.1397 15.6544 50.2628 13.8374 50.2628 9.84752C50.2768 6.53113 47.868 4.21855 44.4088 4.21855ZM47.0557 9.91106C47.0557 11.8297 45.9073 13.2274 44.3388 13.2274C42.7703 13.2274 41.6359 11.8424 41.6359 9.96188C41.6359 8.74206 42.2101 6.6709 44.3808 6.6709C46.4955 6.64549 47.0557 8.78018 47.0557 9.91106Z" fill="white"/>
<path d="M60.6962 1.71537C59.6599 0.864041 58.0774 0.43202 56.0327 0.43202C54.6602 0.43202 53.3578 0.520966 52.1534 0.698856L51.6632 0.775096V15.4257H54.8143V9.9873C55.1364 10.0127 55.4725 10.0254 55.8086 10.0254C57.9373 10.0254 59.7439 9.42821 60.8923 8.34816C61.7886 7.50953 62.2368 6.39136 62.2368 5.01906C62.2227 3.68488 61.6766 2.51588 60.6962 1.71537ZM59.0717 5.10801C59.0717 7.19187 57.055 7.49682 55.8506 7.49682C55.4445 7.49682 55.1084 7.48412 54.8283 7.446V2.97332C55.1364 2.9352 55.5565 2.92249 56.0887 2.92249C57.4331 2.92249 59.0717 3.30368 59.0717 5.10801Z" fill="white"/>
<path d="M71.886 12.5032V8.79289C71.886 5.83228 70.1914 4.21855 67.1384 4.21855C65.7239 4.21855 64.2394 4.57433 63.2171 5.15883L62.8109 5.38755L63.6652 7.67471L64.3094 7.28081C64.9677 6.87421 65.92 6.63278 66.8443 6.63278C67.4885 6.62008 67.9507 6.75985 68.2588 7.02668C68.5108 7.2554 68.6649 7.59848 68.7209 8.0305C66.2421 8.09403 64.4355 8.6277 63.3151 9.63151C62.5448 10.3304 62.1527 11.2071 62.1527 12.2618C62.1527 13.9517 63.4972 15.6544 66.102 15.6544C67.2084 15.6544 68.2448 15.3367 69.057 14.7776L69.1411 15.4384H72.1521L72.04 14.8158C71.942 14.2058 71.886 13.4307 71.886 12.5032ZM66.5922 13.2402C66.116 13.2402 65.3318 13.0877 65.3318 12.0584C65.3318 11.6645 65.4578 11.3469 65.7379 11.1055C66.102 10.7751 66.9283 10.3939 68.7769 10.3685V11.5502C68.7769 11.6391 68.7629 11.7916 68.7209 11.9441C68.4968 12.5413 67.8106 13.2402 66.5922 13.2402Z" fill="white"/>
<path d="M80.6389 4.42186L78.3281 10.6099C78.2721 10.7624 78.2161 10.9276 78.16 11.0801C78.104 10.9276 78.048 10.7751 77.978 10.6353L75.4572 4.42186H71.998L76.3394 14.2948L76.3534 14.3202C76.4235 14.4473 76.4515 14.5235 76.4515 14.5489C76.4235 14.5997 76.3815 14.7014 76.3534 14.7649C75.9753 15.4892 75.4151 16.1754 74.8549 16.582L74.8409 16.5947C74.2107 17.0902 73.5665 17.3062 73.3004 17.3698L72.7402 17.5349L73.5525 20L74.0707 19.9111C74.3928 19.8602 75.5132 19.6188 76.8016 18.6404C78.3421 17.3952 79.3645 15.4257 80.7089 12.2236L84 4.42186H80.6389Z" fill="white"/>
<path d="M11.5959 4.62516C13.6405 2.73189 17.1137 1.60102 20.881 1.60102C22.3515 1.60102 23.7799 1.7662 25.1384 2.10928L25.2504 2.13469L27.6592 1.47395L26.5809 1.09276C24.5222 0.381195 22.1554 0 19.7186 0C16.1754 0 12.8703 0.775095 10.4195 2.18551L10.1534 2.33799L11.1757 5.04447L11.5959 4.62516Z" fill="#FF0000"/>
</svg>
