<svg width="32" height="32" viewBox="0 0 32 32" fill="none" xmlns="http://www.w3.org/2000/svg">
<path d="M1.07119 8.00813H2.26378V9.29546C2.26378 9.8638 2.74224 10.3226 3.33497 10.3226H16H28.665C29.2578 10.3226 29.7362 9.8638 29.7362 9.29546V8.00813H30.9288C31.5215 8.00813 32 7.54935 32 6.98101V5.32049C32 4.86856 31.6893 4.46798 31.2394 4.33788L16.4641 0.0650511C16.3142 0.0205425 16.1571 0 16 0C15.8429 0 15.6894 0.0205425 15.5358 0.0650511L0.760545 4.33788C0.307074 4.46798 0 4.86856 0 5.32049V6.98101C0 7.54593 0.478465 8.00813 1.07119 8.00813Z" fill="#3571AD"/>
<path d="M30.9314 28.5364H29.7026V27.2443C29.7026 26.6739 29.2253 26.2134 28.634 26.2134H27.2235V11.355H23.1415V26.2134H17.902V11.355H14.0979V26.2134H8.85841V11.355H4.77649V26.2134H3.36598C2.77471 26.2134 2.29742 26.6739 2.29742 27.2443V28.5364H1.06857C0.477293 28.5364 0 28.9968 0 29.5673V30.9693C0 31.5397 0.477293 32.0001 1.06857 32.0001H30.9314C31.5227 32.0001 32 31.5397 32 30.9693V29.5673C32 28.9968 31.5227 28.5364 30.9314 28.5364Z" fill="#3571AD"/>
</svg>
