<svg width="19" height="17" viewBox="0 0 19 17" fill="none" xmlns="http://www.w3.org/2000/svg">
<path fill-rule="evenodd" clip-rule="evenodd" d="M15.8047 0H2.25781C1.659 0 1.08472 0.244343 0.661298 0.679276C0.237876 1.11421 0 1.7041 0 2.31919V11.596C0 12.211 0.237876 12.8009 0.661298 13.2359C1.08472 13.6708 1.659 13.9152 2.25781 13.9152H3.01042V16.2343C3.01078 16.3742 3.04807 16.5113 3.11831 16.6311C3.18856 16.7509 3.28912 16.8489 3.4093 16.9146C3.52698 16.9767 3.65852 17.0058 3.79065 16.999C3.92278 16.9923 4.05083 16.9498 4.1619 16.876L8.50443 13.9152H15.8047C16.4035 13.9152 16.9778 13.6708 17.4012 13.2359C17.8246 12.8009 18.0625 12.211 18.0625 11.596V2.31919C18.0625 1.7041 17.8246 1.11421 17.4012 0.679276C16.9778 0.244343 16.4035 0 15.8047 0ZM4.95946 6.73057C4.94528 6.72967 4.93097 6.72921 4.91657 6.72921C4.54838 6.72921 4.2499 7.02769 4.2499 7.39588C4.2499 7.73385 4.5014 8.01308 4.82746 8.05663C4.50145 8.01304 4.25 7.73383 4.25 7.39588C4.25 7.02769 4.54848 6.72922 4.91667 6.72922C4.93104 6.72922 4.94531 6.72967 4.95946 6.73057ZM8.75 6.72922C8.74997 6.72922 8.74994 6.72921 8.7499 6.72921C8.38171 6.72921 8.08324 7.02769 8.08324 7.39588C8.08324 7.73411 8.33512 8.01351 8.66155 8.05674C8.33517 8.01347 8.08333 7.73409 8.08333 7.39588C8.08333 7.02769 8.38181 6.72922 8.75 6.72922ZM12.4984 8.05719C12.1703 8.01553 11.9166 7.73534 11.9166 7.39588C11.9166 7.02769 12.215 6.72921 12.5832 6.72921C12.5833 6.72921 12.5833 6.72922 12.5833 6.72922C12.2151 6.72922 11.9167 7.02769 11.9167 7.39588C11.9167 7.73531 12.1703 8.01549 12.4984 8.05719ZM4.91657 8.66254C5.61613 8.66254 6.18324 8.09544 6.18324 7.39588C6.18324 6.69632 5.61613 6.12921 4.91657 6.12921C4.21701 6.12921 3.6499 6.69632 3.6499 7.39588C3.6499 8.09544 4.21701 8.66254 4.91657 8.66254ZM8.7499 8.66254C9.44946 8.66254 10.0166 8.09544 10.0166 7.39588C10.0166 6.69632 9.44946 6.12921 8.7499 6.12921C8.05034 6.12921 7.48324 6.69632 7.48324 7.39588C7.48324 8.09544 8.05034 8.66254 8.7499 8.66254ZM12.5832 8.66254C13.2828 8.66254 13.8499 8.09544 13.8499 7.39588C13.8499 6.69632 13.2828 6.12921 12.5832 6.12921C11.8837 6.12921 11.3166 6.69632 11.3166 7.39588C11.3166 8.09544 11.8837 8.66254 12.5832 8.66254Z" fill="#576081"/>
</svg>
