<svg width="20" height="20" viewBox="0 0 20 20" fill="none" xmlns="http://www.w3.org/2000/svg">
<path d="M10 -0.000244141C15.5215 -0.000244141 20 4.4783 20 9.99975C20 15.5212 15.5215 19.9998 10 19.9998C4.47854 19.9998 0 15.5239 0 9.99975C0 4.47558 4.47583 -0.000244141 10 -0.000244141Z" fill="#53AE94"/>
<path d="M11.2357 8.66627V7.17795H14.6388V4.91016H5.37208V7.17795H8.77513V8.66355C6.01032 8.7912 3.92993 9.3371 3.92993 9.99435C3.92993 10.6516 6.01032 11.1975 8.77513 11.3251V16.0916H11.2357V11.3279C13.9951 11.2002 16.0701 10.6543 16.0701 9.99707C16.0701 9.34253 13.9951 8.79663 11.2357 8.66627ZM11.2357 10.9232C11.1651 10.9259 10.8093 10.9476 10.0163 10.9476C9.38077 10.9476 8.93536 10.9286 8.77784 10.9205V10.9232C6.33623 10.8146 4.51114 10.3909 4.51114 9.88028C4.51114 9.36969 6.33352 8.94601 8.77784 8.83737V10.4995C8.93808 10.5104 9.39435 10.5375 10.0272 10.5375C10.7849 10.5375 11.1678 10.5049 11.2385 10.4995V8.83737C13.6774 8.94601 15.497 9.37241 15.497 9.88028C15.4943 10.3882 13.6719 10.8146 11.2357 10.9232Z" fill="white"/>
</svg>
