<svg width="52" height="64" viewBox="0 0 52 64" fill="none" xmlns="http://www.w3.org/2000/svg" preserveAspectRatio="none">
<path fill-rule="evenodd" clip-rule="evenodd" d="M8 0C3.58172 0 0 3.58172 0 8V12V52V56C0 60.4183 3.58172 64 8 64H12H40H44C48.4183 64 52 60.4183 52 56V52V12V8C52 3.58172 48.4183 0 44 0H40H12H8ZM40 62V60C40 55.5817 43.5817 52 48 52V12C43.5817 12 40 8.41828 40 4V2H12V4C12 8.41828 8.41828 12 4 12V52C8.41828 52 12 55.5817 12 60V62H40Z" fill="#728DCA" fill-opacity="0.12"/>
</svg>
