<svg width="24" height="24" viewBox="0 0 24 24" fill="none" xmlns="http://www.w3.org/2000/svg">
<path d="M11.4277 1.68057C11.7066 1.28474 12.2934 1.28474 12.5723 1.68057L13.3441 2.77618C13.8171 3.44765 14.7025 3.68491 15.4479 3.3399L16.6641 2.77698C17.1035 2.5736 17.6117 2.86703 17.6553 3.34924L17.7759 4.68396C17.8498 5.50199 18.498 6.15019 19.316 6.2241L20.6508 6.34469C21.133 6.38826 21.4264 6.89648 21.223 7.33588L20.6601 8.55208C20.3151 9.29747 20.5524 10.1829 21.2238 10.6559L22.3194 11.4277C22.7153 11.7066 22.7153 12.2934 22.3194 12.5723L21.2238 13.3441C20.5523 13.8171 20.3151 14.7025 20.6601 15.4479L21.223 16.6641C21.4264 17.1035 21.133 17.6117 20.6508 17.6553L19.316 17.7759C18.498 17.8498 17.8498 18.498 17.7759 19.316L17.6553 20.6508C17.6117 21.133 17.1035 21.4264 16.6641 21.223L15.4479 20.6601C14.7025 20.3151 13.8171 20.5524 13.3441 21.2238L12.5723 22.3194C12.2934 22.7153 11.7066 22.7153 11.4277 22.3194L10.6559 21.2238C10.1829 20.5523 9.29747 20.3151 8.55208 20.6601L7.33588 21.223C6.89648 21.4264 6.38826 21.133 6.34469 20.6508L6.2241 19.316C6.15019 18.498 5.50199 17.8498 4.68396 17.7759L3.34924 17.6553C2.86702 17.6117 2.5736 17.1035 2.77698 16.6641L3.3399 15.4479C3.68491 14.7025 3.44765 13.8171 2.77618 13.3441L1.68057 12.5723C1.28474 12.2934 1.28474 11.7066 1.68057 11.4277L2.77618 10.6559C3.44765 10.1829 3.68491 9.29746 3.3399 8.55208L2.77698 7.33588C2.5736 6.89648 2.86702 6.38826 3.34924 6.34469L4.68396 6.2241C5.50199 6.15019 6.15019 5.50199 6.2241 4.68396L6.34469 3.34924C6.38826 2.86702 6.89648 2.5736 7.33588 2.77698L8.55208 3.3399C9.29747 3.68491 10.1829 3.44765 10.6559 2.77618L11.4277 1.68057Z" fill="#171E2F" stroke="#1C2436"/>
</svg>
