<svg width="24" height="24" viewBox="0 0 24 24" fill="none" xmlns="http://www.w3.org/2000/svg">
<path d="M11.019 1.39262C11.497 0.714055 12.503 0.714056 12.981 1.39262L13.7528 2.48823C14.0867 2.96221 14.7117 3.12968 15.2379 2.88615L16.4541 2.32322C17.2073 1.97458 18.0786 2.47759 18.1533 3.30425L18.2739 4.63897C18.326 5.2164 18.7836 5.67395 19.361 5.72612L20.6958 5.84672C21.5224 5.9214 22.0254 6.79265 21.6768 7.5459L21.1138 8.7621C20.8703 9.28826 21.0378 9.91328 21.5118 10.2472L22.6074 11.019C23.2859 11.497 23.2859 12.503 22.6074 12.981L21.5118 13.7528C21.0378 14.0867 20.8703 14.7117 21.1138 15.2379L21.6768 16.4541C22.0254 17.2073 21.5224 18.0786 20.6957 18.1533L19.361 18.2739C18.7836 18.326 18.326 18.7836 18.2739 19.361L18.1533 20.6958C18.0786 21.5224 17.2073 22.0254 16.4541 21.6768L15.2379 21.1138C14.7117 20.8703 14.0867 21.0378 13.7528 21.5118L12.981 22.6074C12.503 23.2859 11.497 23.2859 11.019 22.6074L10.2472 21.5118C9.91328 21.0378 9.28826 20.8703 8.7621 21.1138L7.5459 21.6768C6.79265 22.0254 5.9214 21.5224 5.84672 20.6957L5.72612 19.361C5.67395 18.7836 5.2164 18.326 4.63897 18.2739L3.30425 18.1533C2.47759 18.0786 1.97458 17.2073 2.32322 16.4541L2.88615 15.2379C3.12968 14.7117 2.96221 14.0867 2.48822 13.7528L1.39262 12.981C0.714055 12.503 0.714056 11.497 1.39262 11.019L2.48823 10.2472C2.96221 9.91328 3.12968 9.28825 2.88615 8.7621L2.32322 7.5459C1.97458 6.79265 2.47759 5.9214 3.30425 5.84672L4.63897 5.72612C5.2164 5.67395 5.67395 5.2164 5.72612 4.63897L5.84672 3.30425C5.9214 2.47759 6.79265 1.97458 7.5459 2.32322L8.7621 2.88615C9.28826 3.12968 9.91328 2.96221 10.2472 2.48822L11.019 1.39262Z" fill="#6D61FF"/>
<path d="M14.9903 8.68137C15.1886 8.79324 15.3346 8.9798 15.3963 9.20004C15.4579 9.42028 15.4302 9.65617 15.3192 9.85584L12.5005 14.9241C12.4291 15.0524 12.3301 15.1631 12.2107 15.2479C12.0914 15.3327 11.9547 15.3896 11.8106 15.4144C11.6666 15.4391 11.5189 15.4311 11.3783 15.391C11.2378 15.3508 11.1079 15.2795 10.9983 15.1822L8.8619 13.2875C8.6913 13.1362 8.58738 12.9229 8.57301 12.6944C8.55863 12.466 8.63498 12.2412 8.78525 12.0694C8.93552 11.8976 9.14741 11.793 9.3743 11.7785C9.60119 11.764 9.8245 11.8409 9.9951 11.9922L11.3355 13.181C11.3492 13.1931 11.3654 13.202 11.3829 13.207C11.4005 13.212 11.4189 13.213 11.4369 13.21C11.4549 13.2069 11.4719 13.1998 11.4868 13.1893C11.5018 13.1787 11.5141 13.1649 11.5231 13.1489L13.8235 9.01253C13.9346 8.81284 14.12 8.66577 14.3388 8.60367C14.5576 8.54156 14.7919 8.56951 14.9903 8.68137Z" fill="#F5F8FF"/>
</svg>
