<svg width="20" height="20" viewBox="0 0 20 20" fill="none" xmlns="http://www.w3.org/2000/svg">
<path d="M9.01898 1.39262C9.49699 0.714056 10.503 0.714056 10.981 1.39262L11.3646 1.93711C11.6985 2.4111 12.3235 2.57857 12.8497 2.33504L13.4541 2.05527C14.2073 1.70663 15.0786 2.20964 15.1533 3.0363L15.2132 3.69963C15.2654 4.27706 15.7229 4.73461 16.3004 4.78678L16.9637 4.84672C17.7904 4.9214 18.2934 5.79265 17.9447 6.5459L17.665 7.15033C17.4214 7.67648 17.5889 8.30151 18.0629 8.63541L18.6074 9.01898C19.2859 9.49699 19.2859 10.503 18.6074 10.981L18.0629 11.3646C17.5889 11.6985 17.4214 12.3235 17.665 12.8497L17.9447 13.4541C18.2934 14.2073 17.7904 15.0786 16.9637 15.1533L16.3004 15.2132C15.7229 15.2654 15.2654 15.7229 15.2132 16.3004L15.1533 16.9637C15.0786 17.7904 14.2073 18.2934 13.4541 17.9447L12.8497 17.665C12.3235 17.4214 11.6985 17.5889 11.3646 18.0629L10.981 18.6074C10.503 19.2859 9.49699 19.2859 9.01898 18.6074L8.63541 18.0629C8.30151 17.5889 7.67648 17.4214 7.15033 17.665L6.5459 17.9447C5.79265 18.2934 4.9214 17.7904 4.84672 16.9637L4.78678 16.3004C4.73461 15.7229 4.27706 15.2654 3.69963 15.2132L3.0363 15.1533C2.20964 15.0786 1.70663 14.2073 2.05527 13.4541L2.33504 12.8497C2.57857 12.3235 2.4111 11.6985 1.93711 11.3646L1.39262 10.981C0.714056 10.503 0.714056 9.49699 1.39262 9.01898L1.93711 8.63541C2.4111 8.30151 2.57857 7.67648 2.33504 7.15033L2.05527 6.5459C1.70663 5.79265 2.20964 4.9214 3.0363 4.84672L3.69963 4.78678C4.27706 4.73461 4.73461 4.27706 4.78678 3.69963L4.84672 3.0363C4.9214 2.20964 5.79265 1.70663 6.5459 2.05527L7.15033 2.33504C7.67648 2.57857 8.30151 2.4111 8.63541 1.93711L9.01898 1.39262Z" fill="#FF6161"/>
<path fill-rule="evenodd" clip-rule="evenodd" d="M7.36253 11.6487C7.08912 11.922 7.08912 12.3652 7.36253 12.6385C7.63595 12.9118 8.07924 12.9118 8.35265 12.6385L10.0017 10.99L11.6508 12.6386C11.9243 12.9119 12.3675 12.9119 12.641 12.6386C12.9144 12.3653 12.9144 11.9221 12.641 11.6488L10.9918 10.0002L12.641 8.35165C12.9144 8.07833 12.9144 7.63519 12.641 7.36187C12.3675 7.08855 11.9243 7.08855 11.6508 7.36187L10.0017 9.01045L8.35265 7.36196C8.07924 7.08864 7.63595 7.08864 7.36253 7.36196C7.08912 7.63528 7.08912 8.07842 7.36253 8.35174L9.01158 10.0002L7.36253 11.6487Z" fill="#F5F8FF"/>
</svg>
