<svg aria-hidden="true" xmlns="http://www.w3.org/2000/svg" xmlns:xlink="http://www.w3.org/1999/xlink"><symbol viewBox="0 0 24 24" id="chat" xmlns="http://www.w3.org/2000/svg">
<path d="M21.25 7.2979V11.722C21.25 13.2389 20.8943 14.288 20.292 14.9808C19.8282 15.5143 19.1605 15.9025 18.2331 16.1033V11.722C18.2331 9.8377 17.7495 8.28697 16.6542 7.21418C15.5618 6.14419 13.9875 5.67412 12.074 5.67412H4.88C5.08553 4.787 5.47811 4.1448 6.0185 3.69483C6.73191 3.10078 7.8125 2.75 9.36386 2.75H16.591C18.2798 2.75 19.41 3.16476 20.1215 3.86167C20.8302 4.55576 21.25 5.65398 21.25 7.2979Z" stroke-width="1.5"/>
<path d="M17.98 10.7759V14.7694C17.98 15.029 17.97 15.2786 17.94 15.5182C17.71 18.2138 16.12 19.5516 13.19 19.5516H12.79C12.54 19.5516 12.3 19.6714 12.15 19.8711L10.95 21.4685C10.42 22.1774 9.56 22.1774 9.03 21.4685L7.82999 19.8711C7.69999 19.7014 7.41 19.5516 7.19 19.5516H6.79001C3.60001 19.5516 2 18.7629 2 14.7694V10.7759C2 7.85064 3.35001 6.26322 6.04001 6.0336C6.28001 6.00364 6.53001 5.99365 6.79001 5.99365H13.19C16.38 5.99365 17.98 7.59107 17.98 10.7759Z" stroke-width="1.5" stroke-miterlimit="10" stroke-linecap="round" stroke-linejoin="round"/>
<path d="M13.4955 13.2316H13.5045" stroke-width="2" stroke-linecap="round" stroke-linejoin="round"/>
<path d="M9.9955 13.2316H10.0045" stroke-width="2" stroke-linecap="round" stroke-linejoin="round"/>
<path d="M6.4955 13.2316H6.5045" stroke-width="2" stroke-linecap="round" stroke-linejoin="round"/>
</symbol><symbol viewBox="0 0 24 24" id="chevron-down" xmlns="http://www.w3.org/2000/svg">
<path fill-rule="evenodd" clip-rule="evenodd" d="M5.29289 9.29338C4.90237 9.68391 4.90237 10.3171 5.29289 10.7076L11.2929 16.7076C11.6834 17.0981 12.3166 17.0981 12.7071 16.7076L18.7071 10.7076C19.0976 10.3171 19.0976 9.68391 18.7071 9.29338C18.3166 8.90286 17.6834 8.90286 17.2929 9.29338L12 14.5863L6.70711 9.29338C6.31658 8.90286 5.68342 8.90286 5.29289 9.29338Z"/>
</symbol><symbol viewBox="0 0 20 20" id="fullscreen" xmlns="http://www.w3.org/2000/svg">
<path d="M8.125 2.5H4.5C3.39543 2.5 2.5 3.39543 2.5 4.5V8.125M11.875 2.5H15.5C16.6046 2.5 17.5 3.39543 17.5 4.5V8.125M17.5 11.875V15.5C17.5 16.6046 16.6046 17.5 15.5 17.5H11.875M8.125 17.5H4.5C3.39543 17.5 2.5 16.6046 2.5 15.5V11.875" stroke-width="2.4"/>
</symbol><symbol viewBox="0 0 24 24" id="info" xmlns="http://www.w3.org/2000/svg">
<path d="M13.8392 17.525C13.8332 17.527 13.2802 17.711 12.8002 17.711C12.5352 17.711 12.4282 17.656 12.3942 17.632C12.2262 17.515 11.9142 17.296 12.4482 16.232L13.4482 14.238C14.0412 13.054 14.1292 11.909 13.6932 11.013C13.3372 10.28 12.6542 9.777 11.7732 9.597C11.4562 9.532 11.1342 9.5 10.8152 9.5C8.96623 9.5 7.72123 10.58 7.66923 10.626C7.49023 10.784 7.44823 11.046 7.56723 11.252C7.68723 11.458 7.93423 11.552 8.16223 11.474C8.16723 11.472 8.72123 11.287 9.20123 11.287C9.46423 11.287 9.57023 11.342 9.60323 11.365C9.77223 11.483 10.0852 11.705 9.55223 12.767L8.55223 14.762C7.95823 15.947 7.87123 17.092 8.30723 17.987C8.66323 18.72 9.34523 19.223 10.2282 19.403C10.5422 19.466 10.8642 19.5 11.1822 19.5C13.0322 19.5 14.2782 18.42 14.3302 18.374C14.5092 18.217 14.5512 17.954 14.4322 17.748C14.3122 17.543 14.0632 17.451 13.8392 17.525Z"/>
<path d="M13 8.50098C14.3807 8.50098 15.5 7.38169 15.5 6.00098C15.5 4.62026 14.3807 3.50098 13 3.50098C11.6193 3.50098 10.5 4.62026 10.5 6.00098C10.5 7.38169 11.6193 8.50098 13 8.50098Z"/>
</symbol><symbol viewBox="0 0 16 16" id="search" xmlns="http://www.w3.org/2000/svg">
<path d="M14.9843 13.7028L14.9843 13.7028C15.161 13.8795 15.25 14.1114 15.25 14.3437C15.25 14.5755 15.1611 14.8077 14.9845 14.9845C14.8077 15.1619 14.575 15.25 14.3437 15.25C14.1124 15.25 13.8797 15.1619 13.7029 14.9844L9.44177 10.7232C8.542 11.3674 7.44189 11.75 6.25 11.75C3.21262 11.75 0.75 9.28738 0.75 6.25C0.75 3.21263 3.21262 0.75 6.25 0.75C9.28737 0.75 11.75 3.21262 11.75 6.25C11.75 7.44191 11.3674 8.542 10.7233 9.44175L14.9843 13.7028ZM6.25 9.9375C8.28323 9.9375 9.9375 8.28323 9.9375 6.25C9.9375 4.21677 8.28323 2.5625 6.25 2.5625C4.21677 2.5625 2.5625 4.21677 2.5625 6.25C2.5625 8.28323 4.21677 9.9375 6.25 9.9375Z" stroke-width="0.5"/>
</symbol><symbol viewBox="0 0 20 20" id="star" xmlns="http://www.w3.org/2000/svg">
<path d="M9.45687 3.65702C9.67282 3.19697 10.3272 3.19697 10.5431 3.65703L12.1816 7.14741C12.2665 7.32836 12.436 7.45512 12.6336 7.48549L16.3466 8.05617C16.8292 8.13034 17.0259 8.71905 16.6848 9.06837L13.9616 11.8574C13.8285 11.9937 13.7681 12.1851 13.7988 12.3731L14.4361 16.2803C14.5167 16.7747 13.9919 17.1444 13.5535 16.902L10.2904 15.0975C10.1097 14.9976 9.89032 14.9976 9.70965 15.0975L6.44647 16.902C6.00813 17.1444 5.48331 16.7747 5.56394 16.2803L6.20123 12.3731C6.2319 12.1851 6.17145 11.9937 6.03836 11.8574L3.31522 9.06837C2.97415 8.71905 3.17082 8.13034 3.65337 8.05617L7.36641 7.48549C7.56398 7.45512 7.73345 7.32836 7.8184 7.14741L9.45687 3.65702Z" stroke-linecap="round" stroke-linejoin="round"/>
</symbol><symbol viewBox="0 0 24 24" id="title-prepend" xmlns="http://www.w3.org/2000/svg">
<path d="M15.001 7.29V3C15.001 2.45 14.551 2 14.001 2H10.001C9.45098 2 9.00098 2.45 9.00098 3V7.29C9.00098 7.42 9.05098 7.55 9.15098 7.64L11.651 10.14C11.851 10.34 12.161 10.34 12.361 10.14L14.861 7.64C14.951 7.55 15.001 7.43 15.001 7.29ZM7.29098 9H3.00098C2.45098 9 2.00098 9.45 2.00098 10V14C2.00098 14.55 2.45098 15 3.00098 15H7.29098C7.42098 15 7.55098 14.95 7.64098 14.85L10.141 12.35C10.341 12.15 10.341 11.84 10.141 11.64L7.64098 9.14C7.595 9.09439 7.54032 9.0585 7.4802 9.03444C7.42007 9.01039 7.35572 8.99868 7.29098 9ZM9.00098 16.71V21C9.00098 21.55 9.45098 22 10.001 22H14.001C14.551 22 15.001 21.55 15.001 21V16.71C15.0018 16.6444 14.9888 16.5794 14.963 16.5191C14.9372 16.4588 14.899 16.4046 14.851 16.36L12.351 13.86C12.151 13.66 11.841 13.66 11.641 13.86L9.14098 16.36C9.05098 16.45 9.00098 16.57 9.00098 16.71ZM16.351 9.15L13.851 11.65C13.651 11.85 13.651 12.16 13.851 12.36L16.351 14.86C16.441 14.95 16.571 15.01 16.701 15.01H21.001C21.551 15.01 22.001 14.56 22.001 14.01V10.01C22.001 9.46 21.551 9.01 21.001 9.01H16.711C16.6443 9.00493 16.5774 9.01488 16.5151 9.03911C16.4528 9.06334 16.3967 9.10123 16.351 9.15Z"/>
</symbol></svg>