<svg width="72" height="72" viewBox="0 0 72 72" fill="none" xmlns="http://www.w3.org/2000/svg">
<g filter="url(#filter0_d_509_5491)">
<mask id="path-1-inside-1_509_5491" fill="white">
<path d="M12 14C12 8.47715 16.4772 4 22 4H50C55.5229 4 60 8.47715 60 14V42C60 47.5229 55.5228 52 50 52H22C16.4772 52 12 47.5228 12 42V14Z"/>
</mask>
<path d="M12 14C12 8.47715 16.4772 4 22 4H50C55.5229 4 60 8.47715 60 14V42C60 47.5229 55.5228 52 50 52H22C16.4772 52 12 47.5228 12 42V14Z" fill="url(#paint0_radial_509_5491)"/>
<path d="M12 14C12 7.92487 16.9249 3 23 3H49C55.0751 3 60 7.92487 60 14C60 9.02944 55.5228 5 50 5H22C16.4772 5 12 9.02944 12 14ZM60 52H12H60ZM12 52V4V52ZM60 4V52V4Z" fill="white" fill-opacity="0.12" mask="url(#path-1-inside-1_509_5491)"/>
</g>
<path d="M36 17.8C30.6927 17.8 26.3 21.4634 26.3 26.32V29.12V29.1205V29.1209V29.1214V29.1219V29.1223V29.1228V29.1232V29.1237V29.1241V29.1246V29.125V29.1255V29.1259V29.1264V29.1268V29.1273V29.1277V29.1281V29.1286V29.129V29.1295V29.1299V29.1303V29.1307V29.1312V29.1316V29.132V29.1324V29.1329V29.1333V29.1337V29.1341V29.1345V29.1349V29.1353V29.1357V29.1362V29.1366V29.137V29.1374V29.1378V29.1382V29.1386V29.139V29.1393V29.1397V29.1401V29.1405V29.1409V29.1413V29.1417V29.1421V29.1424V29.1428V29.1432V29.1436V29.144V29.1443V29.1447V29.1451V29.1455V29.1458V29.1462V29.1466V29.1469V29.1473V29.1477V29.148V29.1484V29.1487V29.1491V29.1494V29.1498V29.1502V29.1505V29.1509V29.1512V29.1516V29.1519V29.1523V29.1526V29.1529V29.1533V29.1536V29.154V29.1543V29.1546V29.155V29.1553V29.1556V29.156V29.1563V29.1566V29.157V29.1573V29.1576V29.1579V29.1583V29.1586V29.1589V29.1592V29.1596V29.1599V29.1602V29.1605V29.1608V29.1611V29.1614V29.1618V29.1621V29.1624V29.1627V29.163V29.1633V29.1636V29.1639V29.1642V29.1645V29.1648V29.1651V29.1654V29.1657V29.166V29.1663V29.1666V29.1669V29.1672V29.1675V29.1678V29.1681V29.1684V29.1687V29.169V29.1692V29.1695V29.1698V29.1701V29.1704V29.1707V29.171V29.1712V29.1715V29.1718V29.1721V29.1724V29.1726V29.1729V29.1732V29.1735V29.1737V29.174V29.1743V29.1746V29.1748V29.1751V29.1754V29.1756V29.1759V29.1762V29.1764V29.1767V29.177V29.1772V29.1775V29.1778V29.178V29.1783V29.1786V29.1788V29.1791V29.1793V29.1796V29.1799V29.1801V29.1804V29.1806V29.1809V29.1812V29.1814V29.1817V29.1819V29.1822V29.1824V29.1827V29.1829V29.1832V29.1834V29.1837V29.1839V29.1842V29.1844V29.1847V29.1849V29.1852V29.1854V29.1857V29.1859V29.1862V29.1864V29.1867V29.1869V29.1872V29.1874V29.1876V29.1879V29.1881V29.1884V29.1886V29.1889V29.1891V29.1893V29.1896V29.1898V29.1901V29.1903V29.1905V29.1908V29.191V29.1913V29.1915V29.1917V29.192V29.1922V29.1925V29.1927V29.1929V29.1932V29.1934V29.1936V29.1939V29.1941V29.1944V29.1946V29.1948V29.1951V29.1953V29.1955V29.1958V29.196V29.1962V29.1965V29.1967V29.1969V29.1972V29.1974V29.1977V29.1979V29.1981V29.1984V29.1986V29.1988V29.1991V29.1993V29.1995V29.1998V29.2V29.2002V29.2005V29.2007V29.2009V29.2012V29.2014V29.2016V29.2019V29.2021V29.2023V29.2026V29.2028V29.203V29.2033V29.2035V29.2038V29.204V29.2042V29.2045V29.2047V29.2049V29.2052V29.2054V29.2056V29.2059V29.2061V29.2064V29.2066V29.2068V29.2071V29.2073V29.2075V29.2078V29.208V29.2083V29.2085V29.2087V29.209V29.2092V29.2095V29.2097V29.2099V29.2102V29.2104V29.2107V29.2109V29.2111V29.2114V29.2116V29.2119V29.2121V29.2124V29.2126V29.2128V29.2131V29.2133V29.2136V29.2138V29.2141V29.2143V29.2146V29.2148V29.2151V29.2153V29.2156V29.2158V29.2161V29.2163V29.2166V29.2168V29.2171V29.2173V29.2176V29.2178V29.2181V29.2183V29.2186V29.2188V29.2191V29.2194V29.2196V29.2199V29.2201V29.2204V29.2207V29.2209V29.2212V29.2214V29.2217V29.222V29.2222V29.2225V29.2228V29.223V29.2233V29.2236V29.2238V29.2241V29.2244V29.2246V29.2249V29.2252V29.2254V29.2257V29.226V29.2263V29.2265V29.2268V29.2271V29.2274V29.2276V29.2279V29.2282V29.2285V29.2288V29.229V29.2293V29.2296V29.2299V29.2302V29.2305V29.2308V29.231V29.2313V29.2316V29.2319V29.2322V29.2325V29.2328V29.2331V29.2334V29.2337V29.234V29.2343V29.2346V29.2349V29.2352V29.2355V29.2358V29.2361V29.2364V29.2367V29.237V29.2373V29.2376V29.2379V29.2382V29.2386V29.2389V29.2392V29.2395V29.2398V29.2401V29.2404V29.2408V29.2411V29.2414V29.2417V29.2421V29.2424V29.2427V29.243V29.2434V29.2437V29.244V29.2444V29.2447V29.245V29.2454V29.2457V29.246V29.2464V29.2467V29.2471V29.2474V29.2477V29.2481V29.2484V29.2488V29.2491V29.2495V29.2498V29.2502V29.2506V29.2509V29.2513V29.2516V29.252V29.2523V29.2527V29.2531V29.2534V29.2538V29.2542V29.2545V29.2549V29.2553V29.2557V29.256V29.2564V29.2568V29.2572V29.2576V29.2579V29.2583V29.2587V29.2591V29.2595V29.2599V29.2603V29.2607V29.261V29.2614V29.2618V29.2622V29.2626V29.263V29.2634V29.2638V29.2643V29.2647V29.2651V29.2655V29.2659V29.2663V29.2667V29.2671V29.2676V29.268V29.2684V29.2688V29.2693V29.2697V29.2701V29.2705V29.271V29.2714V29.2719V29.2723V29.2727V29.2732V29.2736V29.2741V29.2745V29.275V29.2754V29.2759V29.2763V29.2768V29.2772V29.2777V29.2781V29.2786V29.2791V29.2795V29.28V29.2805V29.2809V29.2814V29.2819V29.2824V29.2828V29.2833V29.2838V29.2843V29.2848V29.2853V29.2858V29.2862V29.2867V29.2872V29.2877V29.2882V29.2887V29.2892V29.2897V29.2902V29.2907V29.2913V29.2918V29.2923V29.2928V29.2933V29.2938V29.2943V29.2949V29.2954V29.2959V29.2964V29.2969V29.2975V29.298V29.2985V29.2991V29.2996V29.3001V29.3007V29.3012V29.3018V29.3023V29.3028V29.3034V29.3039V29.3045V29.305V29.3056V29.3061V29.3067V29.3072V29.3078V29.3084V29.3089V29.3095V29.31V29.3106V29.3112V29.3117V29.3123V29.3129V29.3134V29.314V29.3146V29.3152V29.3157V29.3163V29.3169V29.3175V29.3181V29.3186V29.3192V29.3198V29.3204V29.321V29.3216V29.3222V29.3227V29.3233V29.3239V29.3245V29.3251V29.3257V29.3263V29.3269V29.3275V29.3281V29.3287V29.3293V29.3299V29.3306V29.3312V29.3318V29.3324V29.333V29.3336V29.3342V29.3348V29.3355V29.3361V29.3367V29.3373V29.3379V29.3386V29.3392V29.3398V29.3404V29.3411V29.3417V29.3423V29.3429V29.3436V29.3442V29.3448V29.3455V29.3461V29.3467V29.3474V29.348V29.3486V29.3493V29.3499V29.3506V29.3512V29.3519V29.3525V29.3531V29.3538V29.3544V29.3551V29.3557V29.3564V29.357V29.3577V29.3583V29.359V29.3596V29.3603V29.361V29.3616V29.3623V29.3629V29.3636V29.3642V29.3649V29.3656V29.3662V29.3669V29.3676V29.3682V29.3689V29.3695V29.3702V29.3709V29.3715V29.3722V29.3729V29.3736V29.3742V29.3749V29.3756V29.3762V29.3769V29.3776V29.3783V29.3789V29.3796V29.3803V29.381V29.3816V29.3823V29.383V29.3837V29.3844V29.385V29.3857V29.3864V29.3871V29.3878V29.3885V29.3891V29.3898V29.3905V29.3912V29.3919V29.3926V29.3932V29.3939V29.3946V29.3953V29.396V29.3967V29.3974V29.3981V29.3988V29.3995V29.4001V29.4008V29.4015V29.4022V29.4029V29.4036V29.4043V29.405V29.4057V29.4064V29.4071V29.4078V29.4085V29.4092V29.4099V29.4106V29.4113V29.412V29.4126V29.4133V29.414V29.4147V29.4154V29.4161V29.4168V29.4175V29.4182V29.4189V29.4196V29.4203V29.421V29.4217V29.4224V29.4231V29.4238V29.4245V29.4252V29.4259V29.4266V29.4274V29.4281V29.4288V29.4295V29.4302V29.4309V29.4316V29.4323V29.433V29.4337V29.4344V29.4351V29.4358V29.4365V29.4372V29.4379V29.4386V29.4393V29.44V29.4407V29.4414V29.4421V29.4428V29.4435V29.4442V29.4449V29.4456V29.4463V29.447V29.4477V29.4484V29.4491V29.4498V29.4505V29.4512V29.4519V29.4526V29.4534V29.4541V29.4548V29.4555V29.4562V29.4569V29.4576V29.4583V29.459V29.4597V29.4604V29.4611V29.4618V29.4625V29.4632V29.4639V29.4646V29.4653V29.466V29.4667V29.4674V29.468V29.4687V29.4694V29.4701V29.4708V29.4715V29.4722V29.4729V29.4736V29.4743V29.475V29.4757V29.4764V29.4771V29.4778V29.4785V29.4792V29.4799V29.4805V29.4812V29.4819V29.4826V29.4833V29.484V29.4847V29.4854V29.4861V29.4868V29.4874V29.4881V29.4888V29.4895V29.4902V29.4909V29.4915V29.4922V29.4929V29.4936V29.4943V29.495V29.4956V29.4963V29.497V29.4977V29.4984V29.499V29.4997V29.5004V29.5011V29.5017V29.5024V29.5031V29.5038V29.5044V29.5051V29.5058V29.5064V29.5071V29.5078V29.5085V29.5091V29.5098V29.5105V29.5111V29.5118V29.5124V29.5131V29.5138V29.5144V29.5151V29.5158V29.5164V29.5171V29.5177V29.5184V29.519V29.5197V29.5204V29.521V29.5217V29.5223V29.523V29.5236V29.5243V29.5249V29.5256V29.5262V29.5269V29.5275V29.5281V29.5288V29.5294V29.5301V29.5307V29.5314V29.532V29.5326V29.5333V29.5339V29.5345V29.5352V29.5358V29.5364V29.5371V29.5377V29.5383V29.5389V29.5396V29.5402V29.5408V29.5414V29.5421V29.5427V29.5433V29.5439V29.5445V29.5452V29.5458V29.5464V29.547V29.5476V29.5482V29.5488V29.5494V29.5501V29.5507V29.5513V29.5519V29.5525V29.5531V29.5537V29.5543V29.5549V29.5555V29.5561V29.5567V29.5573V29.5578V29.5584V29.559V29.5596V29.5602V29.5608V29.5614V29.5619V29.5625V29.5631V29.5637V29.5643V29.5648V29.5654V29.566V29.5666V29.5671V29.5677V29.5683V29.5688V29.5694V29.57V29.5705V29.5711V29.5716V29.5722V29.5728V29.5733V29.5739V29.5744V29.575V29.5755V29.5761V29.5766V29.5772V29.5777V29.5782V29.5788V29.5793V29.5799V29.5804V29.5809V29.5815V29.582V29.5825V29.5831V29.5836V29.5841V29.5846V29.5851V29.5857V29.5862V29.5867V29.5872V29.5877V29.5882V29.5887V29.5893V29.5898V29.5903V29.5908V29.5913V29.5918V29.5923V29.5928V29.5933V29.5938V29.5942V29.5947V29.5952V29.5957V29.5962V29.5967V29.5972V29.5976V29.5981V29.5986V29.5991V29.5995V29.6C26.3 31.9485 28.1292 33.8 30.4583 33.8C30.7419 33.8 30.9935 33.7035 31.1745 33.5207C31.3552 33.338 31.45 33.0848 31.45 32.8V26.4C31.45 26.1152 31.3552 25.862 31.1745 25.6793C30.9935 25.4965 30.7419 25.4 30.4583 25.4C29.6834 25.4 28.9113 25.6398 28.2885 26.0191C28.4375 22.7997 31.8217 19.8 36 19.8C40.1441 19.8 43.5095 22.7517 43.7075 26.0166C43.0854 25.6388 42.3149 25.4 41.5417 25.4C41.2581 25.4 41.0065 25.4965 40.8255 25.6793C40.6448 25.862 40.55 26.1152 40.55 26.4V32.8C40.55 33.0848 40.6448 33.338 40.8255 33.5207C41.0065 33.7035 41.2581 33.8 41.5417 33.8C41.7306 33.8 41.8933 33.8223 42.0617 33.8454C42.1267 33.8543 42.1925 33.8633 42.2609 33.8712C42.339 33.8802 42.4185 33.8873 42.5 33.8895C41.7528 34.7237 40.6204 35.3534 39.365 35.5343C39.3514 35.2763 39.2579 35.0478 39.0911 34.8793C38.9102 34.6965 38.6586 34.6 38.375 34.6H36C35.7164 34.6 35.4648 34.6965 35.2839 34.8793C35.1031 35.062 35.0083 35.3152 35.0083 35.6V37.2C35.0083 37.4848 35.1031 37.738 35.2839 37.9207C35.4648 38.1035 35.7164 38.2 36 38.2C38.6483 38.2 41.0702 37.45 42.8345 36.0361C44.603 34.6186 45.7 32.5415 45.7 29.92V29.12V27.2V26.32C45.7 21.8691 41.3139 17.8 36 17.8Z" fill="white" stroke="white" stroke-width="0.4"/>
<defs>
<filter id="filter0_d_509_5491" x="0" y="0" width="72" height="72" filterUnits="userSpaceOnUse" color-interpolation-filters="sRGB">
<feFlood flood-opacity="0" result="BackgroundImageFix"/>
<feColorMatrix in="SourceAlpha" type="matrix" values="0 0 0 0 0 0 0 0 0 0 0 0 0 0 0 0 0 0 127 0" result="hardAlpha"/>
<feOffset dy="8"/>
<feGaussianBlur stdDeviation="6"/>
<feColorMatrix type="matrix" values="0 0 0 0 0 0 0 0 0 0 0 0 0 0 0 0 0 0 0.02 0"/>
<feBlend mode="normal" in2="BackgroundImageFix" result="effect1_dropShadow_509_5491"/>
<feBlend mode="normal" in="SourceGraphic" in2="effect1_dropShadow_509_5491" result="shape"/>
</filter>
<radialGradient id="paint0_radial_509_5491" cx="0" cy="0" r="1" gradientUnits="userSpaceOnUse" gradientTransform="translate(27.3333 -1.67273) rotate(84.9739) scale(74.8175 66.8579)">
<stop stop-color="#9186FF"/>
<stop offset="0.338694" stop-color="#6D61FF"/>
<stop offset="0.916248" stop-color="#574AFF"/>
</radialGradient>
</defs>
</svg>
