<svg width="24" height="24" viewBox="0 0 24 24" fill="none" xmlns="http://www.w3.org/2000/svg">
<path d="M17.611 17C16.8185 17.0008 16.0372 16.8144 15.3314 16.4563C14.6257 16.0982 14.0156 15.5785 13.5516 14.9401H10.5833C10.0764 15.6297 9.40017 16.1785 8.61907 16.5343C7.83797 16.89 6.97814 17.0408 6.12169 16.9722C5.26525 16.9036 4.44079 16.6179 3.7271 16.1425C3.0134 15.667 2.4343 15.0176 2.04511 14.2564C1.65591 13.4951 1.46962 12.6474 1.50403 11.7942C1.53844 10.9409 1.79239 10.1108 2.24165 9.3829C2.69091 8.65503 3.32046 8.05379 4.07015 7.63661C4.81985 7.21943 5.66465 7.00025 6.52387 7H17.611C18.92 7.03629 20.1632 7.57857 21.0762 8.51157C21.9892 9.44456 22.5 10.6947 22.5 11.9961C22.5 13.2975 21.9892 14.5477 21.0762 15.4806C20.1632 16.4136 18.92 16.9559 17.611 16.9922V17ZM10.2743 13.7742H13.8605C13.9597 13.7741 14.0573 13.799 14.1441 13.8466C14.231 13.8942 14.3043 13.9629 14.3572 14.0462C14.7159 14.6077 15.2157 15.0666 15.8071 15.3777C16.3986 15.6888 17.0615 15.8414 17.7304 15.8205C18.3993 15.7995 19.0512 15.6058 19.6218 15.2583C20.1924 14.9108 20.6621 14.4216 20.9845 13.8388C21.307 13.256 21.4712 12.5998 21.4608 11.9348C21.4504 11.2698 21.2659 10.619 20.9254 10.0464C20.5849 9.47386 20.1002 8.99933 19.519 8.66959C18.9378 8.33985 18.2802 8.16627 17.611 8.16595H6.52387C5.85336 8.16504 5.1942 8.3379 4.61144 8.66748C4.02868 8.99705 3.54248 9.47194 3.2008 10.0453C2.85912 10.6186 2.67377 11.2706 2.66307 11.9369C2.65236 12.6031 2.81668 13.2607 3.13977 13.8446C3.46285 14.4284 3.93356 14.9185 4.50544 15.2664C5.07731 15.6143 5.73058 15.808 6.40078 15.8284C7.07098 15.8487 7.73493 15.6951 8.32712 15.3825C8.91931 15.07 9.41927 14.6094 9.77765 14.0462C9.83134 13.9636 9.90482 13.8955 9.9915 13.848C10.0782 13.8005 10.1754 13.7752 10.2743 13.7742Z" fill="#576081"/>
<path d="M6.5 11C7.05228 11 7.5 10.7761 7.5 10.5C7.5 10.2239 7.05228 10 6.5 10C5.94772 10 5.5 10.2239 5.5 10.5C5.5 10.7761 5.94772 11 6.5 11Z" fill="#576081"/>
<path d="M6.5 14C7.05228 14 7.5 13.7761 7.5 13.5C7.5 13.2239 7.05228 13 6.5 13C5.94772 13 5.5 13.2239 5.5 13.5C5.5 13.7761 5.94772 14 6.5 14Z" fill="#576081"/>
<path d="M4.99999 13C5.27613 13 5.5 12.5523 5.5 12C5.5 11.4477 5.27613 11 4.99999 11C4.72385 11 4.5 11.4477 4.5 12C4.5 12.5523 4.72385 13 4.99999 13Z" fill="#576081"/>
<path d="M8 13C8.27614 13 8.5 12.5523 8.5 12C8.5 11.4477 8.27614 11 8 11C7.72386 11 7.5 11.4477 7.5 12C7.5 12.5523 7.72386 13 8 13Z" fill="#576081"/>
<path d="M19.2296 11.4209H18.363C18.288 11.4209 18.216 11.3914 18.1626 11.3388C18.1092 11.2861 18.0787 11.2146 18.0778 11.1397V10.2849C18.0778 10.21 18.0482 10.1381 17.9955 10.0847C17.9429 10.0314 17.8713 10.001 17.7963 10H17.2037C17.1287 10.001 17.0571 10.0314 17.0044 10.0847C16.9517 10.1381 16.9222 10.21 16.9222 10.2849V11.1397C16.9212 11.2146 16.8908 11.2861 16.8374 11.3388C16.784 11.3914 16.712 11.4209 16.637 11.4209H15.7815C15.7068 11.4209 15.6352 11.4505 15.5824 11.5033C15.5297 11.556 15.5 11.6275 15.5 11.7021V12.2979C15.5 12.3725 15.5297 12.444 15.5824 12.4967C15.6352 12.5495 15.7068 12.5791 15.7815 12.5791H16.637C16.712 12.5791 16.784 12.6086 16.8374 12.6612C16.8908 12.7139 16.9212 12.7854 16.9222 12.8603V13.7188C16.9222 13.7934 16.9519 13.8649 17.0047 13.9176C17.0574 13.9704 17.129 14 17.2037 14H17.7963C17.8709 14 17.9425 13.9704 17.9953 13.9176C18.0481 13.8649 18.0778 13.7934 18.0778 13.7188V12.8603C18.0778 12.7847 18.1078 12.7123 18.1613 12.6588C18.2148 12.6054 18.2873 12.5754 18.363 12.5754H19.2185C19.2932 12.5754 19.3648 12.5458 19.4176 12.493C19.4703 12.4403 19.5 12.3688 19.5 12.2942V11.6984C19.4991 11.6264 19.4706 11.5574 19.4202 11.5058C19.3699 11.4541 19.3017 11.4237 19.2296 11.4209Z" fill="#576081"/>
</svg>
