<svg width="14" height="15" viewBox="0 0 14 15" fill="none" xmlns="http://www.w3.org/2000/svg">
    <path d="M12.2328 3.06049C13.1668 4.15754 13.7242 5.50321 13.8395 6.93931H11.9283C8.90179 6.93931 6.43931 9.40141 6.43931 12.4283V14.3395C5.00318 14.2239 3.65752 13.6668 2.56049 12.7328L12.2328 3.06049Z" fill="#576081" stroke="#151B2B" stroke-width="0.3"></path>
    <path d="M7.56113 12.4283C7.56113 10.0203 9.52033 8.06113 11.9283 8.06113H13.8396C13.7092 9.68245 13.0158 11.1892 11.8525 12.3525C10.6892 13.5159 9.18277 14.2092 7.56113 14.3396V12.4283Z" fill="#576081" stroke="#151B2B" stroke-width="0.3"></path>
    <path d="M0.160668 8.06089H2.07193C5.09841 8.06089 7.56089 5.59879 7.56089 2.57193V0.660668C8.99699 0.775991 10.3427 1.33338 11.4397 2.26738L1.76738 11.9397C0.833381 10.8427 0.275991 9.49699 0.160668 8.06089Z" fill="#576081" stroke="#151B2B" stroke-width="0.3"></path>
    <path d="M6.43911 2.57193C6.43911 4.97992 4.47992 6.93911 2.07193 6.93911H0.160685C0.291051 5.31748 0.984394 3.81107 2.14773 2.64773C3.31107 1.48439 4.81748 0.791051 6.43911 0.660685V2.57193Z" fill="#576081" stroke="#151B2B" stroke-width="0.3"></path>
</svg>