<svg width="24" height="24" viewBox="0 0 24 24" fill="none" xmlns="http://www.w3.org/2000/svg">
<path d="M10.5033 9.79974C10.4822 9.63122 10.4245 9.46878 10.3338 9.32281C10.2431 9.17684 10.1215 9.05057 9.9767 8.95209C9.81289 8.83966 9.61795 8.77591 9.41633 8.76885C9.21472 8.76178 9.0154 8.81172 8.8434 8.9124C8.62107 9.04222 8.42479 9.2089 8.26381 9.40458C8.10281 9.20892 7.90654 9.04225 7.68422 8.9124C7.51221 8.81172 7.31289 8.76179 7.11127 8.76885C6.90964 8.77591 6.71469 8.83966 6.55087 8.95209C6.4061 9.05058 6.28448 9.17685 6.1938 9.32282C6.10311 9.46879 6.04536 9.63123 6.02424 9.79974C6.02076 9.82423 6.0178 9.8484 6.01539 9.87227C5.99112 10.1461 6.0432 10.4212 6.16631 10.6696C6.28943 10.9181 6.47921 11.131 6.71638 11.2867C7.22575 11.6282 7.77722 12.0743 8.06437 12.3131C8.11961 12.3591 8.19046 12.3845 8.26378 12.3845C8.33711 12.3845 8.40796 12.3591 8.4632 12.3131C8.75035 12.0743 9.30182 11.6282 9.81119 11.2867C10.0484 11.131 10.2382 10.9181 10.3613 10.6697C10.4844 10.4212 10.5365 10.1461 10.5122 9.87227C10.5098 9.8484 10.5069 9.82423 10.5033 9.79974V9.79974Z" fill="#57627D"/>
<path d="M13.5342 17.2938V3.95537C13.5338 3.70209 13.4283 3.45927 13.2407 3.28017C13.0531 3.10108 12.7988 3.00032 12.5335 3H4.00068C3.73539 3.00033 3.48107 3.1011 3.29348 3.28019C3.10589 3.45929 3.00035 3.70209 3 3.95537V17.2938C3.00035 17.5471 3.10589 17.7899 3.29348 17.969C3.48107 18.148 3.73539 18.2488 4.00068 18.2491H12.5333C12.7986 18.2489 13.053 18.1481 13.2406 17.969C13.4283 17.7899 13.5338 17.5471 13.5342 17.2938V17.2938ZM3.40234 17.2938V3.95537C3.40257 3.80399 3.46566 3.65888 3.57778 3.55183C3.68989 3.44479 3.84189 3.38456 4.00045 3.38434H12.5333C12.6919 3.38456 12.8439 3.44479 12.956 3.55183C13.0681 3.65888 13.1312 3.80399 13.1314 3.95537V17.2938C13.1312 17.4452 13.0681 17.5903 12.956 17.6973C12.8439 17.8044 12.6919 17.8646 12.5333 17.8648H4.00068C3.84209 17.8646 3.69004 17.8044 3.57787 17.6974C3.46571 17.5903 3.40259 17.4452 3.40234 17.2938V17.2938Z" fill="#57627D"/>
<path d="M20.534 8.85842L14.1618 5.37357C14.1445 5.36407 14.1248 5.35909 14.1048 5.35913C14.0848 5.35917 14.0652 5.36423 14.0479 5.3738C14.0306 5.38337 14.0162 5.39712 14.0062 5.41366C13.9962 5.43021 13.991 5.44897 13.991 5.46806V5.55871C13.991 5.60867 14.0048 5.65773 14.0311 5.70094C14.0573 5.74415 14.0951 5.77998 14.1405 5.8048L20.3344 9.19203C20.4548 9.25786 20.5429 9.36666 20.5793 9.4945C20.6157 9.62234 20.5975 9.75875 20.5286 9.87375L14.24 20.3645C14.1712 20.4793 14.0574 20.5634 13.9238 20.5982C13.7901 20.6331 13.6473 20.6159 13.5269 20.5505L10.2948 18.7637C10.2067 18.715 10.1066 18.6893 10.0047 18.6893H9.77171C9.74719 18.6894 9.72336 18.6971 9.7039 18.7113C9.68445 18.7256 9.67045 18.7455 9.66409 18.7682C9.65773 18.7908 9.65936 18.8147 9.66872 18.8364C9.67808 18.858 9.69465 18.8761 9.71587 18.8878L13.3262 20.8835C13.5393 20.9998 13.7921 21.0306 14.029 20.9691C14.2659 20.9075 14.4675 20.7588 14.5896 20.5554L20.8776 10.0646C20.9995 9.86114 21.0318 9.61977 20.9674 9.39358C20.903 9.16738 20.7471 8.97489 20.534 8.85842V8.85842Z" fill="#57627D"/>
<path d="M11.8947 18.6891C11.8617 18.6892 11.8296 18.6996 11.8034 18.719C11.7773 18.7383 11.7586 18.7653 11.7504 18.7958C11.7421 18.8264 11.7447 18.8587 11.7577 18.8877C11.7707 18.9166 11.7935 18.9407 11.8223 18.956L13.3095 19.7498C13.4331 19.8172 13.5797 19.8351 13.717 19.7994C13.8544 19.7637 13.9713 19.6774 14.0421 19.5595L19.7152 10.0957C19.7503 10.0373 19.7729 9.97284 19.7818 9.90608C19.7907 9.83931 19.7858 9.77152 19.7673 9.70657C19.7488 9.64162 19.717 9.5808 19.6739 9.52756C19.6307 9.47432 19.577 9.42972 19.5158 9.3963L14.4213 6.61337C14.3784 6.59026 14.3299 6.57828 14.2807 6.57862C14.2315 6.57896 14.1832 6.59161 14.1407 6.61531C14.0982 6.63901 14.0629 6.67293 14.0384 6.7137C14.0138 6.75446 14.0009 6.80065 14.0009 6.84766L13.9942 17.2943C13.9942 17.6642 13.8403 18.0189 13.5664 18.2805C13.2924 18.542 12.9209 18.6889 12.5335 18.6889L11.8947 18.6891Z" fill="#57627D"/>
<path d="M5.79906 5.75122C5.45176 5.12188 5.25082 4.40508 5.20164 4.21758C5.20261 4.17338 5.18759 4.13021 5.1591 4.09535C5.13062 4.0605 5.09041 4.03608 5.04527 4.02623C5.01346 4.01909 4.98035 4.01909 4.94854 4.02623C4.90339 4.03608 4.86318 4.06051 4.8347 4.09537C4.80621 4.13024 4.79119 4.17342 4.79217 4.21763C4.743 4.40514 4.54217 5.12188 4.19475 5.75122C4.14204 5.75292 4.09215 5.77433 4.05582 5.81084C4.0195 5.84734 3.99966 5.89602 4.00058 5.94636C4.0015 5.9967 4.02311 6.04468 4.06075 6.07995C4.09838 6.11523 4.14903 6.13496 4.20177 6.13491H4.49202C4.53319 6.13506 4.57341 6.12311 4.60722 6.10068C4.64103 6.07826 4.66679 6.04643 4.68099 6.00954C4.69519 5.97265 4.69716 5.93248 4.68661 5.89448C4.67607 5.85649 4.65353 5.82251 4.62205 5.79718C4.65104 5.74095 4.67888 5.68464 4.70556 5.62823H5.28825C5.31509 5.68449 5.34293 5.74081 5.37176 5.79718C5.34028 5.82252 5.31774 5.8565 5.3072 5.8945C5.29666 5.9325 5.29862 5.97267 5.31283 6.00957C5.32705 6.04646 5.35281 6.07828 5.38663 6.10071C5.42045 6.12313 5.46067 6.13507 5.50185 6.13491H5.7921C5.84484 6.13495 5.89547 6.1152 5.9331 6.07992C5.97072 6.04465 5.99232 5.99667 5.99323 5.94633C5.99415 5.89599 5.9743 5.84733 5.93798 5.81083C5.90166 5.77433 5.85177 5.75292 5.79906 5.75122V5.75122ZM4.82806 5.30423C4.89132 5.14703 4.94751 4.99576 4.99691 4.85487C5.04637 4.99576 5.10267 5.14703 5.16576 5.30423H4.82806Z" fill="#57627D"/>
<path d="M12.3305 15.1143H12.0402C11.9991 15.1141 11.9588 15.1261 11.925 15.1485C11.8912 15.1709 11.8655 15.2027 11.8513 15.2396C11.8371 15.2765 11.8351 15.3167 11.8456 15.3547C11.8562 15.3927 11.8787 15.4267 11.9102 15.452C11.8812 15.5082 11.8534 15.5645 11.8266 15.6209H11.244C11.2172 15.5646 11.1893 15.5083 11.1604 15.452C11.1919 15.4267 11.2145 15.3927 11.225 15.3547C11.2355 15.3167 11.2336 15.2765 11.2194 15.2396C11.2052 15.2027 11.1794 15.1709 11.1456 15.1485C11.1118 15.1261 11.0716 15.1141 11.0304 15.1143H10.7401C10.6874 15.1142 10.6367 15.134 10.5991 15.1692C10.5615 15.2045 10.5399 15.2525 10.539 15.3028C10.5381 15.3532 10.5579 15.4018 10.5942 15.4383C10.6305 15.4748 10.6804 15.4962 10.7331 15.4979C11.0805 16.1273 11.2814 16.844 11.3306 17.0315C11.3296 17.0757 11.3446 17.1189 11.3731 17.1538C11.4016 17.1886 11.4418 17.213 11.4869 17.2229C11.5187 17.23 11.5519 17.23 11.5837 17.2229C11.6288 17.213 11.669 17.1886 11.6975 17.1538C11.726 17.1189 11.741 17.0757 11.74 17.0315C11.7892 16.844 11.99 16.1273 12.3375 15.4979C12.3902 15.4962 12.4401 15.4748 12.4764 15.4383C12.5127 15.4018 12.5325 15.3532 12.5316 15.3028C12.5307 15.2525 12.5091 15.2045 12.4715 15.1692C12.4338 15.1339 12.3832 15.1142 12.3304 15.1143H12.3305ZM11.5354 16.3943C11.4859 16.2534 11.4296 16.1021 11.3665 15.9449H11.7042C11.6411 16.1021 11.5848 16.2534 11.5354 16.3943V16.3943Z" fill="#57627D"/>
</svg>
