<svg width="10" height="12" viewBox="0 0 10 12" fill="none" xmlns="http://www.w3.org/2000/svg">
    <path d="M8.58783 -0.00012207H1.91467C1.67904 -0.00012207 1.48779 0.190816 1.48779 0.426755V1.26207H6.58345C7.10439 1.26207 7.52658 1.68426 7.52658 2.2052V10.7377H8.58752C8.82314 10.7377 9.0144 10.5468 9.0144 10.3109V0.426755C9.01471 0.190816 8.82377 -0.00012207 8.58783 -0.00012207Z" fill="white"></path>
    <path d="M6.43722 1.96497H0.386565C0.173126 1.96497 0 2.13778 0 2.35153V11.6135C0 11.8269 0.173126 12 0.386565 12H6.43722C6.65097 12 6.8241 11.8269 6.8241 11.6135V2.35153C6.8241 2.13778 6.65097 1.96497 6.43722 1.96497ZM0.869067 3.10091C0.869067 2.90685 1.02626 2.74966 1.22032 2.74966C1.41438 2.74966 1.57157 2.90716 1.57157 3.10091C1.57157 3.29497 1.41438 3.45216 1.22032 3.45216C1.02626 3.45216 0.869067 3.29497 0.869067 3.10091ZM4.68846 8.39625C4.4019 8.6525 4.11721 8.84657 3.92908 8.96407C3.57814 9.18313 3.49752 9.195 3.46346 9.20032C3.44627 9.20282 3.42877 9.20438 3.41158 9.20438C3.35627 9.20438 3.30127 9.19125 3.25158 9.16594C3.15908 9.11875 0.989693 7.98844 0.989693 6.26499C0.989693 6.26093 0.989693 6.25655 0.990005 6.25249C0.99313 5.83874 1.15469 5.4428 1.43407 5.16405C1.69532 4.90373 2.0422 4.76123 2.41126 4.76154C2.79033 4.76154 3.14845 4.91623 3.41064 5.17373C3.67283 4.91592 4.03127 4.76154 4.41096 4.76154C5.19596 4.76154 5.83472 5.39967 5.83472 6.18405C5.83472 6.9603 5.43847 7.72531 4.68846 8.39625ZM5.69378 11.2538C5.49972 11.2538 5.34253 11.0966 5.34253 10.9025C5.34253 10.7085 5.49972 10.5513 5.69378 10.5513C5.88784 10.5513 6.04503 10.7088 6.04503 10.9025C6.04503 11.0966 5.88784 11.2538 5.69378 11.2538Z" fill="white"></path>
</svg>