<svg width="16" height="20" viewBox="0 0 16 20" fill="none" xmlns="http://www.w3.org/2000/svg">
<path d="M15.3432 13.6972H11.087V8.48833C11.087 8.35882 11.0178 8.23461 10.8947 8.14303C10.7715 8.05145 10.6044 8 10.4302 8H5.53477C5.36057 8 5.1935 8.05145 5.07032 8.14303C4.94715 8.23461 4.87795 8.35882 4.87795 8.48833V11.1742H0.656815C0.482617 11.1742 0.315549 11.2256 0.192373 11.3172C0.0691961 11.4088 0 11.533 0 11.6625V19.5117C0 19.6412 0.0691961 19.7654 0.192373 19.857C0.315549 19.9486 0.482617 20 0.656815 20H15.3432C15.5174 20 15.6845 19.9486 15.8076 19.857C15.9308 19.7654 16 19.6412 16 19.5117V14.1856C16 14.0561 15.9308 13.9318 15.8076 13.8403C15.6845 13.7487 15.5174 13.6972 15.3432 13.6972ZM1.33114 12.1346H4.89546V19.0071H1.33114V12.1346ZM9.79091 19.0071H6.22659V11.6462C6.23113 11.6116 6.23113 11.5767 6.22659 11.5421V8.96039H9.80842L9.79091 19.0071ZM14.7039 19.0071H11.122V14.6739H14.7039V19.0071Z" fill="#57627D"/>
<path d="M6.18208 3.72825C6.21884 3.76558 6.24637 3.8117 6.26232 3.86264C6.27827 3.91358 6.28218 3.96784 6.27367 4.0207L6.01265 5.61223C6.00249 5.67308 6.00879 5.73571 6.03088 5.79299C6.05296 5.85028 6.08992 5.89997 6.13759 5.93639C6.18525 5.97282 6.24171 5.99454 6.30056 5.9991C6.3594 6.00366 6.4183 5.99088 6.47057 5.9622L7.84431 5.20956C7.88915 5.18354 7.93958 5.16989 7.99085 5.16989C8.04211 5.16989 8.09254 5.18354 8.13738 5.20956L9.51113 5.9622C9.56339 5.99088 9.62229 6.00366 9.68114 5.9991C9.73999 5.99454 9.79642 5.97282 9.84408 5.93639C9.89174 5.89997 9.92871 5.85028 9.95079 5.79299C9.97287 5.73571 9.9792 5.67308 9.96904 5.61223L9.71261 4.0207C9.70312 3.96822 9.70607 3.9141 9.72124 3.86311C9.73642 3.81212 9.76334 3.7658 9.79961 3.72825L10.9032 2.60171C10.9458 2.55876 10.976 2.50414 10.9905 2.44409C11.0049 2.38404 11.0029 2.32098 10.9848 2.26204C10.9667 2.2031 10.9331 2.15066 10.8879 2.11071C10.8427 2.07076 10.7877 2.04488 10.7292 2.03604L9.2043 1.80594C9.15395 1.79667 9.10631 1.77541 9.06503 1.74383C9.02375 1.71225 8.98995 1.67118 8.96621 1.62378L8.28392 0.185621C8.25795 0.129954 8.21757 0.083024 8.16737 0.050209C8.11718 0.017394 8.05919 0 8.00001 0C7.94084 0 7.88282 0.017394 7.83263 0.050209C7.78243 0.083024 7.74205 0.129954 7.71608 0.185621L7.03379 1.62378C7.01063 1.67164 6.97699 1.71307 6.93561 1.74473C6.89423 1.77639 6.84629 1.79738 6.7957 1.80594L5.27083 2.03604C5.21229 2.04488 5.1573 2.07076 5.11211 2.11071C5.06692 2.15066 5.03335 2.2031 5.01521 2.26204C4.99708 2.32098 4.99511 2.38404 5.00954 2.44409C5.02397 2.50414 5.05421 2.55876 5.09683 2.60171L6.18208 3.72825Z" fill="#57627D"/>
</svg>
