<svg width="24" height="24" viewBox="0 0 24 24" fill="none" xmlns="http://www.w3.org/2000/svg">
<path fill-rule="evenodd" clip-rule="evenodd" d="M7.368 19H12.424C14.944 19 15.792 18.1271 15.792 15.5V14.6188V9.37292V8.5C15.792 5.87292 14.952 5 12.424 5H7.368C4.84 5 4 5.87292 4 8.5V15.5C4 17.2542 4.84 19 7.368 19ZM11.6 11.1686C12.2627 11.1686 12.8 10.6103 12.8 9.92162C12.8 9.2329 12.2627 8.67458 11.6 8.67458C10.9373 8.67458 10.4 9.2329 10.4 9.92162C10.4 10.6103 10.9373 11.1686 11.6 11.1686Z" fill="#576081"/>
<path d="M15.792 9.37292V14.6188L18.016 16.2399C19.104 17.038 20 16.5558 20 15.1675V8.83254C20 7.44418 19.104 6.962 18.016 7.75178L15.792 9.37292Z" fill="#576081"/>
<path d="M15.792 8.5C15.792 5.87292 14.952 5 12.424 5H7.368C4.84 5 4 5.87292 4 8.5V15.5C4 17.2542 4.84 19 7.368 19H12.424C14.944 19 15.792 18.1271 15.792 15.5M15.792 8.5V15.5M15.792 8.5V9.37292M15.792 15.5V14.6188M15.792 14.6188L18.016 16.2399C19.104 17.038 20 16.5558 20 15.1675V8.83254C20 7.44418 19.104 6.962 18.016 7.75178L15.792 9.37292M15.792 14.6188V9.37292M12.8 9.92162C12.8 10.6103 12.2627 11.1686 11.6 11.1686C10.9373 11.1686 10.4 10.6103 10.4 9.92162C10.4 9.2329 10.9373 8.67458 11.6 8.67458C12.2627 8.67458 12.8 9.2329 12.8 9.92162Z" stroke="#0E121D" stroke-width="0.921094" stroke-linecap="round" stroke-linejoin="round"/>
</svg>
