<svg width="24" height="24" viewBox="0 0 24 24" fill="none" xmlns="http://www.w3.org/2000/svg">
<path d="M17.2514 17.3919L16.9649 16.6393L16.6785 17.3919L16.9649 18.1445L17.2514 17.3919Z" fill="#57627D"/>
<path d="M9.51724 18.6961C6.26576 18.6961 3.62069 15.9169 3.62069 12.5005C3.62069 11.127 4.06293 9.78547 4.86207 8.70384V7.70862C3.67159 8.98394 3 10.6936 3 12.5005C3 16.2762 5.92376 19.3483 9.51724 19.3483H14.4828C14.5864 19.3483 14.6894 19.3388 14.7931 19.3336V18.6873C14.6898 18.6929 14.5864 18.6961 14.4828 18.6961H9.51724Z" fill="#57627D"/>
<path d="M15.4138 20H18.5173V14.7826H15.4138V20ZM16.0565 17.2703L16.6772 15.6399C16.7247 15.516 16.8386 15.4348 16.9655 15.4348C17.0925 15.4348 17.2064 15.516 17.2539 15.6399L17.8745 17.2703C17.904 17.3479 17.904 17.4347 17.8745 17.5123L17.2539 19.1427C17.2064 19.2666 17.0925 19.3478 16.9655 19.3478C16.8386 19.3478 16.7247 19.2666 16.6772 19.1427L16.0565 17.5123C16.0274 17.4347 16.0274 17.3479 16.0565 17.2703Z" fill="#57627D"/>
<path d="M14.4826 5.65222H9.51713C9.41348 5.65222 9.31044 5.66168 9.20679 5.6669V6.3132C9.31013 6.30766 9.41379 6.3044 9.51713 6.3044H14.4826C17.7341 6.3044 20.3792 9.08363 20.3792 12.5C20.3792 13.8732 19.9373 15.215 19.1378 16.2967V17.2912C20.3283 16.0162 20.9999 14.3069 20.9999 12.5C20.9999 8.72396 18.0761 5.65222 14.4826 5.65222Z" fill="#57627D"/>
<path d="M6.74731 7.6093L7.03376 8.36191L7.32021 7.6093L7.03376 6.85669L6.74731 7.6093Z" fill="#57627D"/>
<path d="M8.58624 5H5.48279V10.2174H8.58624V5ZM7.94351 7.73L7.32282 9.36043C7.27534 9.48402 7.16144 9.56522 7.03451 9.56522C6.90758 9.56522 6.79368 9.48402 6.7462 9.36043L6.12551 7.73C6.09603 7.65207 6.09603 7.56565 6.12551 7.48772L6.7462 5.85728C6.79368 5.73337 6.90758 5.65217 7.03451 5.65217C7.16144 5.65217 7.27534 5.73337 7.32282 5.85696L7.94351 7.48739C7.97269 7.56533 7.97269 7.65207 7.94351 7.73Z" fill="#57627D"/>
<path d="M12.2858 12.5005L11.9993 11.7479L11.7129 12.5005L11.9993 13.2531L12.2858 12.5005Z" fill="#57627D"/>
<path d="M10.4482 15.1087H13.5517V9.89136H10.4482V15.1087ZM11.091 12.3787L11.7117 10.7483C11.7591 10.6247 11.873 10.5435 12 10.5435C12.1269 10.5435 12.2408 10.6247 12.2883 10.7483L12.909 12.3787C12.9384 12.4567 12.9384 12.5431 12.909 12.621L12.2883 14.2515C12.2408 14.3754 12.1269 14.4566 12 14.4566C11.873 14.4566 11.7591 14.3754 11.7117 14.2515L11.091 12.621C11.0618 12.5434 11.0618 12.4567 11.091 12.3787V12.3787Z" fill="#57627D"/>
<path d="M19.138 15.1006C19.5402 14.3043 19.7587 13.4101 19.7587 12.5C19.7587 9.44328 17.392 6.95654 14.4828 6.95654H9.51732C9.41335 6.95654 9.31063 6.96828 9.20697 6.97448V10.5435C9.20697 10.7235 9.06825 10.8696 8.89663 10.8696H5.17249C5.00087 10.8696 4.86214 10.7235 4.86214 10.5435V9.89948C4.45994 10.6961 4.24146 11.5899 4.24146 12.5C4.24146 15.5568 6.60814 18.0435 9.51732 18.0435H14.4828C14.5871 18.0435 14.6895 18.0318 14.7932 18.0256V14.4565C14.7932 14.2762 14.9319 14.1305 15.1035 14.1305H18.8277C18.9993 14.1305 19.138 14.2762 19.138 14.4565V15.1006ZM14.1725 15.4348C14.1725 15.6151 14.0338 15.7609 13.8621 15.7609H10.138C9.96639 15.7609 9.82766 15.6151 9.82766 15.4348V9.56524C9.82766 9.38524 9.96639 9.23915 10.138 9.23915H13.8621C14.0338 9.23915 14.1725 9.38524 14.1725 9.56524V15.4348Z" fill="#57627D"/>
</svg>
