<svg width="20" height="20" viewBox="0 0 20 20" fill="none" xmlns="http://www.w3.org/2000/svg">
<g clip-path="url(#clip0_1_201)">
<path d="M11.2379 2.23848C11.0648 1.92094 10.7999 1.66905 10.4813 1.51911C10.1626 1.36917 9.80672 1.32892 9.46481 1.40414C9.12291 1.47935 8.81263 1.66617 8.57869 1.93767C8.34475 2.20917 8.19923 2.55136 8.16305 2.91493L1.77279 9.62818L0.870631 10.1748C0.672471 10.2934 0.498719 10.4519 0.359393 10.6411C0.220066 10.8303 0.117922 11.0465 0.0588628 11.2772C-0.000196528 11.5079 -0.0149991 11.7485 0.0152941 11.9853C0.0455873 12.222 0.120378 12.4501 0.235363 12.6564L1.73895 15.3622C1.89105 15.6386 2.11016 15.8681 2.37415 16.0276C2.63815 16.1871 2.93769 16.2709 3.24254 16.2706C3.54634 16.2713 3.8448 16.1871 4.1071 16.0268L5.01303 15.4802L5.6934 15.2914L8.8735 19.3461C9.18044 19.7188 9.61456 19.9511 10.0831 19.9934C10.5516 20.0356 11.0173 19.8844 11.3807 19.572C11.744 19.2597 11.9762 18.811 12.0275 18.322C12.0787 17.8329 11.9451 17.3423 11.6551 16.9549L9.50875 14.202L13.7188 13.0222C14.0374 13.1853 14.3977 13.2369 14.7464 13.1695C15.0952 13.102 15.4141 12.919 15.6559 12.6475C15.8977 12.376 16.0496 12.0304 16.0893 11.6617C16.1291 11.2929 16.0544 10.9206 15.8765 10.5996L11.2379 2.23848ZM5.107 14.2295L2.85162 10.1591L8.49008 4.22453L12.8279 12.0901L5.107 14.2295ZM2.70501 14.7722L1.20142 12.0665C1.12162 11.9197 1.10004 11.746 1.14129 11.5828C1.16149 11.5006 1.19715 11.4235 1.24621 11.356C1.29526 11.2884 1.35671 11.2318 1.42695 11.1895L1.94945 10.8749L4.05073 14.6779L3.52447 14.9964C3.387 15.0786 3.22422 15.1012 3.07102 15.0593C2.91783 15.0174 2.78642 14.9143 2.70501 14.7722ZM10.783 17.7297C10.8862 17.8757 10.9317 18.0576 10.9103 18.2378C10.8888 18.4179 10.8021 18.5826 10.6679 18.6977C10.5338 18.8128 10.3624 18.8696 10.1894 18.8563C10.0163 18.8431 9.85475 18.7607 9.73806 18.6264L6.87747 14.9767L8.30966 14.5835L10.783 17.7297ZM14.6886 11.9839C14.5668 12.0571 14.4223 12.077 14.2865 12.0395C14.1507 12.002 14.0345 11.9099 13.9631 11.7833L9.32833 3.38293C9.25889 3.2556 9.24046 3.10468 9.27709 2.96318C9.31372 2.82168 9.40243 2.70109 9.5238 2.62782C9.6035 2.57864 9.6944 2.55282 9.78693 2.5531C9.87979 2.55258 9.97113 2.57777 10.0517 2.62612C10.1322 2.67447 10.1991 2.74426 10.2455 2.8284L14.8803 11.2288C14.9501 11.3557 14.9691 11.5062 14.9332 11.6477C14.8973 11.7891 14.8094 11.91 14.6886 11.9839Z" fill="#57627D"/>
<path d="M14.7188 5.73483C14.7686 5.8243 14.8399 5.8986 14.9256 5.95034C15.0113 6.00208 15.1085 6.02946 15.2074 6.02979C15.3065 6.03127 15.4041 6.00404 15.4894 5.95113L18.1958 4.31904C18.26 4.28031 18.3162 4.22872 18.3614 4.16724C18.4065 4.10576 18.4396 4.03558 18.4588 3.96072C18.478 3.88585 18.4829 3.80778 18.4733 3.73093C18.4636 3.65408 18.4396 3.57994 18.4026 3.51281C18.3655 3.44567 18.3162 3.38682 18.2575 3.33962C18.1987 3.29241 18.1317 3.25778 18.0601 3.2377C17.9885 3.21761 17.9139 3.21246 17.8404 3.22255C17.767 3.23264 17.6962 3.25777 17.632 3.29651L14.9255 4.92862C14.7966 5.00752 14.7026 5.13639 14.6639 5.28731C14.6252 5.43822 14.6449 5.59902 14.7188 5.73483Z" fill="#57627D"/>
<path d="M13.8128 3.93309C13.8989 3.98374 13.9959 4.0108 14.0947 4.01175C14.1938 4.01182 14.2911 3.98458 14.3768 3.9328C14.4626 3.88102 14.5339 3.80653 14.5834 3.71679L16.1434 0.885189C16.2181 0.749594 16.2384 0.588474 16.1996 0.437279C16.1608 0.286084 16.0662 0.157203 15.9366 0.0789751C15.807 0.000747322 15.653 -0.0203987 15.5085 0.0201659C15.364 0.0607305 15.2408 0.159678 15.166 0.295273L13.6061 3.12688C13.569 3.194 13.5449 3.26811 13.5353 3.34497C13.5256 3.42183 13.5305 3.49993 13.5497 3.57481C13.5689 3.64969 13.602 3.71989 13.6472 3.78136C13.6923 3.84284 13.7486 3.89439 13.8128 3.93309Z" fill="#57627D"/>
<path d="M19.4356 6.875H16.3119C16.1624 6.875 16.0189 6.93715 15.9132 7.04778C15.8074 7.15841 15.748 7.30846 15.748 7.46492C15.748 7.62137 15.8074 7.7714 15.9132 7.88203C16.0189 7.99266 16.1624 8.05483 16.3119 8.05483H19.4356C19.5851 8.05483 19.7286 7.99266 19.8343 7.88203C19.94 7.7714 19.9994 7.62137 19.9994 7.46492C19.9994 7.30846 19.94 7.15841 19.8343 7.04778C19.7286 6.93715 19.5851 6.875 19.4356 6.875Z" fill="#57627D"/>
</g>
<defs>
<clipPath id="clip0_1_201">
<rect width="20" height="20" fill="white"/>
</clipPath>
</defs>
</svg>
