<svg width="20" height="20" viewBox="0 0 20 20" fill="none" xmlns="http://www.w3.org/2000/svg">
<path d="M10 16C11.088 16 12.1515 15.6773 13.0561 15.0728C13.9606 14.4683 14.6656 13.609 15.0817 12.6038C15.4979 11.5986 15.6066 10.4925 15.394 9.42548C15.1815 8.35848 14.6572 7.37848 13.8876 6.60946C13.118 5.84043 12.1376 5.31693 11.0705 5.10518C10.0033 4.89343 8.89731 5.00294 7.89239 5.41985C6.88747 5.83677 6.02876 6.54235 5.42491 7.44737C4.82106 8.35238 4.49918 9.41616 4.5 10.5041C4.50219 11.9618 5.0825 13.359 6.1136 14.3893C7.14469 15.4197 8.54238 15.9989 10 16ZM10 6.2438C10.8426 6.2438 11.6663 6.49366 12.3669 6.9618C13.0675 7.42993 13.6136 8.0953 13.936 8.87377C14.2585 9.65224 14.3429 10.5089 14.1785 11.3353C14.0141 12.1617 13.6083 12.9208 13.0125 13.5166C12.4167 14.1125 11.6576 14.5182 10.8312 14.6826C10.0047 14.847 9.14812 14.7626 8.36965 14.4402C7.59118 14.1177 6.92579 13.5716 6.45766 12.871C5.98953 12.1704 5.73967 11.3467 5.73967 10.5041C5.74076 9.37455 6.18999 8.29156 6.98872 7.49283C7.78745 6.6941 8.87045 6.24489 10 6.2438Z" fill="#57627D"/>
<path d="M10.0838 11H10.1577L12.9872 10.6471C13.142 10.6288 13.2825 10.5555 13.3778 10.4433C13.473 10.3311 13.5152 10.1892 13.4951 10.0488C13.475 9.90841 13.3942 9.78101 13.2704 9.69463C13.1467 9.60825 12.9902 9.56998 12.8354 9.58824L10.6676 9.84941V8.52941C10.6676 8.389 10.6061 8.25434 10.4966 8.15506C10.3871 8.05577 10.2386 8 10.0838 8C9.92897 8 9.78048 8.05577 9.671 8.15506C9.56152 8.25434 9.50001 8.389 9.50001 8.52941V10.4529C9.4995 10.5226 9.51423 10.5917 9.54339 10.6561C9.57254 10.7205 9.61552 10.7791 9.66983 10.8283C9.72415 10.8776 9.78871 10.9166 9.85978 10.943C9.93084 10.9695 10.007 10.9828 10.0838 10.9824V11Z" fill="#57627D"/>
<path d="M10 1.69293C9.09835 1.68926 8.20195 1.83294 7.34505 2.11848L7.3994 2.04187C7.45268 1.97541 7.49224 1.89871 7.51574 1.81634C7.53925 1.73397 7.5462 1.64764 7.53618 1.56248C7.52617 1.47731 7.4994 1.39508 7.45746 1.32068C7.41552 1.24628 7.3593 1.18124 7.29212 1.12946C7.22494 1.07768 7.14818 1.0402 7.06646 1.01928C6.98473 0.99836 6.89971 0.994416 6.81645 1.00769C6.73319 1.02096 6.65343 1.05118 6.58191 1.09653C6.51038 1.14188 6.44855 1.20142 6.40014 1.27163L4.56469 3.73982C4.49381 3.83435 4.45028 3.94714 4.43901 4.0655C4.42774 4.18385 4.44917 4.30305 4.50089 4.40967C4.55262 4.51629 4.63259 4.60609 4.73176 4.66894C4.83094 4.73179 4.94538 4.7652 5.06221 4.76539H5.15002L8.16454 4.33984C8.32916 4.31661 8.47798 4.22781 8.57833 4.09297C8.67867 3.95812 8.72232 3.78825 8.69969 3.62067C8.68476 3.52496 8.64931 3.43379 8.59583 3.35362C8.54236 3.27345 8.47218 3.20626 8.3903 3.15682C8.91862 3.03576 9.45847 2.97438 10 2.97382C11.4331 2.97382 12.8339 3.40635 14.0255 4.2167C15.217 5.02705 16.1457 6.17883 16.6941 7.52639C17.2426 8.87396 17.3861 10.3568 17.1065 11.7873C16.8269 13.2179 16.1368 14.5319 15.1235 15.5633C14.1102 16.5947 12.8191 17.2971 11.4135 17.5816C10.008 17.8662 8.55115 17.7202 7.22718 17.162C5.9032 16.6038 4.77158 15.6586 3.97541 14.4458C3.17924 13.233 2.7543 11.8072 2.7543 10.3486C2.7543 10.1793 2.68823 10.0169 2.57062 9.89722C2.45301 9.77751 2.29348 9.71027 2.12715 9.71027C1.96082 9.71027 1.8013 9.77751 1.68368 9.89722C1.56607 10.0169 1.5 10.1793 1.5 10.3486C1.5 12.0597 1.99851 13.7323 2.9325 15.1551C3.86649 16.5778 5.19402 17.6866 6.74719 18.3414C8.30036 18.9963 10.0094 19.1676 11.6583 18.8338C13.3071 18.4999 14.8216 17.676 16.0104 16.4661C17.1991 15.2561 18.0087 13.7146 18.3367 12.0364C18.6646 10.3582 18.4963 8.61867 17.853 7.03783C17.2096 5.457 16.1202 4.10584 14.7224 3.15521C13.3245 2.20458 11.6811 1.69718 10 1.69718V1.69293Z" fill="#57627D"/>
</svg>
