<svg width="24" height="24" viewBox="0 0 24 24" fill="none" xmlns="http://www.w3.org/2000/svg">
<path d="M12 3C7.02937 3 3 7.02937 3 12C3 16.9706 7.02937 21 12 21C16.9706 21 21 16.9706 21 12C20.9944 7.03171 16.9683 3.00563 12 3ZM12 20.4C7.36075 20.4 3.59999 16.6393 3.59999 12C3.59999 7.36075 7.36075 3.59999 12 3.59999C16.6393 3.59999 20.4 7.36075 20.4 12C20.3947 16.6371 16.6371 20.3947 12 20.4V20.4Z" fill="#57627D"/>
<path d="M12.9003 14.7003C12.8987 14.3202 12.6586 13.9822 12.3003 13.8555V13.1577C12.7204 13.0484 13.0484 12.7204 13.1577 12.3003H13.8555C14.0016 12.7136 14.4241 12.9614 14.8562 12.8873C15.2882 12.8131 15.6041 12.4386 15.6041 12.0003C15.6041 11.5619 15.2882 11.1874 14.8562 11.1133C14.4241 11.0391 14.0016 11.287 13.8555 11.7002H13.1577C13.0484 11.2801 12.7204 10.9522 12.3003 10.8429V10.1451C12.7136 9.99898 12.9614 9.57642 12.8873 9.14438C12.8131 8.71234 12.4386 8.39648 12.0003 8.39648C11.5619 8.39648 11.1874 8.71234 11.1133 9.14438C11.0391 9.57642 11.287 9.99898 11.7002 10.1451V10.8429C11.2801 10.9522 10.9522 11.2801 10.8429 11.7002H10.1451C9.99898 11.287 9.57642 11.0391 9.14438 11.1133C8.71234 11.1874 8.39648 11.5619 8.39648 12.0003C8.39648 12.4386 8.71234 12.8131 9.14438 12.8873C9.57642 12.9614 9.99898 12.7136 10.1451 12.3003H10.8429C10.9522 12.7204 11.2801 13.0484 11.7002 13.1577V13.8555C11.27 14.0087 11.023 14.4607 11.1267 14.9056C11.2303 15.3506 11.6513 15.6469 12.1051 15.5945C12.5589 15.5419 12.9012 15.1572 12.9003 14.7003V14.7003ZM14.7003 11.7002C14.8659 11.7002 15.0002 11.8347 15.0002 12.0003C15.0002 12.1659 14.8659 12.3003 14.7003 12.3003C14.5345 12.3003 14.4002 12.1659 14.4002 12.0003C14.4002 11.8347 14.5345 11.7002 14.7003 11.7002ZM12.0003 9.00032C12.1659 9.00032 12.3003 9.13463 12.3003 9.30025C12.3003 9.466 12.1659 9.60031 12.0003 9.60031C11.8347 9.60031 11.7002 9.466 11.7002 9.30025C11.7002 9.13463 11.8347 9.00032 12.0003 9.00032ZM9.30025 12.3003C9.13463 12.3003 9.00032 12.1659 9.00032 12.0003C9.00032 11.8347 9.13463 11.7002 9.30025 11.7002C9.466 11.7002 9.60031 11.8347 9.60031 12.0003C9.60031 12.1659 9.466 12.3003 9.30025 12.3003ZM11.4003 12.0003C11.4003 11.6689 11.6689 11.4003 12.0003 11.4003C12.3316 11.4003 12.6003 11.6689 12.6003 12.0003C12.6003 12.3316 12.3316 12.6003 12.0003 12.6003C11.6689 12.6003 11.4003 12.3316 11.4003 12.0003ZM11.7002 14.7003C11.7002 14.5345 11.8347 14.4002 12.0003 14.4002C12.1659 14.4002 12.3003 14.5345 12.3003 14.7003C12.3003 14.8659 12.1659 15.0002 12.0003 15.0002C11.8347 15.0002 11.7002 14.8659 11.7002 14.7003V14.7003Z" fill="#57627D"/>
<path d="M18.2573 7.34248C17.8044 6.73604 17.2664 6.19826 16.66 5.74548L16.6564 5.74219H16.6546C13.8949 3.68555 10.112 3.68555 7.35223 5.74219H7.35045L7.34688 5.74548C6.74043 6.19812 6.20251 6.73604 5.74988 7.34248L5.74658 7.34605V7.34784C3.68994 10.1076 3.68994 13.8905 5.74658 16.6502V16.652C5.74878 16.6556 5.75208 16.6583 5.75441 16.6622L5.75867 16.6677C5.76993 16.6854 5.78284 16.702 5.79739 16.7171C6.24001 17.2984 6.76158 17.8152 7.34688 18.2526L7.35045 18.2559H7.35251C10.1121 20.3123 13.8947 20.3123 16.6544 18.2559H16.6564L16.66 18.2526C17.2453 17.8152 17.7669 17.2984 18.2095 16.7171C18.224 16.702 18.2369 16.6854 18.2482 16.6677L18.2525 16.6622C18.2548 16.6583 18.2581 16.6556 18.2603 16.652V16.6502C20.3169 13.8905 20.3169 10.1076 18.2603 7.34784V7.34605L18.2573 7.34248ZM18.7511 14.5091L17.1634 13.5926C17.2034 13.4639 17.2348 13.3317 17.2648 13.199H19.1014C19.0266 13.6459 18.9092 14.0845 18.7511 14.5091V14.5091ZM17.9134 16.1052L16.3436 15.1995C16.5832 14.877 16.7862 14.5289 16.9487 14.1614L18.5161 15.0663C18.3445 15.4287 18.1429 15.7761 17.9134 16.1052V16.1052ZM15.0712 18.5112L14.1664 16.9436C14.5339 16.7813 14.8821 16.5783 15.2044 16.3385L16.1096 17.909C15.7805 18.1382 15.4331 18.3397 15.0707 18.5112H15.0712ZM7.89729 17.909L8.80298 16.3392C9.12543 16.5788 9.47356 16.7818 9.84105 16.9443L8.93619 18.5117C8.57378 18.3401 8.22633 18.1385 7.89729 17.909ZM5.49129 15.0668L7.0589 14.162C7.22122 14.5295 7.42419 14.8777 7.66397 15.2L6.09348 16.1052C5.86427 15.7761 5.66281 15.4287 5.49129 15.0663V15.0668ZM5.25577 9.48894L6.84343 10.4055C6.80347 10.5341 6.77202 10.6664 6.74208 10.7991H4.90544C4.98029 10.3522 5.0977 9.91356 5.25577 9.48894ZM6.09402 7.8929L7.66397 8.79858C7.42419 9.12103 7.22122 9.46916 7.0589 9.83665L5.49129 8.93179C5.66281 8.56938 5.86427 8.22194 6.09348 7.8929H6.09402ZM8.93619 5.48689L9.84105 7.0545C9.47356 7.21683 9.12543 7.4198 8.80298 7.65958L7.89729 6.08908C8.22633 5.85988 8.57378 5.65842 8.93619 5.48689ZM10.4099 6.83904L9.49333 5.25137C9.91795 5.09331 10.3566 4.97589 10.8035 4.90105V6.73824C10.6708 6.76817 10.5385 6.79976 10.4099 6.83904ZM6.63881 11.399C6.59157 11.7977 6.59157 12.2004 6.63881 12.599H4.83046C4.81398 12.401 4.80341 12.2012 4.80341 11.999C4.80341 11.7969 4.81398 11.5971 4.83046 11.399H6.63881ZM4.90544 13.199H6.74263C6.77257 13.3317 6.80415 13.4639 6.84398 13.5926L5.25577 14.5091C5.0977 14.0845 4.98029 13.6459 4.90544 13.199ZM10.4099 17.159C10.5385 17.199 10.6708 17.2305 10.8035 17.2604V19.097C10.3566 19.0222 9.91795 18.9048 9.49333 18.7467L10.4099 17.159ZM7.20337 11.999C7.20268 10.8764 7.59737 9.78928 8.31821 8.9285C8.32301 8.9241 8.32658 8.91888 8.33112 8.91449C9.24092 7.82726 10.5858 7.19911 12.0034 7.19911C13.4211 7.19911 14.7659 7.82726 15.6758 8.91449C15.6803 8.91888 15.6839 8.9241 15.6887 8.9285C17.0468 10.556 17.1768 12.8818 16.0081 14.6503C14.8396 16.4188 12.6492 17.2115 10.6194 16.6003C8.58971 15.9891 7.20117 14.1189 7.20337 11.999V11.999ZM16.1096 6.08908L15.2039 7.65889C14.8814 7.41925 14.5333 7.21628 14.1658 7.05382L15.0707 5.48634C15.4331 5.658 15.7805 5.8596 16.1096 6.08908V6.08908ZM13.597 6.83904C13.4683 6.79907 13.3361 6.76762 13.2034 6.73769V4.90105C13.6503 4.97589 14.0889 5.09331 14.5135 5.25137L13.597 6.83904ZM13.597 17.159L14.5135 18.7473C14.0889 18.9052 13.6503 19.0223 13.2034 19.097V17.2598C13.3361 17.2299 13.4683 17.1983 13.597 17.159ZM17.3681 12.599C17.4153 12.2004 17.4153 11.7977 17.3681 11.399H19.1764C19.1929 11.5971 19.2035 11.7969 19.2035 11.999C19.2035 12.2012 19.1929 12.401 19.1764 12.599H17.3681ZM19.1014 10.7991H17.2642C17.2343 10.6664 17.2042 10.5341 17.1629 10.4055L18.7511 9.48894C18.9092 9.91356 19.0266 10.3522 19.1014 10.7991V10.7991ZM16.948 9.83665C16.7856 9.46916 16.5827 9.12103 16.3429 8.79858L17.9134 7.8929C18.1429 8.22194 18.3445 8.56938 18.5161 8.93179L16.948 9.83665ZM17.5481 7.41087L15.9541 8.33002C15.8635 8.23238 15.7697 8.13858 15.6725 8.04836L16.5916 6.45479C16.9393 6.74304 17.2594 7.06316 17.5477 7.41087H17.5481ZM12.6034 4.82607V6.63441C12.2048 6.58717 11.8021 6.58717 11.4034 6.63441V4.82607C11.6015 4.80959 11.8013 4.79901 12.0034 4.79901C12.2056 4.79901 12.4054 4.80959 12.6034 4.82607ZM7.41527 6.45479L8.33441 8.04836C8.23677 8.13899 8.14297 8.23279 8.05275 8.33002L6.45918 7.41087C6.74744 7.06316 7.06755 6.74304 7.41527 6.45479ZM6.45918 16.5872L8.05275 15.6681C8.14339 15.7657 8.23718 15.8595 8.33441 15.9497L7.41527 17.5433C7.06755 17.255 6.74744 16.9349 6.45918 16.5872V16.5872ZM11.4034 19.172V17.3637C11.8021 17.4109 12.2048 17.4109 12.6034 17.3637V19.172C12.4054 19.1885 12.2056 19.1991 12.0034 19.1991C11.8013 19.1991 11.6015 19.1885 11.4034 19.172V19.172ZM16.5916 17.5433L15.6725 15.9497C15.7701 15.8591 15.8639 15.7653 15.9541 15.6681L17.5477 16.5872C17.2594 16.9349 16.9393 17.255 16.5916 17.5433V17.5433Z" fill="#57627D"/>
</svg>
