<svg width="24" height="24" viewBox="0 0 24 24" fill="none" xmlns="http://www.w3.org/2000/svg">
<path fill-rule="evenodd" clip-rule="evenodd" d="M20.3881 6.06654C20.2762 6.11077 20.1142 6.20089 20.0282 6.26681C19.9422 6.33274 19.8109 6.48704 19.7364 6.60967C19.6619 6.73229 19.5795 6.90833 19.5533 7.00087C19.5255 7.0993 19.5133 7.2969 19.524 7.477C19.5368 7.69282 19.5727 7.85098 19.644 8.00598C19.7 8.12757 19.837 8.31767 19.9484 8.42848C20.0598 8.53924 20.1929 8.64153 20.2441 8.65577L20.3373 8.68161V11.0359V13.3902H19.9263H19.5153V12.5695C19.5153 11.8351 19.5064 11.7224 19.431 11.4995C19.3739 11.3306 19.282 11.1788 19.146 11.0284C19.01 10.878 18.8727 10.7764 18.72 10.7132C18.5511 10.6433 18.4072 10.62 18.1447 10.62H17.7947L17.714 10.4451C17.6696 10.3489 17.5643 10.1938 17.48 10.1006C17.3957 10.0074 17.2581 9.89236 17.1743 9.84505C17.0905 9.79778 16.9092 9.73779 16.7715 9.71177C16.5952 9.67849 14.5158 9.66819 9.74979 9.67693C3.2804 9.68883 2.97021 9.69295 2.79283 9.76913C2.69067 9.81297 2.51798 9.9375 2.40902 10.0458C2.30009 10.1541 2.16349 10.3423 2.10548 10.4638L2 10.6849V13.8447V17.0045L2.09049 17.2076C2.14024 17.3193 2.25199 17.4917 2.3388 17.5906C2.42561 17.6895 2.59626 17.8221 2.71803 17.8853L2.93937 18H9.92592H16.9125L17.1398 17.8726C17.2648 17.8026 17.4284 17.6702 17.5033 17.5785C17.5782 17.4869 17.6673 17.3472 17.7014 17.2683L17.7633 17.1247L18.1403 17.1C18.3476 17.0864 18.6008 17.043 18.7029 17.0035C18.8051 16.9639 18.9778 16.8429 19.0867 16.7346C19.1957 16.6263 19.3323 16.4382 19.3903 16.3166C19.4932 16.1009 19.4961 16.074 19.5084 15.2224L19.521 14.3494L20.2129 14.3351C20.7437 14.3242 20.9253 14.3058 20.9929 14.2563C21.0413 14.2208 21.1073 14.1302 21.1396 14.055C21.1898 13.9381 21.1983 13.5374 21.1983 11.2999V8.68161L21.2915 8.65577C21.3427 8.64153 21.4758 8.53924 21.5872 8.42848C21.6986 8.31767 21.8369 8.12757 21.8945 8.00598C21.9852 7.81445 21.9993 7.73277 22 7.39532C22.0006 7.07459 21.9848 6.96988 21.9102 6.80263C21.8605 6.69091 21.7487 6.51856 21.6619 6.41965C21.5751 6.3207 21.4069 6.19055 21.2882 6.13042C21.1585 6.06476 20.9763 6.01412 20.832 6.0036C20.6633 5.99131 20.531 6.01005 20.3881 6.06654ZM20.916 6.98737C20.9823 7.01295 21.0642 7.08043 21.0979 7.13735C21.1316 7.19422 21.1592 7.30932 21.1592 7.39312C21.1592 7.49903 21.1256 7.58703 21.049 7.68191C20.9572 7.79553 20.9102 7.81834 20.7678 7.81834C20.6255 7.81834 20.5784 7.79553 20.4866 7.68191C20.4069 7.58314 20.3766 7.50081 20.3773 7.38381C20.3777 7.2949 20.4086 7.17921 20.4458 7.1267C20.483 7.0742 20.5574 7.01213 20.6112 6.9888C20.6651 6.96542 20.7285 6.94508 20.7522 6.94357C20.7759 6.94209 20.8496 6.96179 20.916 6.98737ZM6.9904 13.8447V17.0694H5.09792C3.84942 17.0694 3.16439 17.0535 3.08478 17.0229C3.01839 16.9973 2.93651 16.9298 2.90281 16.8729C2.84872 16.7816 2.84152 16.4268 2.84152 13.8495V10.9296L2.9407 10.7993C2.99526 10.7276 3.0789 10.6606 3.12662 10.6504C3.17433 10.6401 4.06317 10.6291 5.10187 10.6259L6.9904 10.62V13.8447ZM12.0004 13.8447V17.0694H9.92592H7.85148V13.8447V10.62H9.92592H12.0004V13.8447ZM16.7991 10.7022C16.8443 10.7355 16.9059 10.8036 16.936 10.8537C16.9812 10.9288 16.9927 11.4343 17.0016 13.749C17.009 15.6559 16.999 16.6088 16.9703 16.7267C16.9409 16.8476 16.8901 16.9258 16.8028 16.9846C16.6832 17.0653 16.5925 17.0691 14.7695 17.0692L12.8615 17.0694V13.8431V10.6169L14.7891 10.6293C16.3608 10.6394 16.732 10.6528 16.7991 10.7022ZM3.87807 11.5954C3.81314 11.6309 3.73521 11.7035 3.70495 11.7567C3.67466 11.81 3.64303 11.9997 3.6347 12.1782C3.62288 12.4312 3.63517 12.5363 3.69039 12.6544C3.73083 12.7407 3.82077 12.838 3.89964 12.8807C4.01052 12.9407 4.06645 12.9469 4.18172 12.9117C4.26474 12.8863 4.35926 12.8153 4.40545 12.7436C4.44944 12.6752 4.48541 12.5883 4.48541 12.5503C4.48541 12.4937 4.53465 12.4812 4.7594 12.4812C4.91009 12.4812 5.03338 12.4886 5.03338 12.4975C5.03338 12.5064 4.96997 12.6671 4.89247 12.8546C4.81498 13.042 4.64937 13.4779 4.52448 13.8231C4.39958 14.1682 4.26043 14.5891 4.21527 14.7583C4.1701 14.9275 4.13315 15.0959 4.13315 15.1324C4.13315 15.1689 4.08473 15.2119 4.02551 15.228C3.96629 15.2441 3.87678 15.2867 3.82652 15.3227C3.77631 15.3586 3.71102 15.4521 3.68147 15.5303C3.64155 15.6359 3.63771 15.7126 3.66652 15.828C3.68859 15.9165 3.75376 16.0217 3.81764 16.072C3.91807 16.1511 3.9888 16.1604 4.48541 16.1604C4.98203 16.1604 5.05275 16.1511 5.15319 16.072C5.21706 16.0217 5.28223 15.9165 5.30431 15.828C5.33335 15.7116 5.3292 15.6357 5.28771 15.526C5.25726 15.4453 5.17886 15.3457 5.11354 15.3046C5.04821 15.2634 4.99463 15.2171 4.99447 15.2015C4.99436 15.186 5.05729 14.9717 5.1344 14.7254C5.21147 14.4791 5.37715 14.0146 5.50255 13.6932C5.62796 13.3718 5.82906 12.8869 5.9495 12.6155C6.06993 12.3442 6.16845 12.0754 6.16845 12.0182C6.16845 11.961 6.14172 11.8571 6.10907 11.7873C6.07643 11.7174 5.99803 11.6307 5.9349 11.5946C5.84174 11.5414 5.648 11.5292 4.90813 11.53C4.18074 11.5308 3.97224 11.544 3.87807 11.5954ZM8.88804 11.5954C8.82311 11.6309 8.74518 11.7035 8.71492 11.7567C8.68463 11.81 8.653 11.9997 8.64466 12.1782C8.63284 12.4312 8.64513 12.5363 8.70036 12.6544C8.74079 12.7407 8.83074 12.838 8.90961 12.8807C9.02049 12.9407 9.07642 12.9469 9.19169 12.9117C9.27471 12.8863 9.36923 12.8153 9.41542 12.7436C9.45941 12.6752 9.49538 12.5883 9.49538 12.5503C9.49538 12.4937 9.54462 12.4812 9.76936 12.4812C9.92005 12.4812 10.0433 12.4886 10.0433 12.4975C10.0433 12.5064 9.97994 12.6671 9.90244 12.8546C9.82494 13.042 9.65934 13.4779 9.53444 13.8231C9.40955 14.1682 9.2704 14.5891 9.22523 14.7583C9.18007 14.9275 9.14312 15.0959 9.14312 15.1324C9.14312 15.1689 9.09466 15.2119 9.03548 15.228C8.9763 15.2441 8.88675 15.2867 8.83649 15.3227C8.78627 15.3586 8.72099 15.4521 8.69144 15.5303C8.65151 15.6359 8.64768 15.7126 8.67649 15.828C8.69856 15.9165 8.76373 16.0217 8.82761 16.072C8.92804 16.1511 8.99877 16.1604 9.49538 16.1604C9.99199 16.1604 10.0627 16.1511 10.1632 16.072C10.227 16.0217 10.2922 15.9165 10.3143 15.828C10.3433 15.7116 10.3392 15.6357 10.2977 15.526C10.2672 15.4453 10.1888 15.3457 10.1235 15.3046C10.0582 15.2634 10.0046 15.2171 10.0044 15.2015C10.0043 15.186 10.0673 14.9717 10.1444 14.7254C10.2214 14.4791 10.3871 14.0146 10.5125 13.6932C10.6379 13.3718 10.839 12.8869 10.9595 12.6155C11.0799 12.3442 11.1784 12.0754 11.1784 12.0182C11.1784 11.961 11.1517 11.8571 11.119 11.7873C11.0864 11.7174 11.008 11.6307 10.9449 11.5946C10.8517 11.5414 10.658 11.5292 9.9181 11.53C9.19071 11.5308 8.98221 11.544 8.88804 11.5954ZM13.898 11.5954C13.8331 11.6309 13.7551 11.7035 13.7249 11.7567C13.6946 11.81 13.663 11.9997 13.6546 12.1782C13.6428 12.4312 13.6551 12.5363 13.7103 12.6544C13.7508 12.7407 13.8407 12.838 13.9196 12.8807C14.0305 12.9407 14.0864 12.9469 14.2017 12.9117C14.2847 12.8863 14.3792 12.8153 14.4254 12.7436C14.4694 12.6752 14.5053 12.5883 14.5053 12.5503C14.5053 12.4937 14.5546 12.4812 14.7793 12.4812C14.93 12.4812 15.0533 12.4886 15.0533 12.4975C15.0533 12.5064 14.9899 12.6671 14.9124 12.8546C14.8349 13.042 14.6693 13.4779 14.5444 13.8231C14.4195 14.1682 14.2804 14.5891 14.2352 14.7583C14.19 14.9275 14.1531 15.0959 14.1531 15.1324C14.1531 15.1689 14.1046 15.2119 14.0454 15.228C13.9863 15.2441 13.8967 15.2867 13.8465 15.3227C13.7962 15.3586 13.731 15.4521 13.7014 15.5303C13.6615 15.6359 13.6576 15.7126 13.6865 15.828C13.7085 15.9165 13.7737 16.0217 13.8376 16.072C13.938 16.1511 14.0087 16.1604 14.5053 16.1604C15.002 16.1604 15.0727 16.1511 15.1731 16.072C15.237 16.0217 15.3022 15.9165 15.3242 15.828C15.3533 15.7116 15.3491 15.6357 15.3076 15.526C15.2772 15.4453 15.1988 15.3457 15.1335 15.3046C15.0681 15.2634 15.0146 15.2171 15.0144 15.2015C15.0143 15.186 15.0772 14.9717 15.1543 14.7254C15.2314 14.4791 15.3971 14.0146 15.5225 13.6932C15.6479 13.3718 15.849 12.8869 15.9694 12.6155C16.0899 12.3442 16.1884 12.0754 16.1884 12.0182C16.1884 11.961 16.1616 11.8571 16.129 11.7873C16.0964 11.7174 16.018 11.6307 15.9548 11.5946C15.8617 11.5414 15.6679 11.5292 14.9281 11.53C14.2007 11.5308 13.9922 11.544 13.898 11.5954ZM18.5398 11.6988L18.6542 11.8253V13.8407V15.856L18.5446 15.9918C18.4456 16.1142 18.4075 16.1296 18.1532 16.1498L17.8714 16.1721V13.8721V11.5723H18.1484C18.4024 11.5723 18.4349 11.5828 18.5398 11.6988Z" fill="#576081"/>
</svg>
