<svg width="24" height="24" viewBox="0 0 24 24" fill="none" xmlns="http://www.w3.org/2000/svg">
<path fill-rule="evenodd" clip-rule="evenodd" d="M13.1802 5.05746C13.0795 5.09443 12.9325 5.171 12.8535 5.22759C12.7745 5.28418 12.658 5.40569 12.5946 5.49765C12.5313 5.58957 12.4615 5.70825 12.4396 5.76134C12.4177 5.81447 11.7303 7.98432 10.9121 10.5832C9.55105 14.906 9.42317 15.3333 9.41063 15.5997C9.39965 15.8328 9.41194 15.9321 9.47224 16.0983C9.51367 16.2124 9.61646 16.385 9.70063 16.4818C9.78483 16.5786 9.9305 16.7004 10.0244 16.7525C10.1182 16.8046 11.6207 17.328 13.3632 17.9156L16.5314 18.9841L16.8658 18.9835C17.1634 18.9831 17.221 18.9717 17.3888 18.8809C17.4924 18.8248 17.6447 18.7071 17.7271 18.6194C17.8095 18.5317 17.9054 18.3981 17.9401 18.3225C17.9748 18.2469 18.6769 16.0476 19.5003 13.4351L20.9975 8.68529L20.9998 8.35722C21.0018 8.05735 20.9921 8.00822 20.8861 7.78558C20.8175 7.64133 20.7118 7.4903 20.6269 7.41519C20.5481 7.34543 20.4172 7.25609 20.3361 7.21667C20.2549 7.17722 18.7637 6.66552 17.0223 6.07951C14.323 5.17122 13.8197 5.01233 13.6096 5.00214C13.4351 4.9937 13.3098 5.00982 13.1802 5.05746ZM8.39974 5.3336C8.3223 5.35892 8.20919 5.40642 8.1484 5.4392C8.08761 5.47196 7.96595 5.57312 7.87801 5.66403C7.79008 5.75494 7.67345 5.92332 7.61889 6.03821L7.51969 6.24706V11.4874V16.7278L7.61245 16.9323C7.66349 17.0448 7.76635 17.2068 7.84109 17.2923C7.91578 17.3778 8.03244 17.4837 8.10031 17.5276C8.16818 17.5715 8.30181 17.6347 8.39721 17.668C8.53157 17.7149 8.70223 17.7285 9.15405 17.7282L9.73741 17.7279L9.54468 17.6136C9.43865 17.5508 9.23272 17.3746 9.08706 17.2221C8.90144 17.0278 8.78274 16.8633 8.69047 16.6725C8.61803 16.5228 8.53485 16.3027 8.50566 16.1834C8.47645 16.0641 8.45254 15.8162 8.45254 15.6325C8.45254 15.3856 8.47497 15.2192 8.53854 14.9942C8.58585 14.8268 9.28169 12.6019 10.0849 10.05C10.888 7.49802 11.5559 5.38141 11.5691 5.34637C11.5917 5.28629 11.5066 5.28283 10.0668 5.28512C8.93946 5.28691 8.50376 5.29957 8.39974 5.3336ZM5.08756 6.71756C4.06061 7.0686 3.63111 7.2321 3.51051 7.31788C3.41934 7.38273 3.29163 7.51144 3.22671 7.60392C3.1618 7.69639 3.08119 7.86593 3.04757 7.98071C3.00374 8.13035 2.99178 8.25943 3.00522 8.43732C3.01994 8.63237 3.34298 9.69897 4.5188 13.4348C5.34098 16.0471 6.04825 18.2545 6.09049 18.3401C6.13277 18.4258 6.22951 18.5601 6.30547 18.6386C6.38147 18.7172 6.52735 18.8256 6.62965 18.8796C6.76912 18.9533 6.8843 18.982 7.09009 18.9948C7.34097 19.0104 7.40511 18.9983 7.83859 18.8547C8.09933 18.7683 8.30058 18.6869 8.28579 18.6738C8.27101 18.6608 8.1365 18.605 7.98682 18.5499C7.83718 18.4947 7.64709 18.4 7.5644 18.3394C7.48174 18.2788 7.34509 18.1616 7.26078 18.0789C7.17644 17.9963 7.04904 17.8468 6.97762 17.7468C6.90623 17.6467 6.80411 17.4626 6.75071 17.3377C6.69731 17.2128 6.63035 16.9953 6.60191 16.8544C6.55762 16.6347 6.5516 15.8583 6.55974 11.4135C6.56604 7.97325 6.55741 6.22992 6.53404 6.23203C6.51468 6.23378 5.86376 6.45227 5.08756 6.71756ZM14.5878 9.04873C14.6984 9.0785 14.8507 9.14324 14.9264 9.19262C15.0021 9.242 15.1189 9.34081 15.1859 9.41224C15.253 9.48364 15.3555 9.63591 15.4137 9.75054C15.4719 9.86517 15.5465 10.045 15.5795 10.15C15.6124 10.2551 15.6476 10.3411 15.6576 10.3411C15.6676 10.3411 15.7475 10.2758 15.8352 10.196C15.9229 10.1162 16.0837 10.0071 16.1926 9.95346C16.3355 9.88311 16.4653 9.85138 16.6591 9.83937C16.8556 9.82722 16.9782 9.83992 17.1167 9.88675C17.2207 9.92194 17.3723 9.99047 17.4535 10.0391C17.5347 10.0876 17.6622 10.1904 17.7367 10.2674C17.8113 10.3445 17.917 10.5021 17.9718 10.6177C18.0265 10.7334 18.0881 10.9396 18.1085 11.076C18.1356 11.2571 18.1344 11.3987 18.104 11.6009C18.0776 11.7765 18.0125 11.9859 17.926 12.1738C17.851 12.3367 17.7122 12.5677 17.6176 12.6871C17.523 12.8065 17.3349 13.0003 17.1997 13.1179C17.0644 13.2355 16.8171 13.4192 16.65 13.5261C16.4829 13.6331 16.1693 13.8042 15.9531 13.9063C15.7369 14.0084 15.3249 14.1723 15.0376 14.2706C14.7502 14.3689 14.4759 14.4543 14.428 14.4604C14.3551 14.4697 14.301 14.4183 14.0955 14.144C13.9605 13.9639 13.7632 13.6773 13.6572 13.5072C13.5511 13.337 13.3916 13.0586 13.3027 12.8885C13.2139 12.7184 13.0932 12.4564 13.0345 12.3062C12.9758 12.1561 12.8948 11.916 12.8545 11.7727C12.8142 11.6294 12.7679 11.3359 12.7517 11.1205C12.7305 10.8404 12.735 10.652 12.7675 10.4589C12.7924 10.3103 12.8674 10.0716 12.9341 9.92835C13.0008 9.78507 13.1141 9.59802 13.186 9.51268C13.2579 9.42735 13.3826 9.31104 13.4632 9.2542C13.5437 9.19732 13.6967 9.11653 13.8032 9.0746C13.911 9.03221 14.0834 8.99756 14.1919 8.99651C14.2991 8.99545 14.4773 9.01896 14.5878 9.04873Z" fill="#576081"/>
</svg>
