<svg width="16" height="15" viewBox="0 0 16 15" fill="none" xmlns="http://www.w3.org/2000/svg">
<path d="M13.6975 11H2.30515C1.91784 10.9985 1.54387 10.8491 1.25121 10.5791C0.958548 10.309 0.766602 9.93611 0.710218 9.52818L0.0112319 4.42206C-0.0193261 4.19485 0.0127853 3.96309 0.103699 3.75497C0.194613 3.54685 0.340405 3.37133 0.523303 3.2498C0.706202 3.12827 0.918339 3.06596 1.1339 3.07044C1.34946 3.07491 1.55914 3.14601 1.73745 3.27504L4.39051 5.21141C4.40481 5.22341 4.4225 5.22995 4.44071 5.22995C4.45893 5.22995 4.47661 5.22341 4.49092 5.21141L7.00109 0.610961C7.10319 0.425016 7.24925 0.270795 7.42473 0.163605C7.60021 0.0564156 7.799 0 8.00131 0C8.20363 0 8.40239 0.0564156 8.57787 0.163605C8.75335 0.270795 8.89941 0.425016 9.00151 0.610961L11.5117 5.21141C11.5256 5.22242 11.5426 5.22837 11.56 5.22837C11.5773 5.22837 11.5943 5.22242 11.6082 5.21141L14.2613 3.27093C14.4392 3.13993 14.6493 3.06724 14.8656 3.06183C15.0819 3.05642 15.295 3.11851 15.4785 3.24046C15.662 3.36242 15.808 3.53891 15.8985 3.74814C15.9889 3.95738 16.0199 4.19021 15.9875 4.41795L15.2924 9.54053C15.2327 9.94585 15.0395 10.3153 14.7472 10.5828C14.455 10.8502 14.0829 10.9981 13.6975 11ZM1.17362 4.34395L1.85716 9.35552C1.87295 9.46992 1.92692 9.57445 2.00919 9.64996C2.09146 9.72546 2.19653 9.76688 2.30515 9.76664H13.6975C13.8059 9.76603 13.9105 9.7243 13.9926 9.64895C14.0747 9.5736 14.1289 9.46957 14.1454 9.35552L14.8251 4.34806L12.2647 6.21866C12.0013 6.41076 11.6783 6.48719 11.3632 6.43205C11.0481 6.3769 10.7651 6.19445 10.5733 5.92266C10.5591 5.90308 10.5462 5.88247 10.5347 5.86099L7.99745 1.21121L5.47954 5.8651C5.46939 5.88654 5.45776 5.90713 5.44477 5.92675C5.25293 6.19854 4.96997 6.38102 4.65485 6.43616C4.33974 6.49131 4.0168 6.41487 3.75332 6.22277L1.17362 4.34395Z" fill="#57627D"/>
<path d="M13.2398 15H2.76395C2.29642 14.9992 1.84833 14.8445 1.51774 14.5697C1.18714 14.295 1.00098 13.9226 1 13.534V13.466C1.00098 13.0774 1.18714 12.705 1.51774 12.4303C1.84833 12.1555 2.29642 12.0008 2.76395 12H13.2398C13.707 12.0008 14.1547 12.1556 14.4847 12.4305C14.8147 12.7053 15 13.0777 15 13.466V13.534C15 13.9223 14.8147 14.2947 14.4847 14.5695C14.1547 14.8444 13.707 14.9992 13.2398 15ZM2.76395 13.1103C2.65045 13.1103 2.5416 13.1478 2.46134 13.2145C2.38108 13.2812 2.336 13.3716 2.336 13.466V13.534C2.336 13.6283 2.38108 13.7188 2.46134 13.7855C2.5416 13.8522 2.65045 13.8897 2.76395 13.8897H13.2398C13.353 13.8889 13.4613 13.8511 13.5413 13.7846C13.6214 13.7181 13.6668 13.6281 13.6677 13.534V13.466C13.6668 13.3719 13.6214 13.2819 13.5413 13.2154C13.4613 13.1488 13.353 13.1111 13.2398 13.1103H2.76395Z" fill="#57627D"/>
</svg>
