<svg width="52" height="48" viewBox="0 0 52 48" fill="none" xmlns="http://www.w3.org/2000/svg">
<path d="M12.2589 24.0659C12.8436 24.7973 13.1361 25.6169 13.1363 26.5245C13.1384 27.1845 12.9734 27.8345 12.6565 28.4156C12.2265 29.2225 11.5865 29.8342 10.7367 30.2506C9.98632 30.6164 9.1544 30.7992 8.24091 30.7989H0V22.3071H8.54286C8.78895 22.3093 9.03246 22.2576 9.25586 22.1558C9.55747 22.0046 9.70828 21.784 9.70828 21.494C9.70828 21.2039 9.55747 20.9896 9.25586 20.851C9.03242 20.7492 8.78893 20.6975 8.54286 20.6996H0L2.06977 17.1631H8.24042C9.16369 17.1631 10.0001 17.3522 10.7496 17.7305C11.5907 18.1593 12.2261 18.7834 12.6557 19.6027C12.9729 20.1973 13.1377 20.8596 13.1355 21.5316C13.136 22.4647 12.8438 23.3095 12.2589 24.0659ZM8.54286 25.8437H3.0715V27.281H8.54286C8.84974 27.283 9.15511 27.2383 9.44818 27.1484C9.86855 27.0226 10.0788 26.8271 10.079 26.5622C10.0791 26.2972 9.86887 26.1018 9.44818 25.976C9.15506 25.8863 8.84972 25.8417 8.54286 25.8437Z" fill="white"/>
<path d="M27.0542 27.3L25.0796 30.8177H20.1158C18.3969 30.8177 16.9731 30.1589 15.8443 28.8412C14.7155 27.5235 14.151 25.8688 14.1509 23.877C14.1509 21.8851 14.7085 20.2712 15.8238 19.0355C16.939 17.7998 18.3697 17.182 20.1158 17.1821H27.0542L25.0796 20.7186H20.1158C19.2745 20.7186 18.5798 21.0307 18.0315 21.655C17.4833 22.2792 17.209 23.0769 17.2087 24.0482C17.2087 25.0064 17.483 25.7881 18.0315 26.3932C18.5801 26.9982 19.2749 27.3008 20.1158 27.301L27.0542 27.3Z" fill="white"/>
<path d="M45.3579 30.8554H41.9984L40.6957 23.6501L37.9259 29.7964C37.56 30.5908 37.0572 30.988 36.4174 30.988C36.0884 30.988 35.7684 30.8745 35.4575 30.6475C35.1534 30.4287 34.9123 30.1353 34.7582 29.7964L31.9747 23.6501L30.6857 30.8554H27.3125L29.8768 18.7518C29.9771 18.2603 30.1896 17.8474 30.5144 17.5132C30.8392 17.179 31.2117 17.012 31.6319 17.012C32.2808 17.012 32.843 17.5415 33.3185 18.6007L36.3352 25.39L39.3656 18.6007C39.8319 17.5417 40.3896 17.0121 41.0385 17.012C41.4681 17.012 41.8429 17.179 42.1628 17.5132C42.4827 17.8474 42.6975 18.2603 42.8073 18.7518L45.3579 30.8554Z" fill="white"/>
<path d="M5.31619 15.0362C8.77306 7.52716 16.4395 2.30584 25.342 2.30584C37.4839 2.30584 47.3268 12.0186 47.3268 24C47.3268 35.9814 37.4839 45.6942 25.342 45.6942C16.4096 45.6942 8.72217 40.4373 5.28193 32.888C5.25355 32.9073 5.22467 32.9264 5.1958 32.9452C8.84598 41.6982 17.5369 48 27.6785 48C41.1116 48 52 37.2555 52 24C52 10.7445 41.1116 0 27.6785 0C17.5731 0 8.90911 6.25859 5.23568 14.964L5.31619 15.0362Z" fill="white"/>
</svg>
