<svg width="32" height="64" viewBox="0 0 32 64" fill="none" xmlns="http://www.w3.org/2000/svg">
<path d="M16 32C24.8366 32 32 24.8366 32 16C32 7.16344 24.8366 0 16 0C7.16344 0 0 7.16344 0 16C0 24.8366 7.16344 32 16 32Z" fill="#F7931A"/>
<path d="M23.1882 14.02C23.5022 11.924 21.9053 10.797 19.7233 10.045L20.4312 7.205L18.7032 6.775L18.0132 9.54C17.5592 9.426 17.0932 9.32 16.6282 9.214L17.3232 6.431L15.5952 6L14.8872 8.839C14.5112 8.753 14.1413 8.669 13.7833 8.579L13.7853 8.57L11.4013 7.975L10.9413 9.821C10.9413 9.821 12.2243 10.115 12.1972 10.133C12.8973 10.308 13.0233 10.771 13.0023 11.139L12.1962 14.374C12.2442 14.386 12.3063 14.404 12.3762 14.431L12.1933 14.386L11.0633 18.918C10.9773 19.13 10.7603 19.449 10.2703 19.328C10.2883 19.353 9.01425 19.015 9.01425 19.015L8.15625 20.993L10.4062 21.554C10.8242 21.659 11.2342 21.769 11.6372 21.872L10.9223 24.744L12.6492 25.174L13.3572 22.334C13.8292 22.461 14.2873 22.579 14.7352 22.691L14.0292 25.519L15.7573 25.949L16.4722 23.083C19.4202 23.641 21.6362 23.416 22.5692 20.75C23.3212 18.604 22.5322 17.365 20.9812 16.558C22.1112 16.298 22.9612 15.555 23.1882 14.02ZM19.2382 19.558C18.7052 21.705 15.0902 20.544 13.9182 20.253L14.8683 16.448C16.0403 16.741 19.7972 17.32 19.2382 19.558ZM19.7732 13.989C19.2863 15.942 16.2782 14.949 15.3032 14.706L16.1632 11.256C17.1382 11.499 20.2812 11.952 19.7732 13.989Z" fill="white"/>
<path d="M3.386 59C3.28333 59 3.19933 58.9673 3.134 58.902C3.06867 58.8367 3.036 58.7527 3.036 58.65V49.55C3.036 49.4473 3.06867 49.3633 3.134 49.298C3.19933 49.2327 3.28333 49.2 3.386 49.2H7.544C8.31867 49.2 8.95333 49.312 9.448 49.536C9.94267 49.76 10.3067 50.0773 10.54 50.488C10.7827 50.8987 10.904 51.3793 10.904 51.93C10.904 52.2753 10.8387 52.5787 10.708 52.84C10.5867 53.1013 10.4327 53.316 10.246 53.484C10.0687 53.652 9.896 53.778 9.728 53.862C10.092 54.03 10.4093 54.31 10.68 54.702C10.96 55.0847 11.1 55.542 11.1 56.074C11.1 56.662 10.9693 57.1753 10.708 57.614C10.4467 58.0527 10.0593 58.3933 9.546 58.636C9.03267 58.8787 8.40733 59 7.67 59H3.386ZM5.262 57.362H7.404C7.86133 57.362 8.20667 57.236 8.44 56.984C8.67333 56.7227 8.79 56.4147 8.79 56.06C8.79 55.696 8.66867 55.3927 8.426 55.15C8.19267 54.898 7.852 54.772 7.404 54.772H5.262V57.362ZM5.262 53.162H7.278C7.71667 53.162 8.04333 53.0547 8.258 52.84C8.482 52.616 8.594 52.3313 8.594 51.986C8.594 51.6407 8.482 51.3653 8.258 51.16C8.04333 50.9453 7.71667 50.838 7.278 50.838H5.262V53.162ZM15.1533 59C15.0507 59 14.9667 58.9673 14.9013 58.902C14.836 58.8367 14.8033 58.7527 14.8033 58.65V51.146H12.2553C12.162 51.146 12.0827 51.1133 12.0173 51.048C11.952 50.9827 11.9193 50.9033 11.9193 50.81V49.55C11.9193 49.4473 11.952 49.3633 12.0173 49.298C12.0827 49.2327 12.162 49.2 12.2553 49.2H19.5913C19.694 49.2 19.778 49.2327 19.8433 49.298C19.9087 49.3633 19.9413 49.4473 19.9413 49.55V50.81C19.9413 50.9033 19.9087 50.9827 19.8433 51.048C19.778 51.1133 19.694 51.146 19.5913 51.146H17.0573V58.65C17.0573 58.7527 17.0247 58.8367 16.9593 58.902C16.894 58.9673 16.81 59 16.7073 59H15.1533ZM25.0159 59.14C24.1386 59.14 23.3919 58.9953 22.7759 58.706C22.1692 58.4073 21.6979 57.978 21.3619 57.418C21.0259 56.8487 20.8392 56.158 20.8019 55.346C20.7926 54.9633 20.7879 54.5527 20.7879 54.114C20.7879 53.6753 20.7926 53.2553 20.8019 52.854C20.8392 52.0513 21.0259 51.37 21.3619 50.81C21.7072 50.2407 22.1879 49.8067 22.8039 49.508C23.4199 49.2093 24.1572 49.06 25.0159 49.06C25.6412 49.06 26.2106 49.1393 26.7239 49.298C27.2372 49.4567 27.6806 49.6853 28.0539 49.984C28.4272 50.2827 28.7166 50.6327 28.9219 51.034C29.1272 51.4353 29.2392 51.8833 29.2579 52.378C29.2579 52.462 29.2252 52.532 29.1599 52.588C29.1039 52.644 29.0339 52.672 28.9499 52.672H27.3539C27.2419 52.672 27.1532 52.644 27.0879 52.588C27.0226 52.532 26.9712 52.4387 26.9339 52.308C26.7939 51.7573 26.5606 51.3793 26.2339 51.174C25.9072 50.9687 25.5012 50.866 25.0159 50.866C24.4372 50.866 23.9799 51.0247 23.6439 51.342C23.3079 51.6593 23.1259 52.1867 23.0979 52.924C23.0699 53.6893 23.0699 54.4733 23.0979 55.276C23.1259 56.0133 23.3079 56.5407 23.6439 56.858C23.9799 57.1753 24.4372 57.334 25.0159 57.334C25.5012 57.334 25.9072 57.2313 26.2339 57.026C26.5699 56.8113 26.8032 56.4333 26.9339 55.892C26.9712 55.752 27.0226 55.6587 27.0879 55.612C27.1532 55.556 27.2419 55.528 27.3539 55.528H28.9499C29.0339 55.528 29.1039 55.556 29.1599 55.612C29.2252 55.668 29.2579 55.738 29.2579 55.822C29.2392 56.3167 29.1272 56.7647 28.9219 57.166C28.7166 57.5673 28.4272 57.9173 28.0539 58.216C27.6806 58.5147 27.2372 58.7433 26.7239 58.902C26.2106 59.0607 25.6412 59.14 25.0159 59.14Z" fill="#7881A1"/>
</svg>
