<svg width="32" height="64" viewBox="0 0 32 64" fill="none" xmlns="http://www.w3.org/2000/svg">
<g clip-path="url(#clip0_35_126)">
<path d="M16 32C24.8366 32 32 24.8366 32 16C32 7.16344 24.8366 0 16 0C7.16344 0 0 7.16344 0 16C0 24.8366 7.16344 32 16 32Z" fill="#627EEA"/>
<path d="M15.6108 3.65771V12.6054L22.9925 15.9847L15.6108 3.65771Z" fill="white" fill-opacity="0.602"/>
<path d="M15.6092 3.6626L8.22656 15.9896L15.6092 12.6103V3.6626Z" fill="white"/>
<path d="M15.6108 21.7854V27.8652L22.9974 17.3953L15.6108 21.7854Z" fill="white" fill-opacity="0.602"/>
<path d="M15.6092 27.8652V21.7844L8.22656 17.3953L15.6092 27.8652Z" fill="white"/>
<path d="M15.6108 20.3763L22.9925 15.9852L15.6108 12.6079V20.3763Z" fill="white" fill-opacity="0.2"/>
<path d="M8.22656 15.9835L15.6092 20.3746V12.6062L8.22656 15.9835Z" fill="white" fill-opacity="0.602"/>
</g>
<path d="M3.386 59C3.28333 59 3.19933 58.9673 3.134 58.902C3.06867 58.8367 3.036 58.7527 3.036 58.65V49.55C3.036 49.4473 3.06867 49.3633 3.134 49.298C3.19933 49.2327 3.28333 49.2 3.386 49.2H9.728C9.83067 49.2 9.91467 49.2327 9.98 49.298C10.0453 49.3633 10.078 49.4473 10.078 49.55V50.67C10.078 50.7633 10.0453 50.8427 9.98 50.908C9.91467 50.9733 9.83067 51.006 9.728 51.006H5.192V53.204H9.42C9.52267 53.204 9.60667 53.2367 9.672 53.302C9.73733 53.3673 9.77 53.4513 9.77 53.554V54.59C9.77 54.6833 9.73733 54.7627 9.672 54.828C9.60667 54.8933 9.52267 54.926 9.42 54.926H5.192V57.194H9.84C9.94267 57.194 10.0267 57.2267 10.092 57.292C10.1573 57.3573 10.19 57.4413 10.19 57.544V58.65C10.19 58.7527 10.1573 58.8367 10.092 58.902C10.0267 58.9673 9.94267 59 9.84 59H3.386ZM14.3604 59C14.2577 59 14.1737 58.9673 14.1084 58.902C14.043 58.8367 14.0104 58.7527 14.0104 58.65V51.146H11.4624C11.369 51.146 11.2897 51.1133 11.2244 51.048C11.159 50.9827 11.1264 50.9033 11.1264 50.81V49.55C11.1264 49.4473 11.159 49.3633 11.2244 49.298C11.2897 49.2327 11.369 49.2 11.4624 49.2H18.7984C18.901 49.2 18.985 49.2327 19.0504 49.298C19.1157 49.3633 19.1484 49.4473 19.1484 49.55V50.81C19.1484 50.9033 19.1157 50.9827 19.0504 51.048C18.985 51.1133 18.901 51.146 18.7984 51.146H16.2644V58.65C16.2644 58.7527 16.2317 58.8367 16.1664 58.902C16.101 58.9673 16.017 59 15.9144 59H14.3604ZM20.845 59C20.7423 59 20.6583 58.9673 20.593 58.902C20.5277 58.8367 20.495 58.7527 20.495 58.65V49.55C20.495 49.4473 20.5277 49.3633 20.593 49.298C20.6583 49.2327 20.7423 49.2 20.845 49.2H22.371C22.4737 49.2 22.5577 49.2327 22.623 49.298C22.6883 49.3633 22.721 49.4473 22.721 49.55V53.05H26.515V49.55C26.515 49.4473 26.5477 49.3633 26.613 49.298C26.6783 49.2327 26.7623 49.2 26.865 49.2H28.391C28.4937 49.2 28.5777 49.2327 28.643 49.298C28.7083 49.3633 28.741 49.4473 28.741 49.55V58.65C28.741 58.7527 28.7083 58.8367 28.643 58.902C28.5777 58.9673 28.4937 59 28.391 59H26.865C26.7623 59 26.6783 58.9673 26.613 58.902C26.5477 58.8367 26.515 58.7527 26.515 58.65V55.038H22.721V58.65C22.721 58.7527 22.6883 58.8367 22.623 58.902C22.5577 58.9673 22.4737 59 22.371 59H20.845Z" fill="#7881A1"/>
<defs>
<clipPath id="clip0_35_126">
<rect width="32" height="32" fill="white"/>
</clipPath>
</defs>
</svg>
