<svg width="96" height="20" viewBox="0 0 96 20" fill="none" xmlns="http://www.w3.org/2000/svg">
<path fill-rule="evenodd" clip-rule="evenodd" d="M7.6114 19.7038C12.9835 21.0323 18.4183 17.7666 19.7505 12.4095C21.0803 7.06273 17.8208 1.65142 12.4631 0.310569C12.4556 0.308506 12.4479 0.3066 12.4403 0.304719L12.4358 0.303599C7.06393 -1.02489 1.62913 2.24101 0.296984 7.59835C-1.03516 12.9555 2.23951 18.3755 7.6114 19.7038ZM9.64762 9.05625C10.4009 9.25744 12.0117 9.68769 12.2971 8.54951H12.2876C12.5783 7.38455 10.9849 7.03612 10.22 6.86884C10.1359 6.85046 10.0619 6.83427 10.0014 6.81943L9.45351 9.00553C9.50868 9.01914 9.57406 9.0366 9.64762 9.05625ZM8.78859 12.5779C9.68612 12.8144 11.6455 13.3307 11.9557 12.0821C12.2732 10.8065 10.3837 10.3814 9.45408 10.1722C9.34787 10.1483 9.25418 10.1272 9.17774 10.108L8.57345 12.5222C8.63518 12.5374 8.70756 12.5565 8.78859 12.5779ZM12.2689 6.04815C13.6436 6.52283 14.6583 7.23789 14.461 8.5684L14.4608 8.56908C14.3075 9.556 13.7749 10.0152 13.0547 10.1807C14.0412 10.6929 14.5453 11.4768 14.0662 12.8385C13.4712 14.5311 12.065 14.6721 10.1861 14.3188L9.73198 16.1364L8.63275 15.8647L9.07741 14.0564C8.79149 13.9876 8.49994 13.9127 8.20366 13.8315L7.7527 15.6336L6.65347 15.3588L7.10759 13.5381L6.32472 13.335L4.89358 12.982L5.43857 11.7327C5.43857 11.7327 6.24039 11.9449 6.24039 11.9294H6.24061C6.45189 11.9964 6.67737 11.8806 6.74457 11.6701L7.46183 8.79371L7.57772 8.82497C7.54142 8.80856 7.50354 8.79619 7.46498 8.78742L7.97863 6.73555C8.00276 6.42389 7.77592 6.14844 7.46498 6.11089C7.48054 6.09829 6.66632 5.91098 6.66632 5.91098L6.95765 4.73968L8.47649 5.11767L9.17797 5.27372L9.62893 3.47168L10.7282 3.74646L10.2898 5.5204C10.5843 5.58606 10.8817 5.65487 11.1699 5.7266L11.6082 3.97132L12.7198 4.2461L12.2689 6.04815Z" fill="#576081"/>
<path d="M26.0922 16.8644C26.6776 16.8662 27.2535 16.7176 27.7646 16.4334C28.2907 16.1536 28.7534 15.7684 29.1238 15.3028C29.5099 14.8103 29.8134 14.2587 30.0226 13.6694C30.2434 13.0604 30.3554 12.418 30.3545 11.7706C30.3897 11.1138 30.249 10.4595 29.9473 9.87482C29.6781 9.42194 29.1768 9.19101 28.4503 9.19101C28.1338 9.2018 27.819 9.24475 27.5107 9.31896C27.1281 9.40418 26.7741 9.58722 26.4835 9.84986L24.8237 16.7707L25.09 16.8206C25.1691 16.8399 25.2501 16.8525 25.331 16.8581C25.435 16.8709 25.5396 16.8761 25.6442 16.8736L26.092 16.8642L26.0922 16.8644ZM29.3899 6.04609C30.1148 6.02945 30.8346 6.17696 31.4943 6.47715C32.0671 6.74946 32.5703 7.14769 32.9663 7.64216C33.3717 8.1535 33.6698 8.74061 33.8432 9.3691C34.033 10.0621 34.1266 10.7776 34.1219 11.4961C34.121 13.7312 33.2522 15.8789 31.698 17.4893C30.9444 18.2601 30.0479 18.8772 29.058 19.3069C28.0201 19.7624 26.8974 19.9947 25.7635 19.9878H24.9617C24.5258 19.9736 24.0906 19.9363 23.6588 19.8753C23.1314 19.7991 22.6088 19.695 22.0931 19.563C21.5524 19.435 21.0275 19.2486 20.5273 19.0071L24.9274 0.624667L28.8578 0L27.292 6.52415C27.6181 6.37709 27.9565 6.25903 28.3035 6.17134C28.6612 6.08454 29.0285 6.04137 29.3965 6.04339L29.3901 6.04654L29.3899 6.04609Z" fill="#576081"/>
<path d="M40.0077 4.70599C39.4954 4.71094 38.9959 4.54724 38.5858 4.24075C38.151 3.89784 37.9161 3.36154 37.9594 2.8104C37.9576 2.46659 38.0311 2.12637 38.1754 1.81404C38.3136 1.5098 38.5078 1.23434 38.7486 1.00206C38.9892 0.774051 39.2679 0.590114 39.5723 0.45857C39.8888 0.322978 40.23 0.253945 40.5743 0.255519C41.083 0.253945 41.5777 0.418544 41.9836 0.723907C42.4174 1.0675 42.6521 1.60334 42.61 2.15425C42.6127 2.49897 42.5401 2.84008 42.3971 3.15354C42.2589 3.45621 42.0656 3.73031 41.8271 3.96237C41.5872 4.19128 41.3085 4.37522 41.0034 4.50586C40.6868 4.64145 40.3457 4.70959 40.0014 4.70576H40.0077V4.70599ZM38.1819 19.6314H34.4238L37.5993 6.3268H41.3793L38.1817 19.6314H38.1819Z" fill="#576081"/>
<path d="M44.6671 3.01276L48.5973 2.40698L47.6202 6.32655H51.8295L51.0712 9.41211H46.8967L45.7819 14.053C45.6854 14.4083 45.6256 14.7726 45.6033 15.1402C45.5803 15.4375 45.6245 15.7361 45.7316 16.0143C45.8364 16.2639 46.0306 16.4656 46.2766 16.5796C46.6306 16.7356 47.0171 16.8067 47.404 16.7858C47.8004 16.7871 48.1959 16.7482 48.5846 16.6702C48.9758 16.594 49.3612 16.4896 49.7371 16.3579L50.0189 19.2435C49.4793 19.4369 48.928 19.5968 48.3684 19.7214C47.6768 19.8677 46.9708 19.9359 46.264 19.9244C45.0957 19.9244 44.1938 19.7495 43.5487 19.4059C42.9453 19.0998 42.4619 18.6006 42.1771 17.9879C41.8991 17.3378 41.7778 16.6318 41.8233 15.9266C41.8655 15.0993 41.9839 14.2777 42.1771 13.4718L44.6669 3.00017V3.01276H44.6671Z" fill="#576081"/>
<path d="M51.6923 14.3194C51.6844 13.2158 51.8729 12.1189 52.2496 11.0809C52.603 10.0994 53.1457 9.19657 53.8467 8.42327C54.5536 7.65626 55.4132 7.04576 56.3708 6.63022C57.4152 6.1805 58.5433 5.95586 59.6809 5.9716C60.3677 5.9635 61.0531 6.03568 61.7228 6.18679C62.2859 6.31991 62.8336 6.51037 63.3576 6.75524L62.0518 9.6816C61.7136 9.54421 61.3627 9.42593 60.9995 9.3162C60.5663 9.1959 60.1178 9.14013 59.6685 9.1507C58.5329 9.10977 57.4407 9.5885 56.7027 10.45C55.9699 11.3096 55.6021 12.4652 55.6003 13.9166C55.5658 14.6528 55.7606 15.3814 56.1577 16.0031C56.5291 16.534 57.2143 16.7992 58.2121 16.7992C58.6903 16.7996 59.167 16.7483 59.634 16.6462C60.0504 16.5577 60.4586 16.4313 60.8522 16.2683L61.1309 19.2792C60.6186 19.4725 60.096 19.6374 59.5652 19.7723C58.8912 19.9238 58.2017 19.9953 57.5108 19.985C56.5938 20.0115 55.681 19.8575 54.8238 19.5319C54.1423 19.258 53.5288 18.8393 53.0262 18.3048C52.5493 17.7867 52.1969 17.167 51.996 16.4931C51.7834 15.7839 51.6778 15.047 51.6828 14.307L51.6923 14.3196V14.3194Z" fill="#576081"/>
<path d="M70.2376 9.16175C69.7077 9.15433 69.1897 9.3223 68.7656 9.63958C68.3356 9.97148 67.9749 10.3845 67.7041 10.8545C67.4062 11.3548 67.1825 11.8958 67.0402 12.4603C66.9025 13.0013 66.8308 13.5567 66.8274 14.115C66.7936 14.7966 66.9327 15.4752 67.2314 16.0888C67.5041 16.5604 67.9924 16.7978 68.7034 16.7978C69.2342 16.8068 69.7528 16.6375 70.1753 16.3169C70.6062 15.985 70.9677 15.5719 71.2401 15.1024C71.5336 14.6014 71.7519 14.0606 71.8885 13.4966C72.0247 12.9545 72.0964 12.3977 72.1012 11.8383C72.1364 11.1572 71.9968 10.4779 71.6971 9.86444C71.4247 9.39605 70.933 9.1586 70.2252 9.1586L70.2378 9.16175H70.2376ZM68.3586 19.9864C67.5606 20.0048 66.7672 19.8668 66.0224 19.5803C65.3958 19.3338 64.8361 18.9448 64.3877 18.4434C63.9466 17.9383 63.6145 17.3485 63.4106 16.7101C63.1892 15.9944 63.0832 15.2479 63.0975 14.4991C63.0999 13.4679 63.2657 12.4432 63.5895 11.4634C63.9036 10.4774 64.394 9.55616 65.0359 8.74328C65.6808 7.93063 66.4828 7.25514 67.394 6.75707C68.3749 6.23112 69.4748 5.96533 70.5884 5.98557C71.3817 5.97118 72.1709 6.10925 72.9122 6.39167C73.5395 6.63407 74.1023 7.01791 74.5562 7.51284C74.9946 8.01922 75.326 8.60881 75.5303 9.24607C75.7533 9.96248 75.8591 10.7101 75.8435 11.4603C75.8403 12.4906 75.6787 13.5146 75.3644 14.4959C75.0557 15.4833 74.5743 16.4082 73.9425 17.2287C73.3071 18.0447 72.5082 18.7202 71.5968 19.212C70.6008 19.7406 69.4867 20.0073 68.3586 19.9864V19.9864Z" fill="#576081"/>
<path d="M81.7753 4.70605C81.2639 4.71145 80.7649 4.54775 80.3568 4.24081C79.9218 3.8979 79.6869 3.3616 79.7304 2.81047C79.7286 2.46665 79.8021 2.12644 79.9462 1.8141C80.0806 1.51144 80.2693 1.23643 80.5036 1.00212C80.7457 0.774789 81.0253 0.590852 81.3304 0.458633C81.6461 0.323266 81.9861 0.254234 82.3297 0.255583C82.842 0.251085 83.3424 0.416134 83.7516 0.72397C84.1855 1.06756 84.42 1.60341 84.378 2.15432C84.3787 2.49948 84.3038 2.8406 84.1584 3.1536C84.0227 3.45649 83.8301 3.73105 83.5918 3.96243C83.3519 4.19134 83.0732 4.37528 82.7681 4.50593C82.4542 4.64017 82.1164 4.7083 81.7751 4.70583L81.7753 4.70605ZM79.9529 19.6315H76.1948L79.3642 6.32686H83.1473L79.9529 19.6315Z" fill="#576081"/>
<path d="M85.8556 6.93235C86.1406 6.85117 86.457 6.75111 86.7952 6.64205C87.1334 6.53277 87.528 6.4327 87.963 6.32972C88.4403 6.22875 88.9222 6.15275 89.407 6.10171C90.0092 6.0383 90.6146 6.00794 91.2203 6.01109C93.1996 6.01109 94.5649 6.58449 95.3166 7.73196C95.7667 8.41913 95.9944 9.25742 95.9998 10.247V10.3183C95.9965 10.9619 95.9002 11.6686 95.7112 12.4383L93.9856 19.6213H90.2151L91.8904 12.5879C91.9905 12.1509 92.0722 11.7262 92.1317 11.3109C92.1969 10.9513 92.1969 10.5832 92.1317 10.2241C92.0695 9.92391 91.9031 9.65543 91.662 9.46519C91.3278 9.24663 90.9301 9.14454 90.5314 9.17467C90.0295 9.17557 89.5289 9.22684 89.0376 9.3278L86.576 19.6339H82.7832L85.8556 6.93235V6.93235Z" fill="#576081"/>
</svg>
