<svg width="124" height="32" viewBox="0 0 124 32" fill="none" xmlns="http://www.w3.org/2000/svg">
<path d="M23.9159 31.9998C32.7555 32.0417 40.8238 24.8671 40.8238 16.139C40.8238 6.59425 32.7555 -0.00317344 23.9159 1.14517e-06H16.3085C7.363 -0.00317344 0 6.59622 0 16.139C0 24.869 7.363 32.0417 16.3085 31.9998H23.9159Z" fill="#576081"/>
<path d="M16.3447 1.32251C8.17059 1.32505 1.54685 7.88057 1.54492 15.9714C1.54685 24.0608 8.17053 30.6157 16.3447 30.6182C24.5208 30.6157 31.1459 24.0608 31.147 15.9714C31.1458 7.88057 24.5208 1.32505 16.3447 1.32251ZM6.96353 15.9714C6.97123 12.0178 9.46685 8.64634 12.986 7.3066V24.6341C9.46685 23.2951 6.97117 19.9256 6.96353 15.9714ZM19.7021 24.6379V7.30603C23.2226 8.64253 25.722 12.0158 25.7285 15.9714C25.722 19.9281 23.2226 23.2989 19.7021 24.6379Z" fill="white"/>
<path d="M46.008 6.88453C46.008 5.37082 45.2103 5.4705 44.4454 5.45406V5.0166C45.1083 5.04898 45.7878 5.04898 46.4521 5.04898C47.1663 5.04898 48.1359 5.0166 49.3949 5.0166C53.7983 5.0166 56.1964 7.92706 56.1964 10.9073C56.1964 12.574 55.2108 16.7638 49.1902 16.7638C48.3232 16.7638 47.523 16.7307 46.7241 16.7307C45.9592 16.7307 45.2103 16.7473 44.4453 16.7638V16.3269C45.4651 16.2253 45.9592 16.1917 46.0079 15.047L46.008 6.88453ZM47.6752 14.7784C47.6752 16.0743 48.6114 16.2254 49.4444 16.2254C53.1188 16.2254 54.3252 13.4819 54.3252 10.974C54.3252 7.82795 52.2839 5.55622 49.0023 5.55622C48.3041 5.55622 47.9833 5.60574 47.6752 5.62358L47.6752 14.7784Z" fill="#576081"/>
<path d="M56.793 16.3269H57.1151C57.5906 16.3269 57.9314 16.3269 57.9314 15.77V11.2101C57.9314 10.4705 57.6766 10.3676 57.0472 10.033V9.76312C57.8461 9.52566 58.7997 9.2082 58.8664 9.15741C58.9864 9.09011 59.0878 9.07233 59.1731 9.07233C59.2573 9.07233 59.2925 9.17391 59.2925 9.30915V15.77C59.2925 16.3269 59.6666 16.3269 60.1428 16.3269H60.4315V16.7643C59.8527 16.7643 59.2572 16.7308 58.6463 16.7308C58.0341 16.7308 57.4213 16.7473 56.793 16.7643V16.3269H56.793ZM58.6122 6.48117C58.1695 6.48117 57.7793 6.07742 57.7793 5.6399C57.7793 5.21832 58.1875 4.83038 58.6122 4.83038C59.0531 4.83038 59.4458 5.18537 59.4458 5.6399C59.4458 6.0945 59.0705 6.48117 58.6122 6.48117Z" fill="#576081"/>
<path d="M62.0473 11.3104C62.0473 10.6882 61.8592 10.5206 61.0616 10.2006V9.88127C61.7925 9.64572 62.4888 9.42667 63.3056 9.07239C63.3564 9.07239 63.4064 9.10668 63.4064 9.24064V10.3352C64.3773 9.64572 65.2109 9.07233 66.3518 9.07233C67.7957 9.07233 68.3058 10.1161 68.3058 11.4284V15.7701C68.3058 16.3269 68.6799 16.3269 69.1567 16.3269H69.4628V16.7643C68.866 16.7643 68.2712 16.7308 67.6603 16.7308C67.0474 16.7308 66.4345 16.7473 65.823 16.7643V16.3269H66.1284C66.6058 16.3269 66.9441 16.3269 66.9441 15.7701V11.4126C66.9441 10.4519 66.3518 9.98146 65.3808 9.98146C64.8374 9.98146 63.9697 10.419 63.4063 10.7897V15.7699C63.4063 16.3268 63.7823 16.3268 64.2592 16.3268H64.5647V16.7643C63.9697 16.7643 63.3736 16.7306 62.7614 16.7306C62.1498 16.7306 61.5364 16.7472 60.9248 16.7643V16.3268H61.2315C61.7077 16.3268 62.0472 16.3268 62.0472 15.7699V11.3104H62.0473Z" fill="#576081"/>
<path d="M70.7557 12.1193C70.7204 12.2711 70.7204 12.5231 70.7557 13.0958C70.8559 14.6939 71.8961 16.0063 73.2545 16.0063C74.1907 16.0063 74.9236 15.5016 75.5519 14.8793L75.7892 15.1155C75.0064 16.1416 74.0373 17.0164 72.6436 17.0164C69.9388 17.0164 69.3945 14.424 69.3945 13.3479C69.3945 10.0488 71.6392 9.07233 72.829 9.07233C74.2074 9.07233 75.6879 9.93016 75.7039 11.7142C75.7039 11.8164 75.7039 11.9161 75.6879 12.0183L75.5338 12.1193H70.7557ZM73.7666 11.5803C74.1908 11.5803 74.2409 11.3613 74.2409 11.16C74.2409 10.3015 73.714 9.61137 72.7611 9.61137C71.7247 9.61137 71.0104 10.3676 70.8064 11.5803H73.7666Z" fill="#576081"/>
<path d="M76.0957 16.327H76.5552C77.0299 16.327 77.3701 16.327 77.3701 15.7701V11.0418C77.3701 10.5206 76.7419 10.419 76.4859 10.2844V10.033C77.7276 9.51042 78.4084 9.07233 78.563 9.07233C78.6638 9.07233 78.7138 9.12312 78.7138 9.29201V10.8063H78.7498C79.1739 10.1504 79.8895 9.07233 80.9259 9.07233C81.3512 9.07233 81.8948 9.35804 81.8948 9.96439C81.8948 10.419 81.5727 10.8241 81.0966 10.8241C80.5672 10.8241 80.5672 10.419 79.973 10.419C79.6836 10.419 78.7319 10.8063 78.7319 11.8164V15.7701C78.7319 16.3269 79.0713 16.3269 79.5481 16.3269H80.4998V16.7644C79.5642 16.7472 78.8525 16.7308 78.1197 16.7308C77.4228 16.7308 76.7079 16.7473 76.0958 16.7644L76.0957 16.327Z" fill="#576081"/>
<path d="M82.6437 14.424C82.8652 15.5351 83.5447 16.478 84.787 16.478C85.7881 16.478 86.1628 15.8723 86.1628 15.2831C86.1628 13.2971 82.4563 13.9364 82.4563 11.2272C82.4563 10.2844 83.2224 9.07233 85.0924 9.07233C85.636 9.07233 86.3668 9.22471 87.0297 9.56185L87.1504 11.2768H86.7584C86.5889 10.2177 85.9941 9.61143 84.9044 9.61143C84.2242 9.61143 83.5786 9.9988 83.5786 10.7219C83.5786 12.6927 87.5239 12.0851 87.5239 14.727C87.5239 15.8374 86.6222 17.0165 84.5983 17.0165C83.9181 17.0165 83.1191 16.7809 82.5243 16.445L82.3369 14.5092L82.6437 14.424Z" fill="#576081"/>
<path d="M102.88 8.06291H102.456C102.133 6.09467 100.721 5.30292 98.8171 5.30292C96.8599 5.30292 94.0197 6.59809 94.0197 10.6369C94.0197 14.0387 96.4703 16.478 99.0886 16.478C100.772 16.478 102.167 15.3339 102.508 13.5664L102.898 13.6667L102.508 16.1238C101.793 16.5625 99.8714 17.0165 98.7478 17.0165C94.7691 17.0165 92.2529 14.475 92.2529 10.6883C92.2529 7.23815 95.3646 4.76324 98.6976 4.76324C100.075 4.76324 101.401 5.20261 102.711 5.65721L102.88 8.06291Z" fill="#576081"/>
<path d="M103.494 16.327H103.816C104.293 16.327 104.635 16.327 104.635 15.7702V6.39757C104.635 5.30297 104.379 5.26926 103.732 5.0845V4.81529C104.412 4.59694 105.127 4.29339 105.484 4.09092C105.67 3.9906 105.807 3.90546 105.857 3.90546C105.961 3.90546 105.995 4.00711 105.995 4.14228V15.7702C105.995 16.327 106.368 16.327 106.845 16.327H107.132V16.7645C106.556 16.7645 105.961 16.7308 105.348 16.7308C104.737 16.7308 104.124 16.7474 103.494 16.7645V16.327H103.494Z" fill="#576081"/>
<path d="M114.414 15.8374C114.414 16.1415 114.6 16.158 114.889 16.158C115.093 16.158 115.348 16.1415 115.57 16.1415V16.4958C114.837 16.5625 113.443 16.9161 113.119 17.0164L113.034 16.9656V15.6038C112.015 16.4278 111.232 17.0164 110.023 17.0164C109.105 17.0164 108.153 16.4278 108.153 15.0151V10.7053C108.153 10.2678 108.085 9.84683 107.134 9.76309V9.44309C107.747 9.42658 109.105 9.32556 109.327 9.32556C109.516 9.32556 109.516 9.44309 109.516 9.81324V14.1541C109.516 14.6602 109.516 16.1071 110.994 16.1071C111.572 16.1071 112.337 15.6697 113.051 15.0824V10.5529C113.051 10.2176 112.235 10.0329 111.624 9.86391V9.56105C113.153 9.45947 114.107 9.3255 114.276 9.3255C114.414 9.3255 114.414 9.44296 114.414 9.62899L114.414 15.8374Z" fill="#576081"/>
<path d="M117.798 10.2845C118.478 9.71241 119.396 9.07248 120.332 9.07248C122.305 9.07248 123.494 10.7741 123.494 12.607C123.494 14.8115 121.863 17.0165 119.429 17.0165C118.171 17.0165 117.508 16.6121 117.066 16.4279L116.556 16.8139L116.2 16.6298C116.351 15.6368 116.437 14.6603 116.437 13.6343V6.39751C116.437 5.30297 116.181 5.26926 115.535 5.0845V4.81529C116.217 4.59694 116.93 4.29339 117.287 4.09085C117.474 3.99054 117.61 3.90546 117.662 3.90546C117.764 3.90546 117.798 4.00711 117.798 4.14228V10.2845H117.798V10.2845ZM117.798 14.8616C117.798 15.5016 118.41 16.5797 119.549 16.5797C121.369 16.5797 122.134 14.8115 122.134 13.3131C122.134 11.496 120.741 9.98174 119.414 9.98174C118.783 9.98174 118.257 10.3862 117.798 10.7741L117.798 14.8616Z" fill="#576081"/>
<path d="M44.4258 26.5491H44.556C44.8885 26.5491 45.2401 26.5048 45.2401 26.0279V21.2304C45.2401 20.7529 44.8885 20.7079 44.556 20.7079H44.4258V20.433C44.7871 20.433 45.3421 20.4692 45.7971 20.4692C46.2592 20.4692 46.8136 20.433 47.2487 20.433V20.7079H47.1184C46.7866 20.7079 46.4344 20.753 46.4344 21.2304V26.0279C46.4344 26.5048 46.7866 26.5491 47.1184 26.5491H47.2487V26.8254C46.8046 26.8254 46.2482 26.7892 45.7868 26.7892C45.3332 26.7892 44.7871 26.8254 44.4258 26.8254V26.5491Z" fill="#576081"/>
<path d="M47.2488 26.8642C46.8016 26.8642 46.2472 26.8273 45.7864 26.8273C45.334 26.8273 44.7899 26.8642 44.4259 26.8642H44.3862V26.8248V26.5499V26.5099H44.4259H44.5556C44.8912 26.5023 45.1967 26.4756 45.1999 26.028V21.2305C45.1967 20.7829 44.8913 20.753 44.5556 20.7467H44.3862V20.708V20.3924H44.4259C44.7899 20.3924 45.3443 20.4286 45.7966 20.4286C46.2574 20.4286 46.8113 20.3924 47.2488 20.3924H47.29V20.4343V20.7467H47.2488H47.1192C46.7836 20.753 46.4762 20.7829 46.4743 21.2305V26.028C46.4762 26.4756 46.7835 26.5023 47.1192 26.5099H47.2899V26.5499V26.8642H47.2488ZM47.2091 26.786V26.5905H47.1193C46.7888 26.5905 46.3954 26.5339 46.3934 26.028V21.2305C46.3954 20.7245 46.7887 20.6673 47.1193 20.6673H47.2091V20.473C46.7817 20.473 46.2458 20.5086 45.7966 20.5086C45.3571 20.5086 44.8251 20.4756 44.467 20.473V20.6673H44.5556C44.8854 20.6673 45.2801 20.7245 45.2801 21.2305V26.028C45.2801 26.534 44.8854 26.5905 44.5556 26.5905H44.467V26.786C44.8251 26.7822 45.348 26.7492 45.7864 26.7492C46.2369 26.7492 46.7727 26.7835 47.2091 26.786Z" fill="#576081"/>
<path d="M53.6061 25.0203L53.6246 25.0025V21.5689C53.6246 20.8172 53.0966 20.708 52.8194 20.708H52.6152V20.433C53.0509 20.433 53.4764 20.4692 53.9108 20.4692C54.29 20.4692 54.6713 20.433 55.0499 20.433V20.708H54.9113C54.5218 20.708 54.0867 20.7809 54.0867 21.8705V26.0381C54.0867 26.3582 54.0962 26.6781 54.1418 26.962H53.7896L49.0248 21.7055V25.4788C49.0248 26.2756 49.1808 26.5493 49.8944 26.5493H50.0509V26.8255C49.6537 26.8255 49.2564 26.7893 48.8579 26.7893C48.4428 26.7893 48.0167 26.8255 47.5996 26.8255V26.5493H47.7292C48.3677 26.5493 48.5616 26.12 48.5616 25.388V21.5309C48.5616 21.0185 48.1349 20.708 47.7203 20.708H47.5997V20.4331C47.9513 20.4331 48.312 20.4692 48.663 20.4692C48.9408 20.4692 49.2097 20.4331 49.4869 20.4331L53.6061 25.0203Z" fill="#576081"/>
<path d="M54.142 27.0018L53.7603 26.9877L49.0642 21.8088V25.4786C49.0751 26.2748 49.1977 26.5009 49.8946 26.5097H50.0928V26.5491V26.864H50.0518C49.6513 26.864 49.2528 26.8272 48.8581 26.8272C48.4436 26.8272 48.0188 26.864 47.5991 26.864H47.5587V26.8246V26.5097H47.5991H47.7293C48.3409 26.5065 48.5154 26.118 48.5225 25.3878V21.5313C48.5212 21.0437 48.1169 20.7478 47.7204 20.7466H47.5586V20.7059V20.3936H47.599C47.9527 20.3936 48.3152 20.4285 48.6623 20.4285C48.9376 20.4285 49.2059 20.3936 49.5177 20.4069L53.5849 24.9371V21.5695C53.5798 20.8406 53.0889 20.753 52.8193 20.7466H52.5742V20.7059V20.3936H52.6153C53.0523 20.3936 53.4784 20.4285 53.9109 20.4285C54.2876 20.4285 54.6668 20.3936 55.0493 20.3936H55.0897V20.4329V20.7465H55.0493H54.9113C54.5295 20.7574 54.1374 20.7903 54.1266 21.8703V26.0373C54.1266 26.3573 54.1361 26.6773 54.1811 26.9547L54.1901 27.0017H54.142V27.0018ZM53.7904 26.9211H54.0965C54.0549 26.6462 54.0478 26.3414 54.0478 26.0373V21.8703C54.0478 20.7713 54.513 20.6672 54.9115 20.6672H55.0091V20.4729C54.6446 20.4754 54.2788 20.5084 53.9111 20.5084C53.4876 20.5084 53.0756 20.4754 52.6566 20.4729L52.656 20.6672H52.8196C53.1039 20.6672 53.6654 20.7929 53.6654 21.5694L53.6525 25.0297L53.6339 25.0488L53.6026 25.0773L49.4872 20.4729C49.2126 20.4729 48.9443 20.5084 48.6626 20.5084C48.3231 20.5084 47.976 20.4754 47.6403 20.4729L47.6384 20.6671H47.7206C48.155 20.6671 48.601 20.9954 48.601 21.5313V25.3877C48.601 26.1197 48.395 26.5883 47.7295 26.5909L47.6403 26.5883V26.7858C48.0414 26.782 48.4534 26.7489 48.8583 26.7489C49.2446 26.7489 49.629 26.782 50.0114 26.7858V26.5909H49.8947C49.1663 26.5883 48.9854 26.2747 48.9847 25.4785V21.6023L53.7904 26.9211ZM53.585 25.0018V24.9986L53.5773 24.9922L53.585 25.0018Z" fill="#576081"/>
<path d="M56.4351 20.8901C55.7401 20.8901 55.7138 21.0553 55.5752 21.7232H55.2974C55.3339 21.4673 55.3801 21.2114 55.4084 20.9447C55.4455 20.6882 55.4635 20.4329 55.4635 20.1676H55.6862C55.7606 20.4425 55.9917 20.433 56.2426 20.433H61.0163C61.2665 20.433 61.4976 20.4241 61.5168 20.1486L61.7375 20.1854C61.7016 20.433 61.6644 20.68 61.6361 20.9276C61.6194 21.1746 61.6194 21.4222 61.6194 21.6685L61.3409 21.7708C61.3217 21.4324 61.2755 20.8901 60.6562 20.8901H59.1386V25.7625C59.1386 26.4685 59.4627 26.5492 59.9054 26.5492H60.0819V26.8254C59.7213 26.8254 59.0726 26.7892 58.5739 26.7892C58.0189 26.7892 57.37 26.8254 57.0087 26.8254V26.5492H57.1852C57.6954 26.5492 57.9533 26.5041 57.9533 25.7815V20.8901H56.4351Z" fill="#576081"/>
<path d="M60.0836 26.864C59.7191 26.864 59.0716 26.8272 58.5742 26.8272C58.0198 26.8272 57.3724 26.864 57.0091 26.864H56.9706V26.8253V26.5098H57.0091H57.1856C57.6957 26.4977 57.901 26.4913 57.9126 25.7814V20.9301H56.4354V20.89V20.8494H57.9929V25.7814C57.9929 26.516 57.6939 26.5903 57.1856 26.591H57.0496V26.784C57.4147 26.7821 58.0372 26.7491 58.5743 26.7491C59.0569 26.7491 59.6755 26.7821 60.0413 26.784V26.591H59.9059C59.4586 26.5903 59.0986 26.4818 59.0986 25.7624V20.8494H60.6567C61.2778 20.852 61.3587 21.3745 61.3792 21.7142L61.5788 21.6412C61.5788 21.4024 61.5801 21.1631 61.5968 20.9218C61.6237 20.6862 61.6577 20.4526 61.6924 20.2189L61.5511 20.1954C61.5082 20.4621 61.2483 20.4754 61.0153 20.4729H56.2429H56.1948C55.9772 20.4729 55.7392 20.4627 55.6564 20.2069H55.5037C55.5023 20.4603 55.4843 20.706 55.449 20.9497C55.4221 21.2012 55.3797 21.4431 55.3451 21.685H55.5434C55.6653 21.0469 55.7449 20.8399 56.4354 20.8495V20.8901V20.9301C55.7513 20.9422 55.7655 21.0565 55.6146 21.7333L55.6076 21.7644H55.5755H55.2515L55.2566 21.7168C55.2938 21.4603 55.3407 21.205 55.3683 20.9383C55.4068 20.6843 55.4247 20.4304 55.4247 20.1675V20.1275H55.4639H55.718L55.7244 20.1561C55.7879 20.3872 55.9593 20.3885 56.1948 20.3923H56.2429H61.0153C61.2733 20.3885 61.4607 20.3847 61.4767 20.1452L61.4806 20.1021L61.5223 20.1109L61.7834 20.1516L61.7776 20.1916C61.7404 20.4367 61.7039 20.6843 61.6769 20.93C61.6583 21.1739 61.6583 21.4215 61.6583 21.6685V21.697L61.6326 21.7072L61.3047 21.8252L61.3022 21.7719C61.2778 21.4278 61.2412 20.93 60.6566 20.93H59.1794V25.7623C59.1877 26.4531 59.4649 26.5007 59.9057 26.5096H60.1226V26.549V26.8639L60.0836 26.864Z" fill="#576081"/>
<path d="M62.0337 26.5491H62.164C62.4964 26.5491 62.8486 26.5048 62.8486 26.0279V21.2304C62.8486 20.7529 62.4964 20.7079 62.164 20.7079H62.0337V20.433C62.5971 20.433 63.561 20.4692 64.3367 20.4692C65.1158 20.4692 66.0765 20.433 66.7053 20.433C66.69 20.826 66.6983 21.4317 66.7258 21.8337L66.4467 21.9073C66.4025 21.3124 66.2914 20.8369 65.3192 20.8369H64.0339V23.2349H65.1339C65.6888 23.2349 65.8102 22.9245 65.8647 22.4287H66.1419C66.124 22.7873 66.1143 23.1442 66.1143 23.501C66.1143 23.8496 66.124 24.1969 66.1419 24.5448L65.8647 24.5994C65.8102 24.0502 65.782 23.6933 65.1428 23.6933H64.034V25.826C64.034 26.4222 64.5685 26.4222 65.1615 26.4222C66.2722 26.4222 66.7618 26.3479 67.0397 25.3054L67.2991 25.3683C67.1777 25.8546 67.0673 26.339 66.9852 26.8254C66.3923 26.8254 65.3277 26.7892 64.4959 26.7892C63.6617 26.7892 62.5613 26.8254 62.0337 26.8254V26.5491Z" fill="#576081"/>
<path d="M66.984 26.864C66.3898 26.864 65.3258 26.8265 64.4949 26.8265C63.6613 26.8265 62.5613 26.864 62.0332 26.864H61.9941V26.8253V26.5491V26.5097H62.0332H62.1629C62.4985 26.5046 62.8026 26.4754 62.8072 26.0278V21.2303C62.8027 20.7833 62.4985 20.7535 62.1629 20.7465H61.9941V20.7078V20.3936H62.0332C62.5979 20.3936 63.5605 20.4285 64.3363 20.4285C65.1147 20.4285 66.0747 20.3936 66.7049 20.3936H66.7466L66.7446 20.4342C66.7382 20.572 66.7357 20.7344 66.7357 20.9072C66.7357 21.224 66.7446 21.57 66.7633 21.831L66.7646 21.864L66.7338 21.873L66.4084 21.9568L66.4065 21.9098C66.352 21.3155 66.2718 20.8844 65.3189 20.8755H64.0721L64.0707 23.1936H65.1335C65.6661 23.1885 65.7616 22.9187 65.8246 22.4254L65.8279 22.3892H65.8637H66.1827L66.1821 22.4304C66.1642 22.7872 66.1525 23.144 66.1525 23.5008C66.1525 23.8475 66.1642 24.1948 66.1821 24.5434L66.1827 24.5758L66.1494 24.5834L65.8279 24.6469L65.8246 24.6037C65.7611 24.045 65.7565 23.7389 65.1417 23.732L64.072 23.7313V25.8259C64.0728 26.3821 64.5578 26.3789 65.1611 26.3821C66.275 26.3757 66.7217 26.3225 67.0008 25.2938L67.0099 25.257L67.049 25.264L67.3455 25.3395L67.3365 25.3777C67.2172 25.8627 67.1061 26.3465 67.0232 26.8316L67.0156 26.864H66.984ZM66.9501 26.784C67.0303 26.3223 67.136 25.8589 67.2498 25.3979L67.0669 25.3522C66.7897 26.377 66.2531 26.4684 65.1609 26.4615C64.5782 26.4615 63.9943 26.4615 63.9917 25.8258V23.6532H65.1417C65.7878 23.6462 65.854 24.0322 65.8995 24.5535L66.0998 24.5123C66.0818 24.1751 66.0735 23.8366 66.0735 23.5008C66.0735 23.156 66.0818 22.8132 66.0998 22.4684H65.8995C65.8483 22.9452 65.6974 23.2805 65.1334 23.2741H63.9917V20.7954H65.3189C66.2815 20.789 66.4411 21.2805 66.4823 21.8563L66.6819 21.803C66.6659 21.5446 66.6548 21.2132 66.6548 20.9071C66.6548 20.7503 66.6587 20.6024 66.6639 20.4729C66.0351 20.4754 65.0981 20.5084 64.3364 20.5084C63.576 20.5084 62.6398 20.4754 62.0731 20.4729V20.6671H62.1628C62.4927 20.6671 62.8868 20.7243 62.888 21.2303V26.0278C62.8867 26.5326 62.4927 26.5884 62.1628 26.591H62.0731V26.784C62.6128 26.7833 63.6819 26.7491 64.4948 26.7491C65.3111 26.7491 66.3532 26.7833 66.9501 26.784Z" fill="#576081"/>
<path d="M68.5476 21.403C68.5476 20.7351 68.178 20.7078 67.8898 20.7078H67.7236V20.4323C68.02 20.4323 68.5931 20.4691 69.1579 20.4691C69.7129 20.4691 70.1576 20.4323 70.6473 20.4323C71.8125 20.4323 72.8503 20.744 72.8503 22.0456C72.8503 22.8678 72.2952 23.3719 71.5643 23.657L73.1461 25.9998C73.4053 26.3871 73.5895 26.4957 74.0438 26.549V26.8252C73.7384 26.8252 73.4419 26.789 73.137 26.789C72.8503 26.789 72.5531 26.8252 72.2675 26.8252C71.5552 25.9002 70.943 24.911 70.3417 23.857H69.7328V25.8176C69.7328 26.5236 70.0646 26.549 70.49 26.549H70.6568V26.8253C70.1281 26.8253 69.5936 26.7891 69.0654 26.7891C68.6207 26.7891 68.1856 26.8253 67.7236 26.8253V26.549H67.8898C68.2337 26.549 68.5476 26.3954 68.5476 26.0557V21.403ZM69.7327 23.5275H70.1845C71.1105 23.5275 71.6091 23.1796 71.6091 22.0989C71.6091 21.2849 71.0823 20.7624 70.2577 20.7624C69.9798 20.7624 69.8617 20.791 69.7326 20.7992V23.5275H69.7327Z" fill="#576081"/>
<path d="M74.0439 26.864C73.7339 26.864 73.4394 26.8272 73.1352 26.8272C72.8529 26.8272 72.5577 26.864 72.235 26.8487C71.5252 25.9275 70.9168 24.944 70.3187 23.8976H69.772V25.8164C69.7816 26.5053 70.0614 26.4996 70.4894 26.5098H70.6967V26.5491V26.864H70.6556C70.1268 26.864 69.5898 26.8272 69.0642 26.8272C68.622 26.8272 68.1883 26.864 67.7236 26.864H67.6831V26.8247V26.5098H67.7236H67.8898C68.2234 26.5079 68.5046 26.3644 68.5058 26.0558V21.4032C68.4989 20.753 68.1774 20.7568 67.8898 20.7473H67.6831V20.7079V20.3924H67.7236C68.0233 20.3924 68.5944 20.4285 69.1578 20.4285C69.7103 20.4285 70.1551 20.3924 70.6479 20.3924C71.8139 20.3949 72.8882 20.7137 72.8913 22.0432C72.8913 22.8705 72.3389 23.3866 71.6246 23.6749L73.1794 25.9783C73.4381 26.358 73.5992 26.4527 74.0497 26.5098L74.0836 26.5148V26.5491V26.864H74.0439V26.864ZM69.7316 23.8176H70.3643L70.3752 23.8379C70.9784 24.89 71.5861 25.8779 72.2676 26.7858C72.55 26.7858 72.847 26.7484 73.1352 26.7484C73.431 26.7484 73.7159 26.7801 74.004 26.7845V26.5839C73.5696 26.5306 73.3662 26.4023 73.1134 26.022L71.5033 23.6378L71.5488 23.6194C72.2728 23.3376 72.8086 22.8481 72.8092 22.0429C72.8086 20.7725 71.8113 20.4779 70.6479 20.4728C70.1595 20.4728 69.7155 20.509 69.1578 20.509C68.6144 20.509 68.0656 20.4754 67.7627 20.4728V20.6671H67.8898C68.1773 20.6678 68.5866 20.7147 68.5866 21.4031V26.0557C68.5866 26.4233 68.2382 26.5909 67.8898 26.5915H67.7627V26.7845C68.2082 26.7832 68.6297 26.7484 69.0642 26.7484C69.5819 26.7484 70.1037 26.7833 70.6159 26.7845V26.5915H70.4894C70.0671 26.5908 69.6911 26.5388 69.6911 25.8163V23.8176H69.7315H69.7316ZM69.7316 23.5662H69.6911V20.7624L69.7264 20.7592C69.8529 20.7497 69.9781 20.7236 70.2578 20.7236C71.1011 20.7236 71.649 21.2658 71.6502 22.1007C71.6477 23.194 71.1177 23.5655 70.1846 23.5661H69.7316V23.5662ZM70.1846 23.4875C71.1009 23.4798 71.5617 23.1649 71.5714 22.1008C71.5662 21.3008 71.0638 20.8043 70.2577 20.8011C70.0074 20.8011 69.89 20.8239 69.7719 20.8342V23.4875H70.1846Z" fill="#576081"/>
<path d="M80.327 25.0203L80.3437 25.0025V21.5689C80.3437 20.8172 79.8169 20.708 79.5397 20.708H79.3369V20.433C79.7713 20.433 80.1962 20.4692 80.6319 20.4692C81.0118 20.4692 81.3898 20.433 81.7716 20.433V20.708H81.6323C81.2435 20.708 80.8083 20.7809 80.8083 21.8705V26.0381C80.8083 26.3582 80.8174 26.6781 80.8629 26.962H80.5119L75.7466 21.7055V25.4788C75.7466 26.2756 75.9038 26.5493 76.616 26.5493H76.7733V26.8255C76.3761 26.8255 75.9776 26.7893 75.5804 26.7893C75.1625 26.7893 74.7371 26.8255 74.3213 26.8255V26.5493H74.4496C75.0888 26.5493 75.2832 26.12 75.2832 25.388V21.5309C75.2832 21.0185 74.8577 20.708 74.442 20.708H74.3213V20.4331C74.6717 20.4331 75.0343 20.4692 75.3853 20.4692C75.6613 20.4692 75.9307 20.4331 76.2086 20.4331L80.327 25.0203Z" fill="#576081"/>
<path d="M80.8632 27.0012L80.4821 26.9885L75.7855 21.8089V25.4781C75.7964 26.2749 75.9183 26.5009 76.6164 26.5098H76.8122V26.5492V26.8641H76.7717C76.3714 26.8641 75.9747 26.8266 75.5781 26.8266C75.1649 26.8266 74.7375 26.8641 74.321 26.8641H74.2793V26.8254V26.5098H74.321H74.4493C75.0603 26.5073 75.2354 26.1181 75.2412 25.3854V21.5308C75.2406 21.0431 74.837 20.7473 74.4417 20.7466H74.2793V20.7079V20.3924H74.321C74.6739 20.3924 75.0359 20.4285 75.385 20.4285C75.6571 20.4285 75.9253 20.3924 76.2359 20.405L80.3037 24.9371V21.5682C80.3011 20.8406 79.8083 20.7504 79.5395 20.7467H79.2949V20.7079V20.3924H79.3354C79.7731 20.3924 80.1991 20.4285 80.6316 20.4285C81.009 20.4285 81.3882 20.3924 81.7694 20.3924H81.8097V20.4337V20.7467H81.7694H81.632C81.2502 20.7568 80.8568 20.7904 80.8471 21.8705V26.0374C80.8471 26.3574 80.8556 26.6748 80.9024 26.9567L80.9075 27.0012H80.8632ZM80.5116 26.9212H80.8158C80.7753 26.6463 80.7663 26.3415 80.7663 26.0374V21.8704C80.7669 20.7713 81.2354 20.6698 81.632 20.6666H81.7289V20.473C81.3657 20.4755 80.9993 20.5085 80.6315 20.5085C80.2068 20.5085 79.794 20.4755 79.3751 20.473V20.6666H79.5394C79.8243 20.6698 80.3852 20.793 80.3852 21.5682L80.3724 25.0298L80.3544 25.0488L80.3262 25.078L76.2077 20.473C75.933 20.473 75.6647 20.5086 75.385 20.5086C75.0424 20.5086 74.6965 20.4756 74.3596 20.473V20.6667H74.4416C74.8761 20.6699 75.3221 20.9943 75.3221 21.5308V25.3853C75.3221 26.1206 75.1129 26.5885 74.4494 26.591L74.3596 26.5904V26.784C74.7594 26.7821 75.172 26.7491 75.5782 26.7491C75.9665 26.7491 76.3509 26.7821 76.7333 26.784V26.591H76.6165C75.8875 26.5904 75.7053 26.2749 75.704 25.478V21.6038L80.5116 26.9212ZM80.3037 25.0025V24.9992L80.2966 24.9923L80.3037 25.0025Z" fill="#576081"/>
<path d="M83.2592 25.5154C83.1656 25.8258 83.0539 26.0658 83.0539 26.229C83.0539 26.5046 83.4435 26.549 83.7477 26.549H83.851V26.8252C83.4801 26.8054 83.1021 26.789 82.7292 26.789C82.3963 26.789 82.0651 26.8056 81.7314 26.8252V26.549H81.7872C82.1478 26.549 82.454 26.3388 82.5906 25.9534L84.073 21.7515C84.1924 21.4125 84.3605 20.9547 84.4164 20.6151C84.711 20.5154 85.0818 20.3325 85.2571 20.222C85.2859 20.2126 85.3019 20.203 85.3309 20.203C85.3585 20.203 85.3764 20.203 85.3969 20.2316C85.4239 20.304 85.4508 20.3871 85.4804 20.4601L87.1828 25.25C87.2938 25.57 87.4035 25.9084 87.5236 26.1839C87.6353 26.4404 87.8303 26.549 88.1364 26.549H88.1909V26.8252C87.7746 26.8055 87.3575 26.7891 86.9146 26.7891C86.4609 26.7891 85.9969 26.8056 85.5253 26.8252V26.549H85.628C85.8398 26.549 86.2017 26.5134 86.2017 26.2842C86.2017 26.1655 86.1183 25.9185 86.015 25.6246L85.6549 24.5623H83.5547L83.2592 25.5154ZM84.6095 21.4582H84.5908L83.7303 24.05H85.4597L84.6095 21.4582Z" fill="#576081"/>
<path d="M88.1887 26.864C87.7722 26.8456 87.3557 26.8265 86.9149 26.8265C86.4612 26.8265 86.0004 26.8456 85.5268 26.864L85.4851 26.8666V26.8253V26.5085H85.5256H85.6276C85.8419 26.5085 86.1602 26.4602 86.1602 26.2844C86.1628 26.1802 86.0793 25.9288 85.9773 25.6374L85.625 24.6019H83.5837L83.2963 25.5269C83.2025 25.8393 83.0916 26.0812 83.0922 26.2304C83.0953 26.454 83.4412 26.5085 83.748 26.5085H83.8905V26.5498V26.8666L83.8488 26.864C83.4785 26.8456 83.1005 26.8265 82.7316 26.8265C82.3998 26.8265 82.0662 26.8456 81.7344 26.864L81.6914 26.8666V26.8253V26.5085H81.7318H81.787C82.1316 26.5072 82.4191 26.3136 82.5526 25.9409L84.0343 21.7384C84.1556 21.3987 84.3224 20.9422 84.4026 20.5772C84.6927 20.48 85.0642 20.2959 85.2426 20.1841C85.2683 20.1759 85.294 20.1632 85.3319 20.1632C85.3544 20.1626 85.4044 20.1683 85.4339 20.2166C85.4602 20.2921 85.4891 20.3734 85.5173 20.4477L87.2217 25.2369C87.3309 25.5582 87.4412 25.8966 87.5619 26.167C87.6691 26.4115 87.8391 26.5073 88.1368 26.5086H88.2312V26.5499V26.8667L88.1887 26.864ZM85.5659 26.7821C86.0242 26.7663 86.4727 26.7485 86.9149 26.7485C87.3448 26.7485 87.7471 26.7663 88.1494 26.7821V26.591H88.1366C87.8197 26.5929 87.6008 26.4698 87.4872 26.1999C87.3666 25.9218 87.2536 25.5821 87.1452 25.2615L85.4414 20.473C85.4133 20.4 85.3863 20.3168 85.3619 20.252C85.3542 20.2431 85.3561 20.2431 85.3485 20.2431H85.3316C85.3125 20.2431 85.3016 20.2488 85.2777 20.2552C85.0994 20.3701 84.7279 20.5498 84.4538 20.6215C84.3967 20.9682 84.2305 21.4253 84.1099 21.7644L82.6288 25.9675C82.4877 26.365 82.1636 26.5917 81.787 26.591H81.7722V26.7821C82.0891 26.7663 82.41 26.7485 82.7315 26.7485C83.0889 26.7485 83.4547 26.7663 83.8076 26.7821V26.591H83.748C83.4471 26.5872 83.026 26.5535 83.0145 26.2303C83.0151 26.0475 83.1288 25.8133 83.2191 25.5041L83.2596 25.5161L83.2191 25.5027L83.5239 24.5237H85.6814L86.0529 25.612C86.157 25.906 86.241 26.1498 86.241 26.2844C86.2282 26.5656 85.8374 26.5853 85.6275 26.591H85.5659L85.5659 26.7821ZM83.6742 24.0894L84.5604 21.4183H84.5912H84.6105H84.6381L85.5165 24.0894H83.6742ZM83.7852 24.01H85.4049L84.5995 21.5561L83.7852 24.01Z" fill="#576081"/>
<path d="M88.5981 20.8901C87.9038 20.8901 87.8762 21.0553 87.7368 21.7232H87.459C87.4956 21.4673 87.5425 21.2114 87.5714 20.9447C87.6085 20.6882 87.6253 20.4329 87.6253 20.1676H87.8486C87.9224 20.4425 88.1547 20.433 88.4031 20.433H93.1793C93.4277 20.433 93.6587 20.4241 93.678 20.1486L93.8993 20.1854C93.864 20.433 93.8275 20.68 93.7992 20.9276C93.7793 21.1746 93.7793 21.4222 93.7793 21.6685L93.5021 21.7708C93.4847 21.4324 93.4386 20.8901 92.818 20.8901H91.3004V25.7625C91.3004 26.4685 91.6252 26.5492 92.0679 26.5492H92.2437V26.8254C91.8831 26.8254 91.2362 26.7892 90.7356 26.7892C90.1813 26.7892 89.5324 26.8254 89.1718 26.8254V26.5492H89.347C89.8571 26.5492 90.1164 26.5041 90.1164 25.7815V20.8901H88.5981Z" fill="#576081"/>
<path d="M92.2437 26.864C91.8805 26.864 91.2324 26.8272 90.7357 26.8272C90.1825 26.8272 89.5344 26.864 89.1718 26.864H89.1308V26.8253V26.5097H89.1718H89.347C89.8571 26.4976 90.0619 26.4913 90.0747 25.7814L90.0734 20.93H88.5981V20.89V20.8493H90.1549V25.7814C90.1549 26.516 89.8552 26.5884 89.347 26.5903H89.211V26.7858C89.5774 26.782 90.1985 26.749 90.7357 26.749C91.2189 26.749 91.8375 26.7821 92.2033 26.7858V26.5903H92.0666C91.6218 26.5884 91.2612 26.4823 91.26 25.7623V20.8493H92.818C93.4392 20.8519 93.5206 21.3744 93.5381 21.7141L93.7402 21.6411C93.7402 21.4024 93.7409 21.163 93.7588 20.923C93.7844 20.6874 93.819 20.4525 93.8532 20.2188L93.7133 20.1953C93.6709 20.462 93.4097 20.4767 93.1794 20.4728H88.403H88.3562C88.138 20.4753 87.9019 20.4626 87.8177 20.2055H87.6663C87.6637 20.4594 87.6464 20.7059 87.6098 20.9497C87.5855 21.2017 87.5399 21.4443 87.5053 21.6849H87.7036C87.8261 21.0467 87.9064 20.8398 88.5981 20.8493V20.89L88.5981 20.93C87.9121 20.9415 87.9275 21.0563 87.776 21.7332L87.769 21.7643H87.7369H87.4121L87.4179 21.7185C87.4564 21.4601 87.5026 21.2048 87.5295 20.9401C87.5674 20.6842 87.5854 20.4302 87.5854 20.1674V20.1274H87.6252H87.8779L87.8857 20.156C87.9505 20.3871 88.1192 20.3883 88.3561 20.3921L88.4028 20.3934H93.1792C93.4346 20.3884 93.6213 20.3845 93.6374 20.1459L93.64 20.1021L93.6836 20.111L93.9461 20.1516L93.9391 20.1916C93.9012 20.4367 93.8659 20.6843 93.8377 20.93C93.819 21.1739 93.819 21.4221 93.819 21.6685V21.697L93.7928 21.7072L93.4649 21.8253L93.463 21.7719C93.4392 21.4278 93.4026 20.93 92.818 20.93H91.3402V25.7623C91.3498 26.4531 91.6264 26.5007 92.0666 26.5096H92.2835V26.549V26.8639L92.2437 26.864Z" fill="#576081"/>
<path d="M94.2412 26.5491H94.3709C94.7052 26.5491 95.0548 26.5048 95.0548 26.0279V21.2304C95.0548 20.7529 94.7052 20.7079 94.3709 20.7079H94.2412V20.433C94.6026 20.433 95.157 20.4692 95.6093 20.4692C96.0739 20.4692 96.6291 20.433 97.0641 20.433V20.7079H96.9345C96.6015 20.7079 96.2485 20.753 96.2485 21.2304V26.0279C96.2485 26.5048 96.6015 26.5491 96.9345 26.5491H97.0641V26.8254C96.6194 26.8254 96.0637 26.7892 95.6023 26.7892C95.148 26.7892 94.6026 26.8254 94.2412 26.8254V26.5491Z" fill="#576081"/>
<path d="M97.0644 26.864C96.6172 26.864 96.0634 26.8265 95.602 26.8265C95.1496 26.8265 94.6029 26.864 94.2415 26.864H94.2012V26.8253V26.5491V26.5097H94.2415H94.3712C94.7055 26.5046 95.0123 26.4761 95.0136 26.0278V21.2303C95.0123 20.7833 94.7055 20.7528 94.3712 20.7465H94.2012V20.7078V20.3936H94.2415C94.6029 20.3936 95.1586 20.4285 95.6097 20.4285C96.0711 20.4285 96.6261 20.3936 97.0644 20.3936H97.1036V20.4329V20.7465H97.0644H96.9348C96.5966 20.7529 96.2931 20.7833 96.2886 21.2303V26.0278C96.2931 26.4761 96.5967 26.5046 96.9348 26.5097H97.1036V26.5491V26.864H97.0644ZM97.0228 26.784V26.5903H96.9348C96.603 26.5903 96.2104 26.5326 96.2104 26.0278V21.2303C96.2104 20.7243 96.603 20.6671 96.9348 20.6671H97.0228V20.4729C96.5954 20.4754 96.0608 20.5084 95.6097 20.5084C95.1714 20.5084 94.6407 20.4754 94.282 20.4729V20.6671H94.3713C94.7004 20.6671 95.0945 20.7243 95.0957 21.2303V26.0278C95.0944 26.5325 94.7004 26.5903 94.3713 26.5903H94.282V26.784C94.6389 26.7801 95.1625 26.749 95.602 26.749C96.0506 26.749 96.5865 26.7821 97.0228 26.784Z" fill="#576081"/>
<path d="M100.754 20.2958C102.727 20.2958 104.299 21.5059 104.299 23.4558C104.299 25.5625 102.772 26.9624 100.802 26.9624C98.8385 26.9624 97.3408 25.6436 97.3408 23.6748C97.3408 21.7707 98.8295 20.2958 100.754 20.2958ZM100.894 26.5592C102.689 26.5592 103.002 24.9923 103.002 23.657C103.002 22.3186 102.273 20.6983 100.736 20.6983C99.1164 20.6983 98.6358 22.1269 98.6358 23.3529C98.6358 24.9923 99.3943 26.5592 100.894 26.5592Z" fill="#576081"/>
<path d="M97.2998 23.6747C97.3037 21.7484 98.8105 20.2582 100.754 20.2557V20.2957V20.3343C98.8522 20.3343 97.38 21.7903 97.3782 23.6746C97.3827 25.6213 98.8592 26.9203 100.802 26.921C102.753 26.9203 104.258 25.54 104.261 23.4538C104.259 21.5287 102.711 20.3369 100.754 20.3343V20.2957V20.2557C102.742 20.2569 104.336 21.4792 104.339 23.4538C104.338 25.5826 102.791 26.9972 100.802 27.001C98.8232 26.9972 97.3037 25.6651 97.2999 23.6746H97.2998V23.6747ZM98.5962 23.3528C98.5987 22.1211 99.0851 20.6569 100.737 20.6569C102.308 20.6608 103.041 22.3116 103.044 23.6569C103.041 24.9922 102.724 26.5973 100.895 26.5973V26.5592V26.5198C102.654 26.5173 102.959 24.9922 102.964 23.6569C102.964 22.3294 102.241 20.7402 100.737 20.7382C99.1493 20.7401 98.6795 22.1331 98.6764 23.3528C98.6777 24.9839 99.4291 26.516 100.895 26.5198V26.5592V26.5973C99.3585 26.5953 98.5987 25.0017 98.5962 23.3528Z" fill="#576081"/>
<path d="M110.535 25.0203L110.554 25.0025V21.5689C110.554 20.8172 110.025 20.708 109.747 20.708H109.547V20.433C109.981 20.433 110.406 20.4692 110.84 20.4692C111.221 20.4692 111.6 20.433 111.98 20.433V20.708H111.84C111.452 20.708 111.017 20.7809 111.017 21.8705V26.0381C111.017 26.3582 111.026 26.6781 111.072 26.962H110.721L105.955 21.7055V25.4788C105.955 26.2756 106.111 26.5493 106.824 26.5493H106.982V26.8255C106.584 26.8255 106.186 26.7893 105.788 26.7893C105.372 26.7893 104.945 26.8255 104.529 26.8255V26.5493H104.659C105.299 26.5493 105.491 26.12 105.491 25.388V21.5309C105.491 21.0185 105.067 20.708 104.649 20.708H104.529V20.4331C104.88 20.4331 105.242 20.4692 105.593 20.4692C105.871 20.4692 106.138 20.4331 106.417 20.4331L110.535 25.0203Z" fill="#576081"/>
<path d="M111.073 27.0011L110.69 26.9877L105.995 21.8087V25.4786C106.005 26.2748 106.127 26.5002 106.822 26.5084H107.023V26.5497V26.864H106.982C106.581 26.864 106.184 26.8272 105.789 26.8272C105.373 26.8272 104.949 26.864 104.528 26.864H104.49V26.8246V26.5084H104.528H104.659C105.269 26.5066 105.445 26.118 105.452 25.3878V21.5307C105.451 21.0431 105.047 20.7472 104.65 20.7466H104.49V20.7078V20.3936H104.528C104.883 20.3936 105.244 20.4285 105.593 20.4285C105.868 20.4285 106.135 20.3936 106.448 20.407L110.514 24.9371V21.5695C110.511 20.8407 110.018 20.753 109.747 20.7466H109.504V20.708V20.3937H109.546C109.982 20.3937 110.408 20.4286 110.839 20.4286C111.219 20.4286 111.596 20.3937 111.98 20.3937H112.02V20.433V20.7466H111.98H111.84C111.459 20.7574 111.065 20.7917 111.058 21.8704V26.0374C111.058 26.3574 111.065 26.6767 111.11 26.9567L111.117 27.0011H111.073V27.0011ZM110.722 26.9211H111.024C110.984 26.6462 110.977 26.3414 110.977 26.0373V21.8703C110.977 20.7694 111.444 20.6697 111.84 20.6665H111.94V20.4729C111.575 20.4754 111.209 20.5084 110.839 20.5084C110.418 20.5084 110.004 20.4754 109.585 20.4729V20.6665H109.747C110.034 20.6697 110.593 20.7948 110.593 21.5694L110.582 25.0297L110.565 25.0488L110.536 25.0779L106.417 20.4729C106.144 20.4729 105.874 20.5085 105.593 20.5085C105.252 20.5085 104.905 20.4755 104.568 20.4729V20.6666H104.65C105.084 20.6697 105.532 20.9942 105.532 21.5307V25.3878C105.532 26.1199 105.325 26.5884 104.659 26.591L104.568 26.5903V26.784C104.97 26.7821 105.382 26.7491 105.789 26.7491C106.174 26.7491 106.558 26.7821 106.942 26.784V26.591H106.823C106.096 26.5903 105.915 26.2748 105.915 25.4785V21.6024L110.722 26.9211ZM110.514 25.0024V24.9991L110.506 24.9922L110.514 25.0024Z" fill="#576081"/>
<path d="M113.467 25.5154C113.377 25.8258 113.264 26.0658 113.264 26.229C113.264 26.5046 113.654 26.549 113.957 26.549H114.061V26.8252C113.69 26.8054 113.311 26.789 112.94 26.789C112.606 26.789 112.274 26.8056 111.942 26.8252V26.549H111.995C112.358 26.549 112.664 26.3388 112.801 25.9534L114.283 21.7515C114.403 21.4125 114.57 20.9547 114.624 20.6151C114.921 20.5154 115.29 20.3325 115.468 20.222C115.494 20.2126 115.513 20.203 115.541 20.203C115.569 20.203 115.586 20.203 115.605 20.2316C115.633 20.304 115.662 20.3871 115.689 20.4601L117.391 25.25C117.502 25.57 117.613 25.9084 117.735 26.1839C117.846 26.4404 118.041 26.549 118.345 26.549H118.401V26.8252C117.984 26.8055 117.568 26.7891 117.123 26.7891C116.671 26.7891 116.207 26.8056 115.735 26.8252V26.549H115.838C116.049 26.549 116.412 26.5134 116.412 26.2842C116.412 26.1655 116.328 25.9185 116.225 25.6246L115.865 24.5623H113.764L113.467 25.5154ZM114.82 21.4582H114.801L113.939 24.05H115.671L114.82 21.4582Z" fill="#576081"/>
<path d="M118.397 26.8639C117.98 26.8474 117.565 26.8271 117.122 26.8271C116.671 26.8271 116.208 26.8474 115.736 26.8639L115.695 26.8665V26.8246V26.5097H115.734H115.835C116.051 26.5097 116.37 26.4601 116.37 26.2843C116.372 26.1801 116.289 25.9306 116.186 25.6373L115.834 24.6017H113.791L113.505 25.5267C113.413 25.8404 113.302 26.081 113.304 26.229C113.304 26.4538 113.651 26.5097 113.957 26.5097H114.098V26.549V26.8665L114.057 26.8639C113.687 26.8474 113.308 26.8271 112.94 26.8271C112.608 26.8271 112.275 26.8474 111.942 26.8639L111.901 26.8665V26.8246V26.5097H111.942H111.994C112.34 26.5083 112.628 26.3122 112.763 25.9408L114.244 21.7383C114.362 21.3986 114.529 20.9421 114.611 20.5783C114.902 20.4786 115.274 20.2957 115.453 20.1839C115.478 20.1757 115.503 20.1649 115.541 20.1649C115.565 20.1623 115.612 20.168 115.642 20.2182C115.669 20.29 115.696 20.3731 115.727 20.4474L117.429 25.2366C117.54 25.5579 117.651 25.8963 117.77 26.1687C117.879 26.4112 118.048 26.5071 118.343 26.5097H118.439V26.549V26.8665L118.397 26.8639ZM115.774 26.7832C116.232 26.7661 116.682 26.7483 117.122 26.7483C117.553 26.7483 117.957 26.7661 118.36 26.782L118.358 26.5908H118.343C118.03 26.5915 117.811 26.4696 117.696 26.1997C117.574 25.9217 117.464 25.582 117.353 25.2625L115.65 20.4728C115.623 20.3998 115.594 20.3166 115.572 20.2544C115.564 20.243 115.565 20.243 115.558 20.243H115.541C115.521 20.243 115.511 20.2493 115.488 20.2557C115.308 20.368 114.937 20.5508 114.663 20.6214C114.606 20.968 114.438 21.4245 114.319 21.7642L112.837 25.9674C112.696 26.3648 112.373 26.5915 111.994 26.5908H111.981V26.782C112.299 26.7661 112.617 26.7483 112.94 26.7483C113.298 26.7483 113.663 26.7661 114.02 26.782V26.5908H113.957C113.656 26.587 113.234 26.5547 113.223 26.229C113.225 26.0474 113.339 25.8144 113.429 25.5039L113.467 25.5159L113.429 25.5025L113.733 24.5235H115.892L116.262 25.6118C116.364 25.9064 116.449 26.1496 116.449 26.2842C116.435 26.5655 116.047 26.5851 115.835 26.5908H115.774V26.7832H115.774ZM113.884 24.0887L114.771 21.4182H114.799H114.819H114.848L115.723 24.0887H113.884ZM113.995 24.0099H115.613L114.808 21.5572L113.995 24.0099Z" fill="#576081"/>
<path d="M120.733 25.9276C120.733 26.294 120.989 26.4031 121.286 26.4406C121.665 26.4685 122.082 26.4685 122.509 26.4222C122.897 26.3759 123.23 26.1562 123.396 25.9276C123.543 25.7256 123.627 25.4691 123.683 25.2679H123.951C123.85 25.7898 123.72 26.3041 123.608 26.8253C122.796 26.8253 121.98 26.7891 121.166 26.7891C120.351 26.7891 119.538 26.8253 118.724 26.8253V26.5491H118.851C119.186 26.5491 119.548 26.5047 119.548 25.9364V21.2304C119.548 20.7529 119.186 20.7079 118.851 20.7079H118.724V20.433C119.213 20.433 119.694 20.4692 120.184 20.4692C120.658 20.4692 121.12 20.433 121.592 20.433V20.7079H121.359C121.009 20.7079 120.733 20.7181 120.733 21.2019V25.9276Z" fill="#576081"/>
<path d="M123.608 26.8639C122.793 26.8639 121.979 26.8271 121.167 26.8271C120.352 26.8271 119.537 26.8639 118.722 26.8639H118.683V26.8246V26.5096H118.722H118.851C119.186 26.502 119.503 26.4792 119.507 25.9363V21.2285C119.503 20.7834 119.188 20.7529 118.851 20.7465H118.683V20.7078V20.3936H118.722C119.214 20.3936 119.696 20.4285 120.185 20.4285C120.655 20.4285 121.117 20.3936 121.592 20.3936H121.63V20.4329V20.7465H121.592H121.36C121.001 20.7567 120.778 20.7402 120.771 21.2018V25.9275C120.773 26.2684 120.999 26.3605 121.288 26.4005C121.452 26.4119 121.623 26.4189 121.801 26.4189C122.028 26.4189 122.263 26.4081 122.502 26.3827C122.879 26.339 123.204 26.1237 123.363 25.9053C123.506 25.7097 123.588 25.4583 123.643 25.2583L123.652 25.2279H123.682H124L123.992 25.2761C123.887 25.7999 123.76 26.3117 123.648 26.8329L123.64 26.8641H123.609H123.608V26.8639ZM123.575 26.7839C123.682 26.2874 123.804 25.8017 123.903 25.3064H123.713C123.655 25.5058 123.573 25.7515 123.427 25.9515C123.255 26.1889 122.912 26.4124 122.511 26.4613C122.269 26.4861 122.029 26.4988 121.801 26.4988C121.622 26.4988 121.448 26.4905 121.281 26.479C120.98 26.446 120.688 26.319 120.689 25.9274V21.2017C120.689 20.6931 121.015 20.6671 121.36 20.6671H121.551V20.4728C121.095 20.4753 120.646 20.5089 120.185 20.5089C119.706 20.5089 119.237 20.4753 118.762 20.4728V20.6671H118.851C119.181 20.6671 119.585 20.7242 119.585 21.2283V25.9363C119.585 26.5286 119.183 26.5902 118.851 26.5902H118.762V26.7839C119.562 26.7832 120.363 26.7489 121.167 26.7489C121.971 26.7489 122.774 26.7832 123.575 26.7839Z" fill="#576081"/>
<path d="M23.9159 31.9998C32.7555 32.0417 40.8238 24.8671 40.8238 16.139C40.8238 6.59425 32.7555 -0.00317344 23.9159 1.14517e-06H16.3085C7.363 -0.00317344 0 6.59622 0 16.139C0 24.869 7.363 32.0417 16.3085 31.9998H23.9159Z" fill="#576081"/>
<path d="M16.3447 1.32251C8.17059 1.32505 1.54685 7.88057 1.54492 15.9714C1.54685 24.0608 8.17053 30.6157 16.3447 30.6182C24.5208 30.6157 31.1459 24.0608 31.147 15.9714C31.1458 7.88057 24.5208 1.32505 16.3447 1.32251ZM6.96353 15.9714C6.97123 12.0178 9.46685 8.64634 12.986 7.3066V24.6341C9.46685 23.2951 6.97117 19.9256 6.96353 15.9714ZM19.7021 24.6379V7.30603C23.2226 8.64253 25.722 12.0158 25.7285 15.9714C25.722 19.9281 23.2226 23.2989 19.7021 24.6379Z" fill="#111623"/>
<path d="M46.008 6.88453C46.008 5.37082 45.2103 5.4705 44.4454 5.45406V5.0166C45.1083 5.04898 45.7878 5.04898 46.4521 5.04898C47.1663 5.04898 48.1359 5.0166 49.3949 5.0166C53.7983 5.0166 56.1964 7.92706 56.1964 10.9073C56.1964 12.574 55.2108 16.7638 49.1902 16.7638C48.3232 16.7638 47.523 16.7307 46.7241 16.7307C45.9592 16.7307 45.2103 16.7473 44.4453 16.7638V16.3269C45.4651 16.2253 45.9592 16.1917 46.0079 15.047L46.008 6.88453ZM47.6752 14.7784C47.6752 16.0743 48.6114 16.2254 49.4444 16.2254C53.1188 16.2254 54.3252 13.4819 54.3252 10.974C54.3252 7.82795 52.2839 5.55622 49.0023 5.55622C48.3041 5.55622 47.9833 5.60574 47.6752 5.62358L47.6752 14.7784Z" fill="#576081"/>
<path d="M56.793 16.3269H57.1151C57.5906 16.3269 57.9314 16.3269 57.9314 15.77V11.2101C57.9314 10.4705 57.6766 10.3676 57.0472 10.033V9.76312C57.8461 9.52566 58.7997 9.2082 58.8664 9.15741C58.9864 9.09011 59.0878 9.07233 59.1731 9.07233C59.2573 9.07233 59.2925 9.17391 59.2925 9.30915V15.77C59.2925 16.3269 59.6666 16.3269 60.1428 16.3269H60.4315V16.7643C59.8527 16.7643 59.2572 16.7308 58.6463 16.7308C58.0341 16.7308 57.4213 16.7473 56.793 16.7643V16.3269H56.793ZM58.6122 6.48117C58.1695 6.48117 57.7793 6.07742 57.7793 5.6399C57.7793 5.21832 58.1875 4.83038 58.6122 4.83038C59.0531 4.83038 59.4458 5.18537 59.4458 5.6399C59.4458 6.0945 59.0705 6.48117 58.6122 6.48117Z" fill="#576081"/>
<path d="M62.0473 11.3104C62.0473 10.6882 61.8592 10.5206 61.0616 10.2006V9.88127C61.7925 9.64572 62.4888 9.42667 63.3056 9.07239C63.3564 9.07239 63.4064 9.10668 63.4064 9.24064V10.3352C64.3773 9.64572 65.2109 9.07233 66.3518 9.07233C67.7957 9.07233 68.3058 10.1161 68.3058 11.4284V15.7701C68.3058 16.3269 68.6799 16.3269 69.1567 16.3269H69.4628V16.7643C68.866 16.7643 68.2712 16.7308 67.6603 16.7308C67.0474 16.7308 66.4345 16.7473 65.823 16.7643V16.3269H66.1284C66.6058 16.3269 66.9441 16.3269 66.9441 15.7701V11.4126C66.9441 10.4519 66.3518 9.98146 65.3808 9.98146C64.8374 9.98146 63.9697 10.419 63.4063 10.7897V15.7699C63.4063 16.3268 63.7823 16.3268 64.2592 16.3268H64.5647V16.7643C63.9697 16.7643 63.3736 16.7306 62.7614 16.7306C62.1498 16.7306 61.5364 16.7472 60.9248 16.7643V16.3268H61.2315C61.7077 16.3268 62.0472 16.3268 62.0472 15.7699V11.3104H62.0473Z" fill="#576081"/>
<path d="M70.7557 12.1193C70.7204 12.2711 70.7204 12.5231 70.7557 13.0958C70.8559 14.6939 71.8961 16.0063 73.2545 16.0063C74.1907 16.0063 74.9236 15.5016 75.5519 14.8793L75.7892 15.1155C75.0064 16.1416 74.0373 17.0164 72.6436 17.0164C69.9388 17.0164 69.3945 14.424 69.3945 13.3479C69.3945 10.0488 71.6392 9.07233 72.829 9.07233C74.2074 9.07233 75.6879 9.93016 75.7039 11.7142C75.7039 11.8164 75.7039 11.9161 75.6879 12.0183L75.5338 12.1193H70.7557ZM73.7666 11.5803C74.1908 11.5803 74.2409 11.3613 74.2409 11.16C74.2409 10.3015 73.714 9.61137 72.7611 9.61137C71.7247 9.61137 71.0104 10.3676 70.8064 11.5803H73.7666Z" fill="#576081"/>
<path d="M76.0957 16.327H76.5552C77.0299 16.327 77.3701 16.327 77.3701 15.7701V11.0418C77.3701 10.5206 76.7419 10.419 76.4859 10.2844V10.033C77.7276 9.51042 78.4084 9.07233 78.563 9.07233C78.6638 9.07233 78.7138 9.12312 78.7138 9.29201V10.8063H78.7498C79.1739 10.1504 79.8895 9.07233 80.9259 9.07233C81.3512 9.07233 81.8948 9.35804 81.8948 9.96439C81.8948 10.419 81.5727 10.8241 81.0966 10.8241C80.5672 10.8241 80.5672 10.419 79.973 10.419C79.6836 10.419 78.7319 10.8063 78.7319 11.8164V15.7701C78.7319 16.3269 79.0713 16.3269 79.5481 16.3269H80.4998V16.7644C79.5642 16.7472 78.8525 16.7308 78.1197 16.7308C77.4228 16.7308 76.7079 16.7473 76.0958 16.7644L76.0957 16.327Z" fill="#576081"/>
<path d="M82.6437 14.424C82.8652 15.5351 83.5447 16.478 84.787 16.478C85.7881 16.478 86.1628 15.8723 86.1628 15.2831C86.1628 13.2971 82.4563 13.9364 82.4563 11.2272C82.4563 10.2844 83.2224 9.07233 85.0924 9.07233C85.636 9.07233 86.3668 9.22471 87.0297 9.56185L87.1504 11.2768H86.7584C86.5889 10.2177 85.9941 9.61143 84.9044 9.61143C84.2242 9.61143 83.5786 9.9988 83.5786 10.7219C83.5786 12.6927 87.5239 12.0851 87.5239 14.727C87.5239 15.8374 86.6222 17.0165 84.5983 17.0165C83.9181 17.0165 83.1191 16.7809 82.5243 16.445L82.3369 14.5092L82.6437 14.424Z" fill="#576081"/>
<path d="M102.88 8.06291H102.456C102.133 6.09467 100.721 5.30292 98.8171 5.30292C96.8599 5.30292 94.0197 6.59809 94.0197 10.6369C94.0197 14.0387 96.4703 16.478 99.0886 16.478C100.772 16.478 102.167 15.3339 102.508 13.5664L102.898 13.6667L102.508 16.1238C101.793 16.5625 99.8714 17.0165 98.7478 17.0165C94.7691 17.0165 92.2529 14.475 92.2529 10.6883C92.2529 7.23815 95.3646 4.76324 98.6976 4.76324C100.075 4.76324 101.401 5.20261 102.711 5.65721L102.88 8.06291Z" fill="#576081"/>
<path d="M103.494 16.327H103.816C104.293 16.327 104.635 16.327 104.635 15.7702V6.39757C104.635 5.30297 104.379 5.26926 103.732 5.0845V4.81529C104.412 4.59694 105.127 4.29339 105.484 4.09092C105.67 3.9906 105.807 3.90546 105.857 3.90546C105.961 3.90546 105.995 4.00711 105.995 4.14228V15.7702C105.995 16.327 106.368 16.327 106.845 16.327H107.132V16.7645C106.556 16.7645 105.961 16.7308 105.348 16.7308C104.737 16.7308 104.124 16.7474 103.494 16.7645V16.327H103.494Z" fill="#576081"/>
<path d="M114.414 15.8374C114.414 16.1415 114.6 16.158 114.889 16.158C115.093 16.158 115.348 16.1415 115.57 16.1415V16.4958C114.837 16.5625 113.443 16.9161 113.119 17.0164L113.034 16.9656V15.6038C112.015 16.4278 111.232 17.0164 110.023 17.0164C109.105 17.0164 108.153 16.4278 108.153 15.0151V10.7053C108.153 10.2678 108.085 9.84683 107.134 9.76309V9.44309C107.747 9.42658 109.105 9.32556 109.327 9.32556C109.516 9.32556 109.516 9.44309 109.516 9.81324V14.1541C109.516 14.6602 109.516 16.1071 110.994 16.1071C111.572 16.1071 112.337 15.6697 113.051 15.0824V10.5529C113.051 10.2176 112.235 10.0329 111.624 9.86391V9.56105C113.153 9.45947 114.107 9.3255 114.276 9.3255C114.414 9.3255 114.414 9.44296 114.414 9.62899L114.414 15.8374Z" fill="#576081"/>
<path d="M117.798 10.2845C118.478 9.71241 119.396 9.07248 120.332 9.07248C122.305 9.07248 123.494 10.7741 123.494 12.607C123.494 14.8115 121.863 17.0165 119.429 17.0165C118.171 17.0165 117.508 16.6121 117.066 16.4279L116.556 16.8139L116.2 16.6298C116.351 15.6368 116.437 14.6603 116.437 13.6343V6.39751C116.437 5.30297 116.181 5.26926 115.535 5.0845V4.81529C116.217 4.59694 116.93 4.29339 117.287 4.09085C117.474 3.99054 117.61 3.90546 117.662 3.90546C117.764 3.90546 117.798 4.00711 117.798 4.14228V10.2845H117.798V10.2845ZM117.798 14.8616C117.798 15.5016 118.41 16.5797 119.549 16.5797C121.369 16.5797 122.134 14.8115 122.134 13.3131C122.134 11.496 120.741 9.98174 119.414 9.98174C118.783 9.98174 118.257 10.3862 117.798 10.7741L117.798 14.8616Z" fill="#576081"/>
<path d="M44.4258 26.5491H44.556C44.8885 26.5491 45.2401 26.5048 45.2401 26.0279V21.2304C45.2401 20.7529 44.8885 20.7079 44.556 20.7079H44.4258V20.433C44.7871 20.433 45.3421 20.4692 45.7971 20.4692C46.2592 20.4692 46.8136 20.433 47.2487 20.433V20.7079H47.1184C46.7866 20.7079 46.4344 20.753 46.4344 21.2304V26.0279C46.4344 26.5048 46.7866 26.5491 47.1184 26.5491H47.2487V26.8254C46.8046 26.8254 46.2482 26.7892 45.7868 26.7892C45.3332 26.7892 44.7871 26.8254 44.4258 26.8254V26.5491Z" fill="#576081"/>
<path d="M47.2488 26.8642C46.8016 26.8642 46.2472 26.8273 45.7864 26.8273C45.334 26.8273 44.7899 26.8642 44.4259 26.8642H44.3862V26.8248V26.5499V26.5099H44.4259H44.5556C44.8912 26.5023 45.1967 26.4756 45.1999 26.028V21.2305C45.1967 20.7829 44.8913 20.753 44.5556 20.7467H44.3862V20.708V20.3924H44.4259C44.7899 20.3924 45.3443 20.4286 45.7966 20.4286C46.2574 20.4286 46.8113 20.3924 47.2488 20.3924H47.29V20.4343V20.7467H47.2488H47.1192C46.7836 20.753 46.4762 20.7829 46.4743 21.2305V26.028C46.4762 26.4756 46.7835 26.5023 47.1192 26.5099H47.2899V26.5499V26.8642H47.2488ZM47.2091 26.786V26.5905H47.1193C46.7888 26.5905 46.3954 26.5339 46.3934 26.028V21.2305C46.3954 20.7245 46.7887 20.6673 47.1193 20.6673H47.2091V20.473C46.7817 20.473 46.2458 20.5086 45.7966 20.5086C45.3571 20.5086 44.8251 20.4756 44.467 20.473V20.6673H44.5556C44.8854 20.6673 45.2801 20.7245 45.2801 21.2305V26.028C45.2801 26.534 44.8854 26.5905 44.5556 26.5905H44.467V26.786C44.8251 26.7822 45.348 26.7492 45.7864 26.7492C46.2369 26.7492 46.7727 26.7835 47.2091 26.786Z" fill="#576081"/>
<path d="M53.6061 25.0203L53.6246 25.0025V21.5689C53.6246 20.8172 53.0966 20.708 52.8194 20.708H52.6152V20.433C53.0509 20.433 53.4764 20.4692 53.9108 20.4692C54.29 20.4692 54.6713 20.433 55.0499 20.433V20.708H54.9113C54.5218 20.708 54.0867 20.7809 54.0867 21.8705V26.0381C54.0867 26.3582 54.0962 26.6781 54.1418 26.962H53.7896L49.0248 21.7055V25.4788C49.0248 26.2756 49.1808 26.5493 49.8944 26.5493H50.0509V26.8255C49.6537 26.8255 49.2564 26.7893 48.8579 26.7893C48.4428 26.7893 48.0167 26.8255 47.5996 26.8255V26.5493H47.7292C48.3677 26.5493 48.5616 26.12 48.5616 25.388V21.5309C48.5616 21.0185 48.1349 20.708 47.7203 20.708H47.5997V20.4331C47.9513 20.4331 48.312 20.4692 48.663 20.4692C48.9408 20.4692 49.2097 20.4331 49.4869 20.4331L53.6061 25.0203Z" fill="#576081"/>
<path d="M54.142 27.0018L53.7603 26.9877L49.0642 21.8088V25.4786C49.0751 26.2748 49.1977 26.5009 49.8946 26.5097H50.0928V26.5491V26.864H50.0518C49.6513 26.864 49.2528 26.8272 48.8581 26.8272C48.4436 26.8272 48.0188 26.864 47.5991 26.864H47.5587V26.8246V26.5097H47.5991H47.7293C48.3409 26.5065 48.5154 26.118 48.5225 25.3878V21.5313C48.5212 21.0437 48.1169 20.7478 47.7204 20.7466H47.5586V20.7059V20.3936H47.599C47.9527 20.3936 48.3152 20.4285 48.6623 20.4285C48.9376 20.4285 49.2059 20.3936 49.5177 20.4069L53.5849 24.9371V21.5695C53.5798 20.8406 53.0889 20.753 52.8193 20.7466H52.5742V20.7059V20.3936H52.6153C53.0523 20.3936 53.4784 20.4285 53.9109 20.4285C54.2876 20.4285 54.6668 20.3936 55.0493 20.3936H55.0897V20.4329V20.7465H55.0493H54.9113C54.5295 20.7574 54.1374 20.7903 54.1266 21.8703V26.0373C54.1266 26.3573 54.1361 26.6773 54.1811 26.9547L54.1901 27.0017H54.142V27.0018ZM53.7904 26.9211H54.0965C54.0549 26.6462 54.0478 26.3414 54.0478 26.0373V21.8703C54.0478 20.7713 54.513 20.6672 54.9115 20.6672H55.0091V20.4729C54.6446 20.4754 54.2788 20.5084 53.9111 20.5084C53.4876 20.5084 53.0756 20.4754 52.6566 20.4729L52.656 20.6672H52.8196C53.1039 20.6672 53.6654 20.7929 53.6654 21.5694L53.6525 25.0297L53.6339 25.0488L53.6026 25.0773L49.4872 20.4729C49.2126 20.4729 48.9443 20.5084 48.6626 20.5084C48.3231 20.5084 47.976 20.4754 47.6403 20.4729L47.6384 20.6671H47.7206C48.155 20.6671 48.601 20.9954 48.601 21.5313V25.3877C48.601 26.1197 48.395 26.5883 47.7295 26.5909L47.6403 26.5883V26.7858C48.0414 26.782 48.4534 26.7489 48.8583 26.7489C49.2446 26.7489 49.629 26.782 50.0114 26.7858V26.5909H49.8947C49.1663 26.5883 48.9854 26.2747 48.9847 25.4785V21.6023L53.7904 26.9211ZM53.585 25.0018V24.9986L53.5773 24.9922L53.585 25.0018Z" fill="#576081"/>
<path d="M56.4351 20.8901C55.7401 20.8901 55.7138 21.0553 55.5752 21.7232H55.2974C55.3339 21.4673 55.3801 21.2114 55.4084 20.9447C55.4455 20.6882 55.4635 20.4329 55.4635 20.1676H55.6862C55.7606 20.4425 55.9917 20.433 56.2426 20.433H61.0163C61.2665 20.433 61.4976 20.4241 61.5168 20.1486L61.7375 20.1854C61.7016 20.433 61.6644 20.68 61.6361 20.9276C61.6194 21.1746 61.6194 21.4222 61.6194 21.6685L61.3409 21.7708C61.3217 21.4324 61.2755 20.8901 60.6562 20.8901H59.1386V25.7625C59.1386 26.4685 59.4627 26.5492 59.9054 26.5492H60.0819V26.8254C59.7213 26.8254 59.0726 26.7892 58.5739 26.7892C58.0189 26.7892 57.37 26.8254 57.0087 26.8254V26.5492H57.1852C57.6954 26.5492 57.9533 26.5041 57.9533 25.7815V20.8901H56.4351Z" fill="#576081"/>
<path d="M60.0836 26.864C59.7191 26.864 59.0716 26.8272 58.5742 26.8272C58.0198 26.8272 57.3724 26.864 57.0091 26.864H56.9706V26.8253V26.5098H57.0091H57.1856C57.6957 26.4977 57.901 26.4913 57.9126 25.7814V20.9301H56.4354V20.89V20.8494H57.9929V25.7814C57.9929 26.516 57.6939 26.5903 57.1856 26.591H57.0496V26.784C57.4147 26.7821 58.0372 26.7491 58.5743 26.7491C59.0569 26.7491 59.6755 26.7821 60.0413 26.784V26.591H59.9059C59.4586 26.5903 59.0986 26.4818 59.0986 25.7624V20.8494H60.6567C61.2778 20.852 61.3587 21.3745 61.3792 21.7142L61.5788 21.6412C61.5788 21.4024 61.5801 21.1631 61.5968 20.9218C61.6237 20.6862 61.6577 20.4526 61.6924 20.2189L61.5511 20.1954C61.5082 20.4621 61.2483 20.4754 61.0153 20.4729H56.2429H56.1948C55.9772 20.4729 55.7392 20.4627 55.6564 20.2069H55.5037C55.5023 20.4603 55.4843 20.706 55.449 20.9497C55.4221 21.2012 55.3797 21.4431 55.3451 21.685H55.5434C55.6653 21.0469 55.7449 20.8399 56.4354 20.8495V20.8901V20.9301C55.7513 20.9422 55.7655 21.0565 55.6146 21.7333L55.6076 21.7644H55.5755H55.2515L55.2566 21.7168C55.2938 21.4603 55.3407 21.205 55.3683 20.9383C55.4068 20.6843 55.4247 20.4304 55.4247 20.1675V20.1275H55.4639H55.718L55.7244 20.1561C55.7879 20.3872 55.9593 20.3885 56.1948 20.3923H56.2429H61.0153C61.2733 20.3885 61.4607 20.3847 61.4767 20.1452L61.4806 20.1021L61.5223 20.1109L61.7834 20.1516L61.7776 20.1916C61.7404 20.4367 61.7039 20.6843 61.6769 20.93C61.6583 21.1739 61.6583 21.4215 61.6583 21.6685V21.697L61.6326 21.7072L61.3047 21.8252L61.3022 21.7719C61.2778 21.4278 61.2412 20.93 60.6566 20.93H59.1794V25.7623C59.1877 26.4531 59.4649 26.5007 59.9057 26.5096H60.1226V26.549V26.8639L60.0836 26.864Z" fill="#576081"/>
<path d="M62.0337 26.5491H62.164C62.4964 26.5491 62.8486 26.5048 62.8486 26.0279V21.2304C62.8486 20.7529 62.4964 20.7079 62.164 20.7079H62.0337V20.433C62.5971 20.433 63.561 20.4692 64.3367 20.4692C65.1158 20.4692 66.0765 20.433 66.7053 20.433C66.69 20.826 66.6983 21.4317 66.7258 21.8337L66.4467 21.9073C66.4025 21.3124 66.2914 20.8369 65.3192 20.8369H64.0339V23.2349H65.1339C65.6888 23.2349 65.8102 22.9245 65.8647 22.4287H66.1419C66.124 22.7873 66.1143 23.1442 66.1143 23.501C66.1143 23.8496 66.124 24.1969 66.1419 24.5448L65.8647 24.5994C65.8102 24.0502 65.782 23.6933 65.1428 23.6933H64.034V25.826C64.034 26.4222 64.5685 26.4222 65.1615 26.4222C66.2722 26.4222 66.7618 26.3479 67.0397 25.3054L67.2991 25.3683C67.1777 25.8546 67.0673 26.339 66.9852 26.8254C66.3923 26.8254 65.3277 26.7892 64.4959 26.7892C63.6617 26.7892 62.5613 26.8254 62.0337 26.8254V26.5491Z" fill="#576081"/>
<path d="M66.984 26.864C66.3898 26.864 65.3258 26.8265 64.4949 26.8265C63.6613 26.8265 62.5613 26.864 62.0332 26.864H61.9941V26.8253V26.5491V26.5097H62.0332H62.1629C62.4985 26.5046 62.8026 26.4754 62.8072 26.0278V21.2303C62.8027 20.7833 62.4985 20.7535 62.1629 20.7465H61.9941V20.7078V20.3936H62.0332C62.5979 20.3936 63.5605 20.4285 64.3363 20.4285C65.1147 20.4285 66.0747 20.3936 66.7049 20.3936H66.7466L66.7446 20.4342C66.7382 20.572 66.7357 20.7344 66.7357 20.9072C66.7357 21.224 66.7446 21.57 66.7633 21.831L66.7646 21.864L66.7338 21.873L66.4084 21.9568L66.4065 21.9098C66.352 21.3155 66.2718 20.8844 65.3189 20.8755H64.0721L64.0707 23.1936H65.1335C65.6661 23.1885 65.7616 22.9187 65.8246 22.4254L65.8279 22.3892H65.8637H66.1827L66.1821 22.4304C66.1642 22.7872 66.1525 23.144 66.1525 23.5008C66.1525 23.8475 66.1642 24.1948 66.1821 24.5434L66.1827 24.5758L66.1494 24.5834L65.8279 24.6469L65.8246 24.6037C65.7611 24.045 65.7565 23.7389 65.1417 23.732L64.072 23.7313V25.8259C64.0728 26.3821 64.5578 26.3789 65.1611 26.3821C66.275 26.3757 66.7217 26.3225 67.0008 25.2938L67.0099 25.257L67.049 25.264L67.3455 25.3395L67.3365 25.3777C67.2172 25.8627 67.1061 26.3465 67.0232 26.8316L67.0156 26.864H66.984ZM66.9501 26.784C67.0303 26.3223 67.136 25.8589 67.2498 25.3979L67.0669 25.3522C66.7897 26.377 66.2531 26.4684 65.1609 26.4615C64.5782 26.4615 63.9943 26.4615 63.9917 25.8258V23.6532H65.1417C65.7878 23.6462 65.854 24.0322 65.8995 24.5535L66.0998 24.5123C66.0818 24.1751 66.0735 23.8366 66.0735 23.5008C66.0735 23.156 66.0818 22.8132 66.0998 22.4684H65.8995C65.8483 22.9452 65.6974 23.2805 65.1334 23.2741H63.9917V20.7954H65.3189C66.2815 20.789 66.4411 21.2805 66.4823 21.8563L66.6819 21.803C66.6659 21.5446 66.6548 21.2132 66.6548 20.9071C66.6548 20.7503 66.6587 20.6024 66.6639 20.4729C66.0351 20.4754 65.0981 20.5084 64.3364 20.5084C63.576 20.5084 62.6398 20.4754 62.0731 20.4729V20.6671H62.1628C62.4927 20.6671 62.8868 20.7243 62.888 21.2303V26.0278C62.8867 26.5326 62.4927 26.5884 62.1628 26.591H62.0731V26.784C62.6128 26.7833 63.6819 26.7491 64.4948 26.7491C65.3111 26.7491 66.3532 26.7833 66.9501 26.784Z" fill="#576081"/>
<path d="M68.5476 21.403C68.5476 20.7351 68.178 20.7078 67.8898 20.7078H67.7236V20.4323C68.02 20.4323 68.5931 20.4691 69.1579 20.4691C69.7129 20.4691 70.1576 20.4323 70.6473 20.4323C71.8125 20.4323 72.8503 20.744 72.8503 22.0456C72.8503 22.8678 72.2952 23.3719 71.5643 23.657L73.1461 25.9998C73.4053 26.3871 73.5895 26.4957 74.0438 26.549V26.8252C73.7384 26.8252 73.4419 26.789 73.137 26.789C72.8503 26.789 72.5531 26.8252 72.2675 26.8252C71.5552 25.9002 70.943 24.911 70.3417 23.857H69.7328V25.8176C69.7328 26.5236 70.0646 26.549 70.49 26.549H70.6568V26.8253C70.1281 26.8253 69.5936 26.7891 69.0654 26.7891C68.6207 26.7891 68.1856 26.8253 67.7236 26.8253V26.549H67.8898C68.2337 26.549 68.5476 26.3954 68.5476 26.0557V21.403ZM69.7327 23.5275H70.1845C71.1105 23.5275 71.6091 23.1796 71.6091 22.0989C71.6091 21.2849 71.0823 20.7624 70.2577 20.7624C69.9798 20.7624 69.8617 20.791 69.7326 20.7992V23.5275H69.7327Z" fill="#576081"/>
<path d="M74.061 26.8524C73.751 26.8524 73.4565 26.8156 73.1523 26.8156C72.87 26.8156 72.5748 26.8524 72.252 26.8371C71.5422 25.9159 70.9339 24.9324 70.3358 23.886H69.7891V25.8048C69.7987 26.4937 70.0785 26.488 70.5065 26.4982H70.7138V26.5375V26.8524H70.6727C70.1439 26.8524 69.6068 26.8156 69.0813 26.8156C68.6391 26.8156 68.2053 26.8524 67.7407 26.8524H67.7002V26.8131V26.4982H67.7407H67.9069C68.2405 26.4963 68.5217 26.3528 68.5229 26.0442V21.3916C68.5159 20.7414 68.1944 20.7452 67.9069 20.7357H67.7002V20.6964V20.3808H67.7407C68.0404 20.3808 68.6115 20.4169 69.1749 20.4169C69.7274 20.4169 70.1722 20.3808 70.665 20.3808C71.831 20.3833 72.9052 20.7021 72.9084 22.0316C72.9084 22.8589 72.3559 23.375 71.6417 23.6633L73.1965 25.9667C73.4552 26.3464 73.6163 26.4411 74.0667 26.4982L74.1007 26.5032V26.5375V26.8524H74.061V26.8524ZM69.7487 23.806H70.3814L70.3923 23.8263C70.9955 24.8784 71.6031 25.8663 72.2847 26.7742C72.5671 26.7742 72.8641 26.7368 73.1523 26.7368C73.4481 26.7368 73.733 26.7685 74.0211 26.7729V26.5723C73.5867 26.519 73.3833 26.3907 73.1305 26.0104L71.5204 23.6262L71.5659 23.6078C72.2898 23.326 72.8257 22.8365 72.8263 22.0313C72.8257 20.7609 71.8284 20.4663 70.665 20.4612C70.1766 20.4612 69.7326 20.4974 69.1749 20.4974C68.6315 20.4974 68.0827 20.4638 67.7798 20.4612V20.6555H67.9069C68.1944 20.6562 68.6037 20.7031 68.6037 21.3915V26.0441C68.6037 26.4117 68.2553 26.5793 67.9069 26.5799H67.7798V26.7729C68.2252 26.7716 68.6468 26.7368 69.0813 26.7368C69.599 26.7368 70.1208 26.7717 70.6329 26.7729V26.5799H70.5065C70.0842 26.5792 69.7082 26.5272 69.7082 25.8047V23.806H69.7486H69.7487ZM69.7487 23.5546H69.7082V20.7508L69.7435 20.7476C69.87 20.7381 69.9952 20.712 70.2749 20.712C71.1181 20.712 71.6661 21.2543 71.6673 22.0891C71.6648 23.1824 71.1348 23.5539 70.2017 23.5545H69.7487V23.5546ZM70.2017 23.4759C71.118 23.4682 71.5788 23.1534 71.5885 22.0892C71.5833 21.2892 71.0809 20.7927 70.2748 20.7895C70.0245 20.7895 69.9071 20.8123 69.789 20.8226V23.4759H70.2017Z" fill="#576081"/>
<path d="M80.327 25.0203L80.3437 25.0025V21.5689C80.3437 20.8172 79.8169 20.708 79.5397 20.708H79.3369V20.433C79.7713 20.433 80.1962 20.4692 80.6319 20.4692C81.0118 20.4692 81.3898 20.433 81.7716 20.433V20.708H81.6323C81.2435 20.708 80.8083 20.7809 80.8083 21.8705V26.0381C80.8083 26.3582 80.8174 26.6781 80.8629 26.962H80.5119L75.7466 21.7055V25.4788C75.7466 26.2756 75.9038 26.5493 76.616 26.5493H76.7733V26.8255C76.3761 26.8255 75.9776 26.7893 75.5804 26.7893C75.1625 26.7893 74.7371 26.8255 74.3213 26.8255V26.5493H74.4496C75.0888 26.5493 75.2832 26.12 75.2832 25.388V21.5309C75.2832 21.0185 74.8577 20.708 74.442 20.708H74.3213V20.4331C74.6717 20.4331 75.0343 20.4692 75.3853 20.4692C75.6613 20.4692 75.9307 20.4331 76.2086 20.4331L80.327 25.0203Z" fill="#576081"/>
<path d="M80.8632 27.0012L80.4821 26.9885L75.7855 21.8089V25.4781C75.7964 26.2749 75.9183 26.5009 76.6164 26.5098H76.8122V26.5492V26.8641H76.7717C76.3714 26.8641 75.9747 26.8266 75.5781 26.8266C75.1649 26.8266 74.7375 26.8641 74.321 26.8641H74.2793V26.8254V26.5098H74.321H74.4493C75.0603 26.5073 75.2354 26.1181 75.2412 25.3854V21.5308C75.2406 21.0431 74.837 20.7473 74.4417 20.7466H74.2793V20.7079V20.3924H74.321C74.6739 20.3924 75.0359 20.4285 75.385 20.4285C75.6571 20.4285 75.9253 20.3924 76.2359 20.405L80.3037 24.9371V21.5682C80.3011 20.8406 79.8083 20.7504 79.5395 20.7467H79.2949V20.7079V20.3924H79.3354C79.7731 20.3924 80.1991 20.4285 80.6316 20.4285C81.009 20.4285 81.3882 20.3924 81.7694 20.3924H81.8097V20.4337V20.7467H81.7694H81.632C81.2502 20.7568 80.8568 20.7904 80.8471 21.8705V26.0374C80.8471 26.3574 80.8556 26.6748 80.9024 26.9567L80.9075 27.0012H80.8632ZM80.5116 26.9212H80.8158C80.7753 26.6463 80.7663 26.3415 80.7663 26.0374V21.8704C80.7669 20.7713 81.2354 20.6698 81.632 20.6666H81.7289V20.473C81.3657 20.4755 80.9993 20.5085 80.6315 20.5085C80.2068 20.5085 79.794 20.4755 79.3751 20.473V20.6666H79.5394C79.8243 20.6698 80.3852 20.793 80.3852 21.5682L80.3724 25.0298L80.3544 25.0488L80.3262 25.078L76.2077 20.473C75.933 20.473 75.6647 20.5086 75.385 20.5086C75.0424 20.5086 74.6965 20.4756 74.3596 20.473V20.6667H74.4416C74.8761 20.6699 75.3221 20.9943 75.3221 21.5308V25.3853C75.3221 26.1206 75.1129 26.5885 74.4494 26.591L74.3596 26.5904V26.784C74.7594 26.7821 75.172 26.7491 75.5782 26.7491C75.9665 26.7491 76.3509 26.7821 76.7333 26.784V26.591H76.6165C75.8875 26.5904 75.7053 26.2749 75.704 25.478V21.6038L80.5116 26.9212ZM80.3037 25.0025V24.9992L80.2966 24.9923L80.3037 25.0025Z" fill="#576081"/>
<path d="M83.2592 25.5154C83.1656 25.8258 83.0539 26.0658 83.0539 26.229C83.0539 26.5046 83.4435 26.549 83.7477 26.549H83.851V26.8252C83.4801 26.8054 83.1021 26.789 82.7292 26.789C82.3963 26.789 82.0651 26.8056 81.7314 26.8252V26.549H81.7872C82.1478 26.549 82.454 26.3388 82.5906 25.9534L84.073 21.7515C84.1924 21.4125 84.3605 20.9547 84.4164 20.6151C84.711 20.5154 85.0818 20.3325 85.2571 20.222C85.2859 20.2126 85.3019 20.203 85.3309 20.203C85.3585 20.203 85.3764 20.203 85.3969 20.2316C85.4239 20.304 85.4508 20.3871 85.4804 20.4601L87.1828 25.25C87.2938 25.57 87.4035 25.9084 87.5236 26.1839C87.6353 26.4404 87.8303 26.549 88.1364 26.549H88.1909V26.8252C87.7746 26.8055 87.3575 26.7891 86.9146 26.7891C86.4609 26.7891 85.9969 26.8056 85.5253 26.8252V26.549H85.628C85.8398 26.549 86.2017 26.5134 86.2017 26.2842C86.2017 26.1655 86.1183 25.9185 86.015 25.6246L85.6549 24.5623H83.5547L83.2592 25.5154ZM84.6095 21.4582H84.5908L83.7303 24.05H85.4597L84.6095 21.4582Z" fill="#576081"/>
<path d="M88.1887 26.864C87.7722 26.8456 87.3557 26.8265 86.9149 26.8265C86.4612 26.8265 86.0004 26.8456 85.5268 26.864L85.4851 26.8666V26.8253V26.5085H85.5256H85.6276C85.8419 26.5085 86.1602 26.4602 86.1602 26.2844C86.1628 26.1802 86.0793 25.9288 85.9773 25.6374L85.625 24.6019H83.5837L83.2963 25.5269C83.2025 25.8393 83.0916 26.0812 83.0922 26.2304C83.0953 26.454 83.4412 26.5085 83.748 26.5085H83.8905V26.5498V26.8666L83.8488 26.864C83.4785 26.8456 83.1005 26.8265 82.7316 26.8265C82.3998 26.8265 82.0662 26.8456 81.7344 26.864L81.6914 26.8666V26.8253V26.5085H81.7318H81.787C82.1316 26.5072 82.4191 26.3136 82.5526 25.9409L84.0343 21.7384C84.1556 21.3987 84.3224 20.9422 84.4026 20.5772C84.6927 20.48 85.0642 20.2959 85.2426 20.1841C85.2683 20.1759 85.294 20.1632 85.3319 20.1632C85.3544 20.1626 85.4044 20.1683 85.4339 20.2166C85.4602 20.2921 85.4891 20.3734 85.5173 20.4477L87.2217 25.2369C87.3309 25.5582 87.4412 25.8966 87.5619 26.167C87.6691 26.4115 87.8391 26.5073 88.1368 26.5086H88.2312V26.5499V26.8667L88.1887 26.864ZM85.5659 26.7821C86.0242 26.7663 86.4727 26.7485 86.9149 26.7485C87.3448 26.7485 87.7471 26.7663 88.1494 26.7821V26.591H88.1366C87.8197 26.5929 87.6008 26.4698 87.4872 26.1999C87.3666 25.9218 87.2536 25.5821 87.1452 25.2615L85.4414 20.473C85.4133 20.4 85.3863 20.3168 85.3619 20.252C85.3542 20.2431 85.3561 20.2431 85.3485 20.2431H85.3316C85.3125 20.2431 85.3016 20.2488 85.2777 20.2552C85.0994 20.3701 84.7279 20.5498 84.4538 20.6215C84.3967 20.9682 84.2305 21.4253 84.1099 21.7644L82.6288 25.9675C82.4877 26.365 82.1636 26.5917 81.787 26.591H81.7722V26.7821C82.0891 26.7663 82.41 26.7485 82.7315 26.7485C83.0889 26.7485 83.4547 26.7663 83.8076 26.7821V26.591H83.748C83.4471 26.5872 83.026 26.5535 83.0145 26.2303C83.0151 26.0475 83.1288 25.8133 83.2191 25.5041L83.2596 25.5161L83.2191 25.5027L83.5239 24.5237H85.6814L86.0529 25.612C86.157 25.906 86.241 26.1498 86.241 26.2844C86.2282 26.5656 85.8374 26.5853 85.6275 26.591H85.5659L85.5659 26.7821ZM83.6742 24.0894L84.5604 21.4183H84.5912H84.6105H84.6381L85.5165 24.0894H83.6742ZM83.7852 24.01H85.4049L84.5995 21.5561L83.7852 24.01Z" fill="#576081"/>
<path d="M88.5981 20.8901C87.9038 20.8901 87.8762 21.0553 87.7368 21.7232H87.459C87.4956 21.4673 87.5425 21.2114 87.5714 20.9447C87.6085 20.6882 87.6253 20.4329 87.6253 20.1676H87.8486C87.9224 20.4425 88.1547 20.433 88.4031 20.433H93.1793C93.4277 20.433 93.6587 20.4241 93.678 20.1486L93.8993 20.1854C93.864 20.433 93.8275 20.68 93.7992 20.9276C93.7793 21.1746 93.7793 21.4222 93.7793 21.6685L93.5021 21.7708C93.4847 21.4324 93.4386 20.8901 92.818 20.8901H91.3004V25.7625C91.3004 26.4685 91.6252 26.5492 92.0679 26.5492H92.2437V26.8254C91.8831 26.8254 91.2362 26.7892 90.7356 26.7892C90.1813 26.7892 89.5324 26.8254 89.1718 26.8254V26.5492H89.347C89.8571 26.5492 90.1164 26.5041 90.1164 25.7815V20.8901H88.5981Z" fill="#576081"/>
<path d="M92.2437 26.864C91.8805 26.864 91.2324 26.8272 90.7357 26.8272C90.1825 26.8272 89.5344 26.864 89.1718 26.864H89.1308V26.8253V26.5097H89.1718H89.347C89.8571 26.4976 90.0619 26.4913 90.0747 25.7814L90.0734 20.93H88.5981V20.89V20.8493H90.1549V25.7814C90.1549 26.516 89.8552 26.5884 89.347 26.5903H89.211V26.7858C89.5774 26.782 90.1985 26.749 90.7357 26.749C91.2189 26.749 91.8375 26.7821 92.2033 26.7858V26.5903H92.0666C91.6218 26.5884 91.2612 26.4823 91.26 25.7623V20.8493H92.818C93.4392 20.8519 93.5206 21.3744 93.5381 21.7141L93.7402 21.6411C93.7402 21.4024 93.7409 21.163 93.7588 20.923C93.7844 20.6874 93.819 20.4525 93.8532 20.2188L93.7133 20.1953C93.6709 20.462 93.4097 20.4767 93.1794 20.4728H88.403H88.3562C88.138 20.4753 87.9019 20.4626 87.8177 20.2055H87.6663C87.6637 20.4594 87.6464 20.7059 87.6098 20.9497C87.5855 21.2017 87.5399 21.4443 87.5053 21.6849H87.7036C87.8261 21.0467 87.9064 20.8398 88.5981 20.8493V20.89L88.5981 20.93C87.9121 20.9415 87.9275 21.0563 87.776 21.7332L87.769 21.7643H87.7369H87.4121L87.4179 21.7185C87.4564 21.4601 87.5026 21.2048 87.5295 20.9401C87.5674 20.6842 87.5854 20.4302 87.5854 20.1674V20.1274H87.6252H87.8779L87.8857 20.156C87.9505 20.3871 88.1192 20.3883 88.3561 20.3921L88.4028 20.3934H93.1792C93.4346 20.3884 93.6213 20.3845 93.6374 20.1459L93.64 20.1021L93.6836 20.111L93.9461 20.1516L93.9391 20.1916C93.9012 20.4367 93.8659 20.6843 93.8377 20.93C93.819 21.1739 93.819 21.4221 93.819 21.6685V21.697L93.7928 21.7072L93.4649 21.8253L93.463 21.7719C93.4392 21.4278 93.4026 20.93 92.818 20.93H91.3402V25.7623C91.3498 26.4531 91.6264 26.5007 92.0666 26.5096H92.2835V26.549V26.8639L92.2437 26.864Z" fill="#576081"/>
<path d="M94.2412 26.5491H94.3709C94.7052 26.5491 95.0548 26.5048 95.0548 26.0279V21.2304C95.0548 20.7529 94.7052 20.7079 94.3709 20.7079H94.2412V20.433C94.6026 20.433 95.157 20.4692 95.6093 20.4692C96.0739 20.4692 96.6291 20.433 97.0641 20.433V20.7079H96.9345C96.6015 20.7079 96.2485 20.753 96.2485 21.2304V26.0279C96.2485 26.5048 96.6015 26.5491 96.9345 26.5491H97.0641V26.8254C96.6194 26.8254 96.0637 26.7892 95.6023 26.7892C95.148 26.7892 94.6026 26.8254 94.2412 26.8254V26.5491Z" fill="#576081"/>
<path d="M97.0644 26.864C96.6172 26.864 96.0634 26.8265 95.602 26.8265C95.1496 26.8265 94.6029 26.864 94.2415 26.864H94.2012V26.8253V26.5491V26.5097H94.2415H94.3712C94.7055 26.5046 95.0123 26.4761 95.0136 26.0278V21.2303C95.0123 20.7833 94.7055 20.7528 94.3712 20.7465H94.2012V20.7078V20.3936H94.2415C94.6029 20.3936 95.1586 20.4285 95.6097 20.4285C96.0711 20.4285 96.6261 20.3936 97.0644 20.3936H97.1036V20.4329V20.7465H97.0644H96.9348C96.5966 20.7529 96.2931 20.7833 96.2886 21.2303V26.0278C96.2931 26.4761 96.5967 26.5046 96.9348 26.5097H97.1036V26.5491V26.864H97.0644ZM97.0228 26.784V26.5903H96.9348C96.603 26.5903 96.2104 26.5326 96.2104 26.0278V21.2303C96.2104 20.7243 96.603 20.6671 96.9348 20.6671H97.0228V20.4729C96.5954 20.4754 96.0608 20.5084 95.6097 20.5084C95.1714 20.5084 94.6407 20.4754 94.282 20.4729V20.6671H94.3713C94.7004 20.6671 95.0945 20.7243 95.0957 21.2303V26.0278C95.0944 26.5325 94.7004 26.5903 94.3713 26.5903H94.282V26.784C94.6389 26.7801 95.1625 26.749 95.602 26.749C96.0506 26.749 96.5865 26.7821 97.0228 26.784Z" fill="#576081"/>
<path d="M100.754 20.2958C102.727 20.2958 104.299 21.5059 104.299 23.4558C104.299 25.5625 102.772 26.9624 100.802 26.9624C98.8385 26.9624 97.3408 25.6436 97.3408 23.6748C97.3408 21.7707 98.8295 20.2958 100.754 20.2958ZM100.894 26.5592C102.689 26.5592 103.002 24.9923 103.002 23.657C103.002 22.3186 102.273 20.6983 100.736 20.6983C99.1164 20.6983 98.6358 22.1269 98.6358 23.3529C98.6358 24.9923 99.3943 26.5592 100.894 26.5592Z" fill="#576081"/>
<path d="M97.2998 23.6747C97.3037 21.7484 98.8105 20.2582 100.754 20.2557V20.2957V20.3343C98.8522 20.3343 97.38 21.7903 97.3782 23.6746C97.3827 25.6213 98.8592 26.9203 100.802 26.921C102.753 26.9203 104.258 25.54 104.261 23.4538C104.259 21.5287 102.711 20.3369 100.754 20.3343V20.2957V20.2557C102.742 20.2569 104.336 21.4792 104.339 23.4538C104.338 25.5826 102.791 26.9972 100.802 27.001C98.8232 26.9972 97.3037 25.6651 97.2999 23.6746H97.2998V23.6747ZM98.5962 23.3528C98.5987 22.1211 99.0851 20.6569 100.737 20.6569C102.308 20.6608 103.041 22.3116 103.044 23.6569C103.041 24.9922 102.724 26.5973 100.895 26.5973V26.5592V26.5198C102.654 26.5173 102.959 24.9922 102.964 23.6569C102.964 22.3294 102.241 20.7402 100.737 20.7382C99.1493 20.7401 98.6795 22.1331 98.6764 23.3528C98.6777 24.9839 99.4291 26.516 100.895 26.5198V26.5592V26.5973C99.3585 26.5953 98.5987 25.0017 98.5962 23.3528Z" fill="#576081"/>
<path d="M110.535 25.0203L110.554 25.0025V21.5689C110.554 20.8172 110.025 20.708 109.747 20.708H109.547V20.433C109.981 20.433 110.406 20.4692 110.84 20.4692C111.221 20.4692 111.6 20.433 111.98 20.433V20.708H111.84C111.452 20.708 111.017 20.7809 111.017 21.8705V26.0381C111.017 26.3582 111.026 26.6781 111.072 26.962H110.721L105.955 21.7055V25.4788C105.955 26.2756 106.111 26.5493 106.824 26.5493H106.982V26.8255C106.584 26.8255 106.186 26.7893 105.788 26.7893C105.372 26.7893 104.945 26.8255 104.529 26.8255V26.5493H104.659C105.299 26.5493 105.491 26.12 105.491 25.388V21.5309C105.491 21.0185 105.067 20.708 104.649 20.708H104.529V20.4331C104.88 20.4331 105.242 20.4692 105.593 20.4692C105.871 20.4692 106.138 20.4331 106.417 20.4331L110.535 25.0203Z" fill="#576081"/>
<path d="M111.073 27.0011L110.69 26.9877L105.995 21.8087V25.4786C106.005 26.2748 106.127 26.5002 106.822 26.5084H107.023V26.5497V26.864H106.982C106.581 26.864 106.184 26.8272 105.789 26.8272C105.373 26.8272 104.949 26.864 104.528 26.864H104.49V26.8246V26.5084H104.528H104.659C105.269 26.5066 105.445 26.118 105.452 25.3878V21.5307C105.451 21.0431 105.047 20.7472 104.65 20.7466H104.49V20.7078V20.3936H104.528C104.883 20.3936 105.244 20.4285 105.593 20.4285C105.868 20.4285 106.135 20.3936 106.448 20.407L110.514 24.9371V21.5695C110.511 20.8407 110.018 20.753 109.747 20.7466H109.504V20.708V20.3937H109.546C109.982 20.3937 110.408 20.4286 110.839 20.4286C111.219 20.4286 111.596 20.3937 111.98 20.3937H112.02V20.433V20.7466H111.98H111.84C111.459 20.7574 111.065 20.7917 111.058 21.8704V26.0374C111.058 26.3574 111.065 26.6767 111.11 26.9567L111.117 27.0011H111.073V27.0011ZM110.722 26.9211H111.024C110.984 26.6462 110.977 26.3414 110.977 26.0373V21.8703C110.977 20.7694 111.444 20.6697 111.84 20.6665H111.94V20.4729C111.575 20.4754 111.209 20.5084 110.839 20.5084C110.418 20.5084 110.004 20.4754 109.585 20.4729V20.6665H109.747C110.034 20.6697 110.593 20.7948 110.593 21.5694L110.582 25.0297L110.565 25.0488L110.536 25.0779L106.417 20.4729C106.144 20.4729 105.874 20.5085 105.593 20.5085C105.252 20.5085 104.905 20.4755 104.568 20.4729V20.6666H104.65C105.084 20.6697 105.532 20.9942 105.532 21.5307V25.3878C105.532 26.1199 105.325 26.5884 104.659 26.591L104.568 26.5903V26.784C104.97 26.7821 105.382 26.7491 105.789 26.7491C106.174 26.7491 106.558 26.7821 106.942 26.784V26.591H106.823C106.096 26.5903 105.915 26.2748 105.915 25.4785V21.6024L110.722 26.9211ZM110.514 25.0024V24.9991L110.506 24.9922L110.514 25.0024Z" fill="#576081"/>
<path d="M113.467 25.5154C113.377 25.8258 113.264 26.0658 113.264 26.229C113.264 26.5046 113.654 26.549 113.957 26.549H114.061V26.8252C113.69 26.8054 113.311 26.789 112.94 26.789C112.606 26.789 112.274 26.8056 111.942 26.8252V26.549H111.995C112.358 26.549 112.664 26.3388 112.801 25.9534L114.283 21.7515C114.403 21.4125 114.57 20.9547 114.624 20.6151C114.921 20.5154 115.29 20.3325 115.468 20.222C115.494 20.2126 115.513 20.203 115.541 20.203C115.569 20.203 115.586 20.203 115.605 20.2316C115.633 20.304 115.662 20.3871 115.689 20.4601L117.391 25.25C117.502 25.57 117.613 25.9084 117.735 26.1839C117.846 26.4404 118.041 26.549 118.345 26.549H118.401V26.8252C117.984 26.8055 117.568 26.7891 117.123 26.7891C116.671 26.7891 116.207 26.8056 115.735 26.8252V26.549H115.838C116.049 26.549 116.412 26.5134 116.412 26.2842C116.412 26.1655 116.328 25.9185 116.225 25.6246L115.865 24.5623H113.764L113.467 25.5154ZM114.82 21.4582H114.801L113.939 24.05H115.671L114.82 21.4582Z" fill="#576081"/>
<path d="M118.397 26.8639C117.98 26.8474 117.565 26.8271 117.122 26.8271C116.671 26.8271 116.208 26.8474 115.736 26.8639L115.695 26.8665V26.8246V26.5097H115.734H115.835C116.051 26.5097 116.37 26.4601 116.37 26.2843C116.372 26.1801 116.289 25.9306 116.186 25.6373L115.834 24.6017H113.791L113.505 25.5267C113.413 25.8404 113.302 26.081 113.304 26.229C113.304 26.4538 113.651 26.5097 113.957 26.5097H114.098V26.549V26.8665L114.057 26.8639C113.687 26.8474 113.308 26.8271 112.94 26.8271C112.608 26.8271 112.275 26.8474 111.942 26.8639L111.901 26.8665V26.8246V26.5097H111.942H111.994C112.34 26.5083 112.628 26.3122 112.763 25.9408L114.244 21.7383C114.362 21.3986 114.529 20.9421 114.611 20.5783C114.902 20.4786 115.274 20.2957 115.453 20.1839C115.478 20.1757 115.503 20.1649 115.541 20.1649C115.565 20.1623 115.612 20.168 115.642 20.2182C115.669 20.29 115.696 20.3731 115.727 20.4474L117.429 25.2366C117.54 25.5579 117.651 25.8963 117.77 26.1687C117.879 26.4112 118.048 26.5071 118.343 26.5097H118.439V26.549V26.8665L118.397 26.8639ZM115.774 26.7832C116.232 26.7661 116.682 26.7483 117.122 26.7483C117.553 26.7483 117.957 26.7661 118.36 26.782L118.358 26.5908H118.343C118.03 26.5915 117.811 26.4696 117.696 26.1997C117.574 25.9217 117.464 25.582 117.353 25.2625L115.65 20.4728C115.623 20.3998 115.594 20.3166 115.572 20.2544C115.564 20.243 115.565 20.243 115.558 20.243H115.541C115.521 20.243 115.511 20.2493 115.488 20.2557C115.308 20.368 114.937 20.5508 114.663 20.6214C114.606 20.968 114.438 21.4245 114.319 21.7642L112.837 25.9674C112.696 26.3648 112.373 26.5915 111.994 26.5908H111.981V26.782C112.299 26.7661 112.617 26.7483 112.94 26.7483C113.298 26.7483 113.663 26.7661 114.02 26.782V26.5908H113.957C113.656 26.587 113.234 26.5547 113.223 26.229C113.225 26.0474 113.339 25.8144 113.429 25.5039L113.467 25.5159L113.429 25.5025L113.733 24.5235H115.892L116.262 25.6118C116.364 25.9064 116.449 26.1496 116.449 26.2842C116.435 26.5655 116.047 26.5851 115.835 26.5908H115.774V26.7832H115.774ZM113.884 24.0887L114.771 21.4182H114.799H114.819H114.848L115.723 24.0887H113.884ZM113.995 24.0099H115.613L114.808 21.5572L113.995 24.0099Z" fill="#576081"/>
<path d="M120.733 25.9276C120.733 26.294 120.989 26.4031 121.286 26.4406C121.665 26.4685 122.082 26.4685 122.509 26.4222C122.897 26.3759 123.23 26.1562 123.396 25.9276C123.543 25.7256 123.627 25.4691 123.683 25.2679H123.951C123.85 25.7898 123.72 26.3041 123.608 26.8253C122.796 26.8253 121.98 26.7891 121.166 26.7891C120.351 26.7891 119.538 26.8253 118.724 26.8253V26.5491H118.851C119.186 26.5491 119.548 26.5047 119.548 25.9364V21.2304C119.548 20.7529 119.186 20.7079 118.851 20.7079H118.724V20.433C119.213 20.433 119.694 20.4692 120.184 20.4692C120.658 20.4692 121.12 20.433 121.592 20.433V20.7079H121.359C121.009 20.7079 120.733 20.7181 120.733 21.2019V25.9276Z" fill="#576081"/>
<path d="M123.608 26.8639C122.793 26.8639 121.979 26.8271 121.167 26.8271C120.352 26.8271 119.537 26.8639 118.722 26.8639H118.683V26.8246V26.5096H118.722H118.851C119.186 26.502 119.503 26.4792 119.507 25.9363V21.2285C119.503 20.7834 119.188 20.7529 118.851 20.7465H118.683V20.7078V20.3936H118.722C119.214 20.3936 119.696 20.4285 120.185 20.4285C120.655 20.4285 121.117 20.3936 121.592 20.3936H121.63V20.4329V20.7465H121.592H121.36C121.001 20.7567 120.778 20.7402 120.771 21.2018V25.9275C120.773 26.2684 120.999 26.3605 121.288 26.4005C121.452 26.4119 121.623 26.4189 121.801 26.4189C122.028 26.4189 122.263 26.4081 122.502 26.3827C122.879 26.339 123.204 26.1237 123.363 25.9053C123.506 25.7097 123.588 25.4583 123.643 25.2583L123.652 25.2279H123.682H124L123.992 25.2761C123.887 25.7999 123.76 26.3117 123.648 26.8329L123.64 26.8641H123.609H123.608V26.8639ZM123.575 26.7839C123.682 26.2874 123.804 25.8017 123.903 25.3064H123.713C123.655 25.5058 123.573 25.7515 123.427 25.9515C123.255 26.1889 122.912 26.4124 122.511 26.4613C122.269 26.4861 122.029 26.4988 121.801 26.4988C121.622 26.4988 121.448 26.4905 121.281 26.479C120.98 26.446 120.688 26.319 120.689 25.9274V21.2017C120.689 20.6931 121.015 20.6671 121.36 20.6671H121.551V20.4728C121.095 20.4753 120.646 20.5089 120.185 20.5089C119.706 20.5089 119.237 20.4753 118.762 20.4728V20.6671H118.851C119.181 20.6671 119.585 20.7242 119.585 21.2283V25.9363C119.585 26.5286 119.183 26.5902 118.851 26.5902H118.762V26.7839C119.562 26.7832 120.363 26.7489 121.167 26.7489C121.971 26.7489 122.774 26.7832 123.575 26.7839Z" fill="#576081"/>
</svg>
