<svg width="150" height="26" viewBox="0 0 150 26" fill="none" xmlns="http://www.w3.org/2000/svg">
<path d="M41.4213 15.4579C41.4191 15.5955 41.3647 15.7265 41.2701 15.8224C41.1754 15.9183 41.0482 15.9713 40.9162 15.9697H31.6132C31.8517 18.368 33.5776 20.5616 36.0191 20.5616C37.6889 20.5616 38.9237 19.9035 39.8498 18.5143C39.8929 18.4413 39.9525 18.3804 40.0235 18.3371C40.0944 18.2938 40.1745 18.2692 40.2567 18.2657C40.318 18.2639 40.379 18.2751 40.4359 18.2987C40.4929 18.3223 40.5446 18.3578 40.588 18.403C40.6313 18.4482 40.6654 18.5021 40.688 18.5615C40.7107 18.6208 40.7215 18.6844 40.7197 18.7483C40.72 18.8365 40.6957 18.9229 40.6496 18.9969C39.7094 20.6932 37.8432 21.5268 36.0191 21.5268C32.8901 21.5268 30.645 18.602 30.645 15.4871C30.645 12.3723 32.876 9.44751 36.0191 9.44751C39.1622 9.44751 41.4073 12.343 41.4213 15.4579V15.4579ZM40.4251 15.0046C40.2286 12.6063 38.4606 10.4127 36.0191 10.4127C33.5776 10.4127 31.8517 12.6063 31.6132 15.0046H40.4251Z" fill="#576081"/>
<path d="M52.7317 9.68098C52.8533 9.68466 52.9691 9.73669 53.0552 9.8264C53.1413 9.91612 53.1912 10.0367 53.1947 10.1636C53.1964 10.2274 53.1857 10.291 53.163 10.3504C53.1404 10.4097 53.1063 10.4637 53.063 10.5089C53.0196 10.554 52.9679 10.5895 52.9109 10.6131C52.8539 10.6367 52.7929 10.648 52.7317 10.6462H50.234V20.8682C50.2329 20.9958 50.1838 21.1179 50.0972 21.2082C50.0106 21.2984 49.8935 21.3496 49.771 21.3508C49.6493 21.3471 49.5336 21.2951 49.4475 21.2054C49.3614 21.1156 49.3115 20.995 49.3079 20.8682V10.6462H46.9085C46.8473 10.648 46.7863 10.6367 46.7293 10.6131C46.6723 10.5895 46.6206 10.554 46.5772 10.5089C46.5339 10.4637 46.4998 10.4097 46.4772 10.3504C46.4545 10.291 46.4438 10.2274 46.4455 10.1636C46.4466 10.0359 46.4957 9.91385 46.5823 9.82359C46.6689 9.73334 46.7861 9.68213 46.9085 9.68098H49.3079V5.95191C49.3082 5.82834 49.3507 5.70892 49.4279 5.6151C49.505 5.52128 49.6118 5.45922 49.7289 5.44008C49.7944 5.43101 49.8609 5.43679 49.9241 5.45701C49.9872 5.47723 50.0454 5.51142 50.0947 5.55724C50.144 5.60305 50.1832 5.65942 50.2097 5.72249C50.2362 5.78556 50.2492 5.85384 50.2481 5.92266V9.68098H52.7317Z" fill="#576081"/>
<path d="M67.955 14.6238V20.8097C67.9514 20.9365 67.9015 21.0571 67.8154 21.1469C67.7294 21.2366 67.6136 21.2886 67.4919 21.2923C67.4306 21.2941 67.3697 21.2829 67.3127 21.2592C67.2557 21.2356 67.204 21.2002 67.1606 21.155C67.1173 21.1098 67.0832 21.0559 67.0606 20.9965C67.0379 20.9371 67.0271 20.8736 67.0289 20.8097V14.6238C67.0289 12.5326 65.8923 10.456 63.6613 10.456C60.7988 10.456 59.5641 13.0591 59.7324 15.7352C59.7324 15.8083 59.7605 16.1154 59.7605 16.1593V20.7951C59.7603 20.9186 59.7177 21.0381 59.6406 21.1319C59.5634 21.2257 59.4567 21.2878 59.3396 21.3069C59.2741 21.316 59.2075 21.3102 59.1444 21.29C59.0812 21.2698 59.023 21.2356 58.9737 21.1897C58.9244 21.1439 58.8852 21.0876 58.8588 21.0245C58.8323 20.9614 58.8192 20.8931 58.8204 20.8243V0.482586C58.8215 0.354951 58.8706 0.232867 58.9572 0.142612C59.0438 0.0523561 59.161 0.00114478 59.2834 0C59.4051 0.00367842 59.5209 0.0557029 59.6069 0.14542C59.693 0.235138 59.7429 0.35576 59.7465 0.482586V11.9769C60.5463 10.4853 61.9775 9.47623 63.6473 9.47623C66.3975 9.47623 67.955 11.9769 67.955 14.6238Z" fill="#576081"/>
<path d="M84.6689 15.4579C84.6667 15.5955 84.6123 15.7265 84.5176 15.8224C84.423 15.9183 84.2957 15.9713 84.1637 15.9697H74.8608C75.0993 18.368 76.8252 20.5616 79.2667 20.5616C80.9365 20.5616 82.1712 19.9035 83.0973 18.5143C83.1404 18.4413 83.2001 18.3804 83.271 18.3371C83.342 18.2938 83.4221 18.2692 83.5042 18.2657C83.5655 18.2639 83.6265 18.2751 83.6835 18.2987C83.7404 18.3223 83.7922 18.3578 83.8355 18.403C83.8789 18.4482 83.9129 18.5021 83.9356 18.5615C83.9582 18.6208 83.969 18.6844 83.9673 18.7483C83.9676 18.8365 83.9432 18.9229 83.8971 18.9969C82.957 20.6932 81.0908 21.5268 79.2667 21.5268C76.1376 21.5268 73.8926 18.602 73.8926 15.4871C73.8926 12.3723 76.1236 9.44751 79.2667 9.44751C82.3817 9.44751 84.6548 12.343 84.6689 15.4579V15.4579ZM83.6586 15.0046C83.4621 12.6063 81.6942 10.4127 79.2527 10.4127C76.8112 10.4127 75.0853 12.6063 74.8467 15.0046H83.6586Z" fill="#576081"/>
<path d="M96.1039 10.1342C96.1128 10.2641 96.0721 10.3923 95.9906 10.4909C95.9091 10.5896 95.7935 10.6506 95.669 10.6607C92.9328 11.0848 91.698 13.41 91.698 16.1154V20.7511C91.6978 20.8747 91.6552 20.9941 91.5781 21.088C91.5009 21.1818 91.3942 21.2438 91.2771 21.263C91.2116 21.272 91.145 21.2663 91.0819 21.246C91.0187 21.2258 90.9605 21.1916 90.9112 21.1458C90.862 21.1 90.8227 21.0436 90.7963 20.9806C90.7698 20.9175 90.7567 20.8492 90.7579 20.7804V10.2074C90.7581 10.0838 90.8006 9.96437 90.8778 9.87055C90.955 9.77674 91.0617 9.71468 91.1788 9.69553C91.2443 9.68647 91.3109 9.69225 91.374 9.71247C91.4372 9.73269 91.4954 9.76687 91.5447 9.81269C91.5939 9.85851 91.6332 9.91488 91.6596 9.97795C91.6861 10.041 91.6992 10.1093 91.698 10.1781V12.3278C92.4697 10.9678 93.9992 9.68091 95.5988 9.68091C95.8373 9.68091 96.1039 9.85639 96.1039 10.1342Z" fill="#576081"/>
<path d="M111.398 15.4579C111.396 15.5955 111.342 15.7265 111.247 15.8224C111.152 15.9183 111.025 15.9713 110.893 15.9697H101.59C101.829 18.368 103.555 20.5616 105.996 20.5616C107.666 20.5616 108.901 19.9035 109.827 18.5143C109.87 18.4413 109.93 18.3804 110.001 18.3371C110.071 18.2938 110.152 18.2692 110.234 18.2657C110.295 18.2639 110.356 18.2751 110.413 18.2987C110.47 18.3223 110.522 18.3578 110.565 18.403C110.608 18.4482 110.642 18.5021 110.665 18.5615C110.688 18.6208 110.699 18.6844 110.697 18.7483C110.697 18.8365 110.673 18.9229 110.627 18.9969C109.687 20.6932 107.82 21.5268 105.996 21.5268C102.867 21.5268 100.622 18.602 100.622 15.4871C100.622 12.3723 102.853 9.44751 105.996 9.44751C109.139 9.44751 111.384 12.343 111.398 15.4579V15.4579ZM110.402 15.0046C110.206 12.6063 108.438 10.4127 105.996 10.4127C103.555 10.4127 101.829 12.6063 101.59 15.0046H110.402Z" fill="#576081"/>
<path d="M126.439 10.252V20.8689C126.436 20.9957 126.386 21.1163 126.3 21.2061C126.214 21.2958 126.098 21.3478 125.976 21.3515C125.915 21.3533 125.854 21.3421 125.797 21.3184C125.74 21.2948 125.688 21.2594 125.645 21.2142C125.601 21.169 125.567 21.1151 125.545 21.0557C125.522 20.9963 125.511 20.9328 125.513 20.8689V18.8508C124.741 20.4448 123.38 21.6001 121.64 21.6001C118.876 21.6001 117.347 19.0994 117.347 16.4525V10.2374C117.348 10.1097 117.397 9.98765 117.484 9.8974C117.57 9.80714 117.687 9.75593 117.81 9.75479C117.931 9.75847 118.047 9.81049 118.133 9.90021C118.219 9.98993 118.269 10.1105 118.273 10.2374V16.4525C118.273 18.5437 119.409 20.6203 121.64 20.6203C124.769 20.6203 125.513 17.5639 125.513 14.1858V10.2228C125.514 10.1445 125.533 10.0677 125.569 9.99866C125.604 9.92965 125.655 9.87048 125.716 9.82609C125.778 9.7817 125.849 9.75339 125.924 9.74353C125.998 9.73367 126.074 9.74254 126.145 9.76941C126.233 9.81214 126.307 9.88028 126.36 9.9658C126.412 10.0513 126.439 10.1506 126.439 10.252V10.252Z" fill="#576081"/>
<path d="M150 14.5805V20.7956C149.996 20.9225 149.946 21.0431 149.86 21.1328C149.774 21.2225 149.658 21.2745 149.537 21.2782C149.475 21.28 149.414 21.2688 149.358 21.2452C149.301 21.2216 149.249 21.1861 149.205 21.1409C149.162 21.0957 149.128 21.0418 149.105 20.9824C149.083 20.9231 149.072 20.8595 149.074 20.7956V14.5805C149.074 12.4893 147.937 10.442 145.706 10.442C142.9 10.442 141.833 13.5715 141.833 15.999V20.7956C141.83 20.9225 141.78 21.0431 141.694 21.1328C141.608 21.2225 141.492 21.2745 141.37 21.2782C141.309 21.28 141.248 21.2688 141.191 21.2452C141.134 21.2216 141.082 21.1861 141.039 21.1409C140.996 21.0957 140.962 21.0418 140.939 20.9824C140.916 20.9231 140.906 20.8595 140.907 20.7956V14.5805C140.907 12.4893 139.771 10.442 137.54 10.442C134.705 10.442 133.541 12.7672 133.639 15.8674C133.639 15.9405 133.667 16.0721 133.639 16.116V20.781C133.639 20.9046 133.596 21.024 133.519 21.1178C133.442 21.2116 133.335 21.2737 133.218 21.2929C133.153 21.3019 133.086 21.2961 133.023 21.2759C132.96 21.2557 132.901 21.2215 132.852 21.1757C132.803 21.1299 132.764 21.0735 132.737 21.0104C132.711 20.9474 132.698 20.8791 132.699 20.8103V10.208C132.699 10.0844 132.742 9.965 132.819 9.87119C132.896 9.77737 133.003 9.71531 133.12 9.69616C133.185 9.6871 133.252 9.69288 133.315 9.7131C133.378 9.73332 133.436 9.7675 133.486 9.81332C133.535 9.85914 133.574 9.91551 133.601 9.97858C133.627 10.0416 133.64 10.1099 133.639 10.1787V11.9482C134.439 10.4566 135.87 9.47681 137.54 9.47681C139.434 9.47681 140.907 10.7345 141.511 12.5624C142.282 10.7491 143.784 9.47681 145.706 9.47681C148.442 9.47681 150 11.9482 150 14.5805Z" fill="#576081"/>
<path opacity="0.6" d="M7.99476 9.61755L0 13.2399L7.99476 17.9576L15.9991 13.2399L7.99476 9.61755Z" fill="#576081"/>
<path d="M0 13.2402L7.99476 17.9579V0L0 13.2402Z" fill="#576081"/>
<path d="M7.99463 0V17.9579L15.999 13.2402L7.99463 0Z" fill="#576081"/>
<path d="M0 14.7582L7.99476 26V19.4663L0 14.7582Z" fill="#576081"/>
<path d="M7.99561 19.4663V26L16 14.7582L7.99561 19.4663Z" fill="#576081"/>
</svg>
