<svg width="52" height="32" viewBox="0 0 52 32" fill="none" xmlns="http://www.w3.org/2000/svg">
<g clip-path="url(#clip0_14_912)">
<path d="M18.9507 3.42181H32.9968V28.5753H18.9507V3.42181Z" fill="#49516E"/>
<path d="M19.8431 15.9987C19.8431 10.8881 22.2509 6.35502 25.9519 3.42186C23.232 1.28874 19.7986 0 16.053 0C7.17905 0 0 7.15486 0 15.9987C0 24.8423 7.17905 31.9974 16.0528 31.9974C19.7984 31.9974 23.2318 30.7086 25.9519 28.5753C22.2509 25.6867 19.8431 21.1093 19.8431 15.9987V15.9987Z" fill="#576081"/>
<path d="M51.9484 15.9987C51.9484 24.8423 44.7694 31.9974 35.8957 31.9974C32.15 31.9974 28.7166 30.7086 25.9966 28.5753C29.7422 25.6424 32.1056 21.1093 32.1056 15.9987C32.1056 10.8881 29.6975 6.35502 25.9966 3.42186C28.7164 1.28874 32.15 0 35.8957 0C44.7694 0 51.9486 7.1994 51.9486 15.9987H51.9484Z" fill="#3B435B"/>
</g>
<defs>
<clipPath id="clip0_14_912">
<rect width="52" height="32" fill="white"/>
</clipPath>
</defs>
</svg>
