<svg width="114" height="32" viewBox="0 0 114 32" fill="none" xmlns="http://www.w3.org/2000/svg">
<path d="M44.2222 9.00145V12.7732H47.8359V15.5971H44.1822V21.3254C44.1822 22.5961 44.881 23.2012 45.8793 23.2012C46.3784 23.2012 46.9774 23.0398 47.4565 22.7978L48.355 25.6014C47.4166 25.9846 46.6579 26.146 45.6597 26.1662C42.8047 26.267 40.9479 24.6332 40.9479 21.3254V15.5971H38.4922V12.7732H40.9479V9.34434L44.2222 9.00145ZM106.693 12.5917L106.933 14.1246C107.951 12.4909 109.308 12.2488 110.626 12.2488C111.984 12.2488 113.281 12.7934 114 13.5195L112.543 16.3635C111.884 15.7988 111.265 15.4962 110.207 15.4962C108.51 15.4962 106.933 16.4039 106.933 18.8646V25.8636H103.678V12.5917H106.693ZM98.7269 17.6746C98.5073 15.9601 97.1896 15.0928 95.3129 15.0928C93.5559 15.0928 92.1185 15.9601 91.6393 17.6746H98.7269ZM91.5994 20.3975C91.819 22.0313 93.2165 23.2213 95.5125 23.2213C96.7104 23.2213 98.2877 22.7574 99.0264 21.991L101.103 24.0685C99.7252 25.5207 97.4491 26.2267 95.4526 26.2267C90.9206 26.2267 88.2253 23.4029 88.2253 19.147C88.2253 15.113 90.9405 12.2085 95.213 12.2085C99.6054 12.2085 102.361 14.9516 101.841 20.4177H91.5994V20.3975ZM77.2644 7.02478V14.3869C78.4424 12.8539 79.8799 12.39 81.3573 12.39C85.0907 12.39 86.7279 14.9516 86.7279 18.8444V25.8434H83.4736V18.8848C83.4736 16.4644 82.2158 15.4357 80.4988 15.4357C78.5821 15.4357 77.2445 17.0695 77.2445 19.0663V25.8434H73.9901V7.02478H77.2644ZM68.6395 8.84009V12.6119H72.2532V15.4357H68.5996V21.164C68.5996 22.4347 69.2983 23.0398 70.2966 23.0398C70.7957 23.0398 71.3947 22.8784 71.8738 22.6364L72.7723 25.44C71.8339 25.8233 71.0752 25.9846 70.077 26.0048C67.222 26.1057 65.3652 24.4719 65.3652 21.164V15.4357H62.9095V12.6119H65.3652V9.20315L68.6395 8.84009ZM59.6552 17.6746C59.4356 15.9601 58.1179 15.0928 56.2412 15.0928C54.4842 15.0928 53.0467 15.9601 52.5676 17.6746H59.6552ZM52.5277 20.3975C52.7473 22.0313 54.1448 23.2213 56.4408 23.2213C57.6387 23.2213 59.216 22.7574 59.9547 21.991L62.031 24.0685C60.6535 25.5207 58.3774 26.2267 56.3809 26.2267C51.8488 26.2267 49.1536 23.4029 49.1536 19.147C49.1536 15.113 51.8688 12.2085 56.1214 12.2085C60.5137 12.2085 63.2489 14.9516 62.7498 20.4177H52.5277V20.3975Z" fill="#576081"/>
<path fill-rule="evenodd" clip-rule="evenodd" d="M32.1129 16C32.1129 24.8366 24.9242 32 16.0564 32C7.18871 32 0 24.8366 0 16C0 7.16344 7.18871 0 16.0564 0C24.9242 0 32.1129 7.16344 32.1129 16ZM17.6296 17.4882C17.7014 17.4851 17.7475 17.483 17.7703 17.483C21.6759 17.2977 24.6103 16.6182 24.6103 15.8151C24.6103 14.9914 21.6759 14.3119 17.7703 14.1471V16.8035C17.6463 16.8241 17.0471 16.8653 15.8278 16.8653C14.8153 16.8653 14.0714 16.8241 13.8234 16.8035V14.1471C9.91776 14.3119 6.98337 14.9914 6.98337 15.8151C6.98337 16.6388 9.89709 17.3183 13.8234 17.483C14.0714 17.5036 14.7946 17.5242 15.8072 17.5242C16.805 17.5242 17.3767 17.4993 17.6296 17.4882ZM17.7703 11.4908V13.8589C22.2132 14.0648 25.5402 14.9502 25.5402 16.0004C25.5402 17.0506 22.2132 17.9155 17.7497 18.1008V25.7199H13.8027V18.1008C9.38047 17.8949 6.0328 17.03 6.0328 15.9798C6.0328 14.9296 9.35981 14.0648 13.8027 13.8589V11.4908H8.34724V7.86658H23.2258V11.4908H17.7703Z" fill="#576081"/>
</svg>
