<svg width="106" height="32" viewBox="0 0 106 32" fill="none" xmlns="http://www.w3.org/2000/svg">
<path d="M42.68 12.6625H40.9092V24.305H42.68V12.6625Z" fill="#576081"/>
<path d="M50.6127 7.73083H36.1787V9.51397H50.6127V7.73083Z" fill="#576081"/>
<path d="M45.8797 12.6626H44.1089V24.3052H45.8797V12.6626Z" fill="#576081"/>
<path d="M94.8008 24.3172H96.5876V17.3052L94.8008 15.3052V24.3172Z" fill="#576081"/>
<path d="M104.21 7.73076V20.7308L91.5703 6.58618V24.3171H93.3531V11.3131L106 25.4617V7.73076H104.21Z" fill="#576081"/>
<path d="M79.9973 7.72363C75.4545 7.72363 71.7612 11.4425 71.7612 16.0168C71.7612 20.5911 75.4545 24.31 79.9973 24.31C84.5401 24.31 88.2333 20.5911 88.2333 16.0168C88.2333 11.4465 84.5401 7.72363 79.9973 7.72363ZM79.9973 22.5228C76.4356 22.5228 73.5361 19.6072 73.5361 16.0168C73.5361 12.4264 76.4316 9.51078 79.9973 9.51078C83.5589 9.51078 86.4585 12.4264 86.4585 16.0168C86.4585 19.6032 83.5589 22.5228 79.9973 22.5228Z" fill="#576081"/>
<path d="M79.9975 14.824C79.3434 14.824 78.813 15.3581 78.813 16.0167C78.813 16.6754 79.3434 17.2095 79.9975 17.2095C80.6516 17.2095 81.1821 16.6754 81.1821 16.0167C81.1821 15.3581 80.6516 14.824 79.9975 14.824Z" fill="#576081"/>
<path d="M68.664 12.8191C68.664 10.0159 66.4145 7.73474 63.6506 7.73474H54.23V24.3211H55.9889V9.53394H63.6506C65.4254 9.53394 66.8692 11.0078 66.8692 12.8191C66.8692 14.6223 65.4454 16.0882 63.6865 16.1082L57.4367 16.1042V24.3211H59.1955V17.9034H63.3156L66.6818 24.3171H68.7278L65.214 17.6504C67.2441 16.9717 68.664 14.9958 68.664 12.8191Z" fill="#576081"/>
<path d="M24.0022 4.44578L0 0L12.6313 32L30.2281 10.4096L24.0022 4.44578ZM23.6193 6.40562L27.2926 9.91968L17.2498 11.751L23.6193 6.40562ZM15.0682 11.3855L4.48296 2.54618L21.7806 5.751L15.0682 11.3855ZM14.3104 12.9518L12.5874 27.3173L3.28245 3.73494L14.3104 12.9518ZM15.9057 13.7108L27.0254 11.6827L14.2745 27.3293L15.9057 13.7108Z" fill="#576081"/>
</svg>
