<svg width="74" height="24" viewBox="0 0 74 24" fill="none" xmlns="http://www.w3.org/2000/svg">
<path d="M38.271 7.67252C38.2288 11.0158 41.2377 12.8814 43.5042 13.9907C45.8329 15.1288 46.6151 15.8586 46.6058 16.8765C46.5885 18.434 44.7483 19.1215 43.0264 19.1482C40.0222 19.1949 38.2753 18.3336 36.8867 17.6821L35.8044 22.7682C37.1977 23.413 39.7776 23.9753 42.4529 24C48.7328 24 52.8412 20.8866 52.8635 16.0595C52.888 9.93323 44.4263 9.59414 44.4841 6.85586C44.5041 6.02555 45.2929 5.1395 47.0215 4.91421C47.8771 4.80041 50.2391 4.71331 52.9169 5.95181L53.968 1.03092C52.5279 0.504284 50.677 6.31775e-07 48.3726 6.31775e-07C42.4618 6.31775e-07 38.3045 3.15576 38.271 7.67252V7.67252ZM64.0672 0.423864C62.9205 0.423864 61.9542 1.09566 61.5229 2.12658L52.5524 23.6386H58.8277L60.0764 20.1724H67.7447L68.4691 23.6386H74L69.1735 0.423864H64.0672V0.423864ZM64.9451 6.69502L66.7561 15.4124H61.7964L64.9451 6.69502V6.69502ZM30.6626 0.424155L25.7162 23.6383H31.696L36.6401 0.423574H30.6626V0.424155ZM21.8164 0.423574L15.5923 16.2247L13.0746 2.78967C12.7792 1.28988 11.6125 0.423864 10.3169 0.423864H0.142508L0 1.09798C2.08877 1.5532 4.46197 2.28742 5.89977 3.07302C6.77967 3.55291 7.03058 3.97242 7.31964 5.11279L12.0883 23.6386H18.4075L28.0957 0.423864H21.8164" fill="#576081"/>
</svg>
